<?xml version="1.0" encoding="UTF-8" standalone="no"?>
<svg
   aria-hidden="true"
   role="img"
   class="iconify iconify--logos"
   width="31.88"
   height="32"
   preserveAspectRatio="xMidYMid meet"
   viewBox="0 0 256 257"
   version="1.1"
   id="svg6"
   sodipodi:docname="vite.svg"
   inkscape:version="1.3.2 (091e20e, 2023-11-25, custom)"
   xmlns:inkscape="http://www.inkscape.org/namespaces/inkscape"
   xmlns:sodipodi="http://sodipodi.sourceforge.net/DTD/sodipodi-0.dtd"
   xmlns="http://www.w3.org/2000/svg"
   xmlns:svg="http://www.w3.org/2000/svg">
  <sodipodi:namedview
     id="namedview6"
     pagecolor="#505050"
     bordercolor="#eeeeee"
     borderopacity="1"
     inkscape:showpageshadow="0"
     inkscape:pageopacity="0"
     inkscape:pagecheckerboard="0"
     inkscape:deskcolor="#d1d1d1"
     inkscape:zoom="3.859375"
     inkscape:cx="48.712551"
     inkscape:cy="19.951417"
     inkscape:window-width="1366"
     inkscape:window-height="697"
     inkscape:window-x="1016"
     inkscape:window-y="-8"
     inkscape:window-maximized="1"
     inkscape:current-layer="svg6" />
  <defs
     id="defs5">
    <linearGradient
       id="IconifyId1813088fe1fbc01fb466"
       x1="-.828%"
       x2="57.636%"
       y1="7.652%"
       y2="78.411%">
      <stop
         offset="0%"
         stop-color="#41D1FF"
         id="stop1" />
      <stop
         offset="100%"
         stop-color="#BD34FE"
         id="stop2" />
    </linearGradient>
    <linearGradient
       id="IconifyId1813088fe1fbc01fb467"
       x1="43.376%"
       x2="50.316%"
       y1="2.242%"
       y2="89.03%">
      <stop
         offset="0%"
         stop-color="#FFEA83"
         id="stop3" />
      <stop
         offset="8.333%"
         stop-color="#FFDD35"
         id="stop4" />
      <stop
         offset="100%"
         stop-color="#FFA800"
         id="stop5" />
    </linearGradient>
  </defs>
  <rect
     style="fill:#f3eee8;stroke-width:10.9883"
     id="rect6"
     width="256.03625"
     height="257"
     x="-0.01812163"
     y="0"
     ry="68.672066" />
  <path
     style="fill:#6a0a0b;fill-opacity:1;stroke-width:0.183619"
     d="m 189.89303,236.67648 c -2.54585,-0.28032 -4.70693,-0.67515 -7.52806,-1.37552 -3.48202,-0.86441 -5.58495,-1.23488 -14.13834,-2.49104 -14.6235,-2.14763 -16.65163,-2.39504 -29.28624,-3.57335 -15.01183,-1.39997 -20.97227,-2.06529 -21.63822,-2.41536 -0.21751,-0.11441 -0.6433,-0.41501 -0.94641,-0.66825 l -0.55075,-0.46027 -0.0582,0.57936 c -0.034,0.34053 -0.16125,0.57941 -0.30933,0.57941 -0.13843,0 -0.85622,-0.12732 -1.59479,-0.28298 -3.99371,-0.84153 -7.34464,-1.18811 -14.93668,-1.54473 -3.10988,-0.14604 -3.9047,-0.24431 -5.14446,-0.63593 -1.66581,-0.52619 -2.2934,-0.89914 -2.00549,-1.19199 0.32109,-0.32647 6.98947,-2.77098 7.54733,-2.7667 0.28955,0.006 0.88676,0.16744 1.32708,0.3672 1.04556,0.47456 1.7842,0.4558 2.70057,-0.068 1.16644,-0.66721 4.08069,-0.92313 6.81316,-0.59857 1.27661,0.15164 1.33228,0.14147 1.80384,-0.32996 0.78207,-0.78206 0.55234,-0.92926 -1.5423,-0.98774 -1.37642,-0.039 -1.85976,-0.11211 -1.80363,-0.27527 0.10283,-0.299 3.78675,-0.20321 6.37596,0.16587 2.25621,0.32145 3.25802,0.22606 5.04948,-0.48138 2.56301,-1.01192 2.53504,-1.01019 15.33167,-0.99835 12.63893,0.012 15.08013,0.12384 23.68609,1.08793 6.63879,0.74384 8.96915,0.8732 13.4037,0.74471 3.42335,-0.099 4.31258,-0.0704 5.1884,0.16411 1.25749,0.33724 2.94347,1.16387 4.42751,2.17044 1.40743,0.95496 4.49513,2.41869 5.94435,2.81829 1.36721,0.37678 1.97765,0.19914 2.27808,-0.66214 0.10551,-0.30275 0.31396,-0.55038 0.46363,-0.55038 0.30012,0 4.83758,1.29075 6.07481,1.72833 3.94892,1.39593 5.96653,6.89552 3.87393,10.5594 -0.86433,1.51363 -1.35307,1.66254 -5.39083,1.64197 -1.81753,-0.0104 -4.25514,-0.12118 -5.41657,-0.24894 z M 26.385305,231.14307 c -1.184213,-0.29779 -1.705762,-0.56201 -2.431428,-1.23074 -0.934379,-0.86126 -1.24599,-1.3963 -1.516625,-2.60389 -0.269026,-1.20055 -0.06357,-2.13057 1.378343,-6.24137 1.80406,-5.1416 3.062232,-8.24634 4.79526,-11.8324 1.867943,-3.8652 2.652582,-5.2472 5.218366,-9.19071 3.715358,-5.71002 6.233458,-10.5315 10.734729,-20.55288 4.261482,-9.48804 7.433431,-16.21833 13.635583,-28.93243 4.31758,-8.8509 6.191141,-12.9325 11.335102,-24.69435 3.822153,-8.7397 13.508209,-30.343249 14.342379,-31.989974 0.244486,-0.482141 0.511826,-0.876813 0.593996,-0.876813 0.21834,0 2.39046,-1.998614 2.60249,-2.394293 0.2859,-0.534232 -0.0767,-0.572292 -0.74675,-0.07842 -0.71427,0.527318 -0.90971,0.562714 -0.90971,0.164336 0,-0.158828 1.19308,-2.616607 2.65127,-5.462402 1.4581,-2.845733 2.93603,-5.958765 3.28423,-6.918301 0.34809,-0.959112 1.26673,-2.859605 2.04147,-4.223032 2.12768,-3.744218 2.80786,-5.237912 3.30479,-7.252731 0.62914,-2.551492 2.46233,-7.407572 3.788,-10.033326 0.59632,-1.181523 3.2169,-5.124443 3.5474,-5.337583 0.28954,-0.186725 0.63429,0.220923 0.77281,0.91414 0.11137,0.556404 0.0814,0.601497 -0.47296,0.712392 -1.07296,0.214457 -3.0464,3.163301 -3.16443,4.727941 -0.0315,0.412151 0.0344,0.746136 0.154,0.788376 0.11432,0.0407 0.4674,-0.387013 0.78451,-0.94938 1.10096,-1.950856 2.2301,-3.59974 2.39525,-3.497793 0.0915,0.05652 0.12734,0.535504 0.0801,1.064233 -0.0474,0.528759 -0.15743,2.613794 -0.2444,4.633805 -0.18599,4.299769 -0.34491,4.902584 -1.70328,6.454732 -0.51358,0.587089 -1.08458,1.399219 -1.26893,1.804797 -0.423,0.931512 -0.44125,2.597466 -0.0414,3.864517 0.39485,1.25275 0.23878,1.808501 -0.6688,2.38133 -0.84745,0.535151 -1.00817,0.994795 -0.83367,2.38988 0.0732,0.588413 0.035,1.443968 -0.0934,2.062196 -0.1979,0.957476 -0.34083,1.17503 -1.52771,2.327097 l -1.30939,1.2707 0.018,1.028971 c 0.0211,1.147296 0.63357,2.76409 1.04685,2.76409 0.46276,0 1.4106,-2.127212 2.05426,-4.611247 0.34538,-1.332955 0.70488,-2.500473 0.79901,-2.594323 0.41876,-0.41893 0.36702,0.363757 -0.16279,2.462779 -0.78253,3.099085 -1.31848,4.558353 -2.27421,6.192215 -2.15541,3.684815 -3.27472,7.28228 -4.06205,13.056111 -0.45874,3.36254 -1.15064,5.85787 -3.25807,11.75118 -0.6681,1.86827 -2.2554,6.40474 -3.52723,10.08113 -3.672448,10.61504 -6.840409,19.27512 -8.402339,22.9693 -0.448406,1.06062 -1.851275,4.15876 -3.117451,6.88558 -9.904222,21.32754 -11.374904,24.79251 -13.247526,31.21412 -1.41824,4.86309 -2.275801,6.96284 -3.994875,9.78042 -1.35015,2.21363 -3.121778,4.29681 -6.594954,7.7547 -3.562016,3.5463 -4.616306,4.8986 -5.776894,7.41078 -0.646092,1.3983 -1.180322,3.29246 -1.185142,4.20269 -0.0083,0.45531 0.06087,0.50492 0.640017,0.50492 0.353314,0 0.642625,0.08 0.642625,0.1787 0,0.24101 -3.935958,6.74094 -5.673296,9.36909 -0.767788,1.16142 -1.932978,2.65842 -2.589306,3.32642 -1.405683,1.43065 -3.49436,2.83926 -5.363287,3.61666 -2.350328,0.97766 -5.461743,1.64431 -6.47988,1.38807 z m 48.93527,-13.33444 c -0.445603,-0.22728 -0.84496,-0.52589 -0.887513,-0.66361 -0.06299,-0.20339 0.176548,-0.22676 1.276069,-0.12445 2.166196,0.20131 2.471639,0.39499 1.454483,0.92106 -0.712195,0.36832 -0.88442,0.35582 -1.843039,-0.133 z m 7.631661,-2.83096 c -0.06514,-0.16822 -0.0531,-0.36894 0.0258,-0.44556 0.139281,-0.13572 10.573904,-2.18613 11.123644,-2.18613 0.37404,0 0.5356,0.50112 0.30212,0.93742 -0.26977,0.50414 -1.62222,1.44967 -2.07315,1.44967 -0.20663,0 -0.68894,-0.21704 -1.07169,-0.48227 -0.59205,-0.41018 -0.7718,-0.45361 -1.20324,-0.28993 -0.27921,0.10583 -1.30146,0.23299 -2.27144,0.28239 -1.41686,0.072 -1.94943,0.18372 -2.70252,0.56533 -1.08665,0.55059 -1.957057,0.61967 -2.12966,0.16908 z m 95.574204,-61.49309 c -0.65013,-0.54709 -0.99033,-1.50952 -0.90406,-2.557 0.0977,-1.18948 0.50437,-0.90499 1.18083,0.82626 0.88101,2.25554 0.81788,2.65184 -0.27677,1.73074 z m -8.00506,-8.40901 c -1.4085,-0.95462 -2.53602,-2.01627 -3.78725,-3.56672 -1.36903,-1.69661 -3.83234,-5.43929 -3.83234,-5.82281 0,-0.67338 2.50627,0.0204 2.92926,0.81162 0.11231,0.21001 0.29054,0.84784 0.39596,1.41753 0.22397,1.2123 0.81276,2.17709 1.82473,2.99027 0.6228,0.5004 0.72565,0.68543 0.72565,1.30332 0,0.65487 0.0875,0.78467 0.96412,1.43752 1.17235,0.87311 1.85204,1.58714 1.76354,1.85288 -0.0375,0.11084 -0.46961,-0.0749 -0.98367,-0.42361 z m -2.75382,-8.77315 c -0.60584,-0.51178 -1.72147,-1.52364 -2.47875,-2.2482 -0.75748,-0.72478 -1.72351,-1.58656 -2.14663,-1.91485 -1.17654,-0.91248 -1.56776,-1.6789 -1.62875,-3.18963 -0.0628,-1.55582 -0.33246,-1.91437 -2.12279,-2.81906 -0.66895,-0.33838 -1.26575,-0.74371 -1.32617,-0.90119 -0.0607,-0.1575 -0.0271,-0.50396 0.0739,-0.76965 0.1685,-0.44306 0.0867,-0.58416 -0.98812,-1.69702 -0.6444,-0.66765 -1.22995,-1.39682 -1.30089,-1.62055 -0.0702,-0.22361 -0.0436,-0.71383 0.0602,-1.08945 0.2334,-0.84477 0.15055,-0.9548 -1.43253,-1.90295 -0.99043,-0.59315 -1.25184,-0.68087 -1.44701,-0.48588 -0.19513,0.19522 -0.13736,0.4748 0.31885,1.54661 0.62252,1.46305 0.66537,1.69629 0.31188,1.69629 -0.35713,0 -1.68671,-2.96727 -2.12044,-4.7326 -0.57411,-2.33632 -1.48089,-3.88806 -3.11946,-5.3372 -3.24106,-2.86705 -3.7595,-3.65358 -8.00852,-12.147688 -3.16577,-6.328519 -3.60565,-7.156288 -5.93396,-11.163893 -0.60416,-1.040373 -1.47946,-2.744467 -1.94468,-3.786902 -0.86186,-1.93063 -3.91082,-9.650581 -6.16951,-15.620658 -2.25477,-5.959854 -3.09993,-7.696301 -5.42545,-11.144791 -1.54641,-2.293701 -2.38951,-4.401101 -2.63373,-6.583913 -0.19672,-1.758677 -0.0179,-3.5206 0.61071,-6.072711 0.54188,-2.194314 0.58376,-3.201174 0.18892,-4.531135 -0.2939,-0.989697 -1.60007,-3.064874 -2.14498,-3.408131 -0.24961,-0.157126 -0.39538,-0.112435 -0.69945,0.21369 -0.21155,0.227096 -0.45159,0.371078 -0.53395,0.320126 -0.0823,-0.05106 -0.24779,-0.899581 -0.36768,-1.886002 -0.11996,-0.986485 -0.4312,-2.685553 -0.69159,-3.775662 -0.42586,-1.782399 -0.453,-2.105052 -0.2708,-3.20474 0.11143,-0.672484 0.46403,-1.753737 0.78364,-2.402921 0.80562,-1.636241 2.77027,-3.66556 4.34784,-4.490868 1.60041,-0.837242 2.56921,-1.084775 4.22158,-1.07801 1.62358,0.0081 2.68634,0.452963 3.59079,1.509766 1.35754,1.585791 3.83943,7.19571 5.15381,11.648801 0.35737,1.211802 1.11523,4.103658 1.68374,6.426544 1.33457,5.452098 2.02386,7.511093 5.37786,16.066043 2.02059,5.15304 3.09317,8.188946 3.95725,11.200538 2.2289,7.766765 5.22992,15.856232 9.57103,25.797492 1.2611,2.888154 2.73816,6.561679 4.77543,11.876685 l 1.52606,3.98143 -0.20625,1.2053 c -0.16288,0.95039 -0.15727,1.25363 0.026,1.43514 0.18724,0.18446 0.28009,0.16663 0.47056,-0.0911 0.1307,-0.17678 0.32359,-0.32144 0.42871,-0.32144 0.10556,0 0.36607,0.59901 0.5796,1.33113 1.2767,4.38102 2.61345,8.01718 4.43808,12.07251 2.83345,6.29931 4.13666,9.3655 4.25277,10.00697 0.13693,0.75511 -0.0958,2.89625 -0.32143,2.96132 -0.10093,0.0296 -0.6794,-0.3657 -1.28546,-0.87754 z M 107.18694,56.687915 c -0.63594,-0.967208 -0.86842,-2.147678 -0.61835,-3.140318 0.14134,-0.56367 0.48961,-1.095458 1.18057,-1.802889 1.13331,-1.160943 1.29305,-1.609482 1.5131,-4.248719 0.15111,-1.809666 0.18538,-1.921623 0.77875,-2.533761 0.70004,-0.722148 0.74347,-1.092085 0.46385,-3.94082 -0.14943,-1.524215 -0.13966,-1.591537 0.30799,-2.111429 0.25434,-0.295534 0.53144,-0.467859 0.61564,-0.382699 0.26532,0.267462 0.12569,5.072004 -0.20082,6.914343 -0.39121,2.208378 -0.59999,3.044678 -1.98365,7.941103 -0.72583,2.568754 -1.21326,3.99388 -1.36655,3.99388 -0.13088,0 -0.44166,-0.309844 -0.69053,-0.688691 z"
     id="path242"
     sodipodi:nodetypes="sssssscssssssccssssssscsssssssssssssssssssssssssssssssssscsscssssssssccsssssssssssssscssssssssssssssssssssssssssssssssssssssssssssssssssssssssssscssssssssssssssssscssssssssssssssssssssss" />
  <path
     style="fill:#1a3902;fill-opacity:1;stroke-width:1.96295"
     d="m 148.57762,215.72309 c -0.71425,-0.40813 -1.73244,-0.75049 -2.26288,-0.76062 -0.53052,-0.0115 -2.42763,-0.71664 -4.21571,-1.57028 -1.78801,-0.85326 -3.54471,-1.90498 -3.90323,-2.33696 -0.35843,-0.43205 -0.93009,-0.78529 -1.26995,-0.78529 -0.34005,0 -1.2315,-0.64288 -1.98089,-1.4282 -0.74937,-0.78552 -1.61708,-2.01244 -1.9281,-2.72653 -0.31119,-0.71424 -1.15077,-2.10283 -1.86608,-3.08561 -0.84303,-1.15902 -1.28608,-2.43711 -1.26022,-3.63549 0.0215,-1.01659 -0.18414,-2.89995 -0.45855,-4.18534 -0.31133,-1.45909 -0.3212,-4.05688 -0.0251,-6.91407 0.26019,-2.51711 0.70876,-5.01708 0.99692,-5.55571 0.4158,-0.77694 0.24943,-1.25322 -0.80674,-2.30935 -0.73177,-0.73198 -1.66816,-2.1389 -2.08106,-3.12681 -0.41276,-0.98783 -0.75027,-2.47619 -0.75027,-3.3073 0,-0.83103 -0.33574,-1.78953 -0.74562,-2.12975 -0.41023,-0.34049 -1.12014,-2.26541 -1.5779,-4.27771 -0.45752,-2.01226 -1.2712,-4.51962 -1.80772,-5.57128 -0.53695,-1.05205 -1.14,-2.83649 -1.34053,-3.96576 -0.2225,-1.25159 -1.17354,-3.0277 -2.43584,-4.54911 -1.13898,-1.37279 -2.83183,-3.75963 -3.76202,-5.30423 -0.93001,-1.54469 -2.22037,-4.45415 -2.8669,-6.46535 -0.84653,-2.63219 -1.10354,-4.40795 -0.9181,-6.33846 0.14814,-1.54281 0.59249,-2.92659 1.04616,-3.25824 0.54056,-0.39528 2.48093,-0.457 6.17023,-0.19649 2.96009,0.209 7.25148,0.85932 9.53639,1.44545 2.28537,0.58606 6.34438,2.11945 9.02041,3.40718 2.67591,1.28803 6.88272,3.65651 9.34838,5.26364 2.46539,1.60704 6.23432,4.34998 8.37531,6.09505 2.14105,1.74523 5.60281,4.79441 7.6931,6.77591 2.09024,1.98141 5.34046,5.42754 7.22286,7.65814 2.69766,3.19663 3.5708,3.9326 4.12226,3.47478 0.38467,-0.31933 0.69677,-0.96116 0.69344,-1.42605 -0.006,-0.46486 -0.77206,-2.59809 -1.70773,-4.74039 -0.93599,-2.1423 -2.7984,-5.58988 -4.13879,-7.66116 -1.3404,-2.0714 -3.38222,-4.79151 -4.53729,-6.04484 -1.15527,-1.25323 -2.85429,-2.57673 -3.77547,-2.94114 -0.92098,-0.36444 -2.08366,-1.01081 -2.5837,-1.43646 -0.49968,-0.42565 -0.9088,-0.97143 -0.9088,-1.21276 0,-0.24136 0.31071,-0.43893 0.69025,-0.43893 0.37925,0 1.81032,0.74208 3.17958,1.6493 1.3697,0.90712 3.76034,3.18565 5.31292,5.06376 1.55241,1.87777 3.94517,5.40081 5.31697,7.82866 1.37172,2.4281 2.93571,5.52876 3.47537,6.89088 0.57635,1.454 1.26927,2.41872 1.67864,2.33695 0.38358,-0.0759 1.79378,-2.59632 3.13402,-5.5999 1.34027,-3.0033 3.33087,-6.93229 4.42331,-8.73108 1.09282,-1.79876 3.22252,-4.5998 4.73304,-6.22488 1.51029,-1.62451 3.4711,-3.37625 4.35724,-3.89226 1.57588,-0.91747 1.6114,-0.9155 1.6114,0.0912 0,0.67382 -0.76198,1.44846 -2.20719,2.2443 -1.35017,0.74315 -3.26671,2.62382 -4.93562,4.84294 -1.50029,1.99514 -3.88105,5.88867 -5.29075,8.65256 -1.40944,2.76358 -2.84788,5.9763 -3.19629,7.13957 -0.54685,1.82499 -0.15413,2.44482 0.22813,3.06728 0,0 0.4406,0.61297 1.13799,0.23386 0.43055,-0.23394 2.12824,-2.4125 4.11711,-5.01694 1.98883,-2.60488 5.72808,-6.92699 8.30955,-9.60477 2.58139,-2.67802 6.32955,-6.19842 8.32886,-7.82318 1.99965,-1.62493 5.15467,-4.02819 7.01143,-5.34097 1.85658,-1.31243 5.47897,-3.44453 8.04971,-4.73801 2.57086,-1.29318 6.42715,-2.83674 8.56936,-3.42993 2.14222,-0.59315 6.05981,-1.33536 8.70544,-1.64942 3.6753,-0.43639 4.98671,-0.42468 5.5575,0.0488 0.41108,0.34109 0.89793,1.62496 1.08228,2.8527 0.18403,1.22796 0.0568,3.60445 -0.28401,5.28098 -0.34024,1.67653 -1.49646,4.81715 -2.56917,6.97889 -1.07271,2.16186 -2.80326,5.19698 -3.84542,6.74467 -1.04241,1.54765 -1.89504,3.45104 -1.89504,4.22996 0,0.77872 -0.47357,2.61712 -1.05221,4.08548 -0.57868,1.46832 -1.19831,4.06627 -1.37687,5.77322 -0.17829,1.7069 -0.60235,3.38174 -0.94217,3.72159 -0.33987,0.33986 -0.78546,1.88077 -0.99023,3.42438 -0.20485,1.54365 -0.62172,3.29206 -0.92673,3.88521 -0.30499,0.59343 -1.01271,1.58242 -1.57281,2.19823 -0.81387,0.89506 -0.90519,1.33079 -0.45435,2.17317 0.31001,0.57944 0.56379,1.85745 0.56379,2.84006 0,0.98268 0.35398,2.78977 0.78637,4.01545 0.43256,1.22592 0.6557,2.94977 0.49646,3.83056 -0.15976,0.88099 -0.34908,3.28874 -0.42056,5.35037 -0.10576,3.03764 -0.34759,3.97981 -1.27541,4.96736 -0.62961,0.67016 -1.14478,1.72138 -1.14478,2.33562 0,0.61441 -0.72533,1.94314 -1.61193,2.95284 -0.88653,1.00969 -1.91868,1.8357 -2.29383,1.8357 -0.37507,0 -1.11037,0.53824 -1.63414,1.196 -0.52366,0.65749 -2.23766,1.73568 -3.80857,2.39537 -1.57088,0.65988 -4.14183,1.75364 -5.71268,2.43093 -2.01407,0.8682 -3.92888,1.25044 -6.49189,1.29594 -2.50427,0.0439 -4.5246,-0.26368 -6.49202,-0.99017 -1.74734,-0.64518 -3.46264,-1.75281 -4.41776,-2.85251 -0.85907,-0.98877 -2.65728,-3.75287 -3.99683,-6.14233 -1.33949,-2.38938 -3.49615,-6.79828 -4.79217,-9.79751 -2.35686,-5.45329 -2.35686,-5.45329 -2.36525,-0.98655 -0.006,2.45677 -0.26873,5.21351 -0.58679,6.12598 -0.31822,0.91256 -0.84411,1.57291 -1.16856,1.46737 -0.32464,-0.10534 -0.87825,-0.78213 -1.23031,-1.50365 -0.35224,-0.72163 -0.79757,-3.35934 -0.99014,-5.86176 -0.3496,-4.54965 -0.3496,-4.54965 -2.07796,0.31163 -0.95072,2.67371 -2.98159,7.43219 -4.51312,10.57425 -1.5317,3.14212 -3.42582,6.47238 -4.20932,7.40082 -0.78348,0.92821 -1.69946,1.68777 -2.03515,1.68777 -0.33574,0 -1.48286,0.46745 -2.5488,1.03863 -1.5008,0.80453 -2.9048,1.03453 -6.22449,1.02042 -2.73301,-0.0117 -4.75702,-0.28749 -5.5848,-0.76068 z m 8.30953,-1.29835 c 0,-0.28558 -0.10308,-0.51937 -0.22903,-0.51937 -0.12596,0 -0.37358,0.23379 -0.54992,0.51937 -0.17663,0.28576 -0.0733,0.5194 0.22907,0.5194 0.3023,0 0.54988,-0.23364 0.54988,-0.5194 z m -3.77616,-0.83309 c -0.17255,-0.17252 -0.62032,-0.19106 -0.99531,-0.0413 -0.41436,0.16588 -0.29125,0.28861 0.31369,0.31368 0.54742,0.0223 0.8543,-0.10026 0.68162,-0.27263 z m -5.05283,-0.72489 c 0,-0.2857 -0.40897,-0.51576 -0.90882,-0.51153 -0.77673,0.007 -0.79558,0.0809 -0.12978,0.51153 0.42842,0.27685 0.83734,0.50696 0.9088,0.51125 0.0707,0.006 0.1298,-0.22569 0.1298,-0.51125 z m 52.97377,0.29028 c 0,-0.12606 -0.23369,-0.37352 -0.51932,-0.55 -0.28554,-0.17653 -0.51923,-0.0733 -0.51923,0.22901 0,0.30244 0.23369,0.54999 0.51923,0.54999 0.28563,0 0.51932,-0.10304 0.51932,-0.229 z m -42.58675,-1.06934 c 0,-0.42843 -0.3368,-0.77912 -0.74842,-0.77912 -0.4115,0 -0.88031,0.21378 -1.0417,0.47506 -0.16153,0.26126 0,0.59316 0.35874,0.73802 0.35869,0.14466 0.82775,0.28138 1.04193,0.30409 0.21419,0.0222 0.38945,-0.3096 0.38945,-0.73805 z m 39.33002,0.46507 c -0.17247,-0.17233 -0.62066,-0.19083 -0.99545,-0.0409 -0.41422,0.1658 -0.29109,0.28898 0.31384,0.3139 0.54734,0.0218 0.85408,-0.10018 0.68161,-0.27288 z m 7.41154,-0.72481 c 0,-0.28563 -0.21993,-0.51938 -0.4887,-0.51938 -0.2687,0 -0.63307,0.23375 -0.80945,0.51938 -0.17666,0.28562 0.0422,0.51939 0.48876,0.51939 0.44513,0 0.80939,-0.23377 0.80939,-0.51939 z m -50.89626,-0.77912 c -0.35559,-0.42841 -1.14389,-0.7715 -1.75149,-0.76235 -1.08344,0.0154 -1.08517,0.0321 -0.0965,0.77898 0.55428,0.41949 1.34254,0.76249 1.75134,0.76249 0.60201,0 0.62035,-0.14816 0.0967,-0.77912 z m -10.90641,-0.25966 c 0,-0.28552 -0.52589,-0.51574 -1.16849,-0.51139 -0.94498,0.008 -1.01953,0.10437 -0.38958,0.51139 0.42855,0.27703 0.95458,0.50704 1.16851,0.51151 0.21426,0.006 0.38956,-0.22564 0.38956,-0.51151 z m 21.46673,-1.03051 c 0.71706,-0.85249 1.76819,-2.79127 2.33613,-4.30822 0.56762,-1.51706 1.30872,-4.1654 1.64704,-5.88478 0.33828,-1.7194 0.5346,-3.68979 0.43648,-4.37831 -0.14572,-1.02079 -0.73597,-0.31679 -3.19495,3.80933 -1.65883,2.78383 -3.46488,6.05018 -4.01336,7.25845 -0.5487,1.20825 -1.00258,2.83978 -1.00876,3.62531 -0.0113,1.16613 0.21806,1.42813 1.24077,1.42813 0.7523,0 1.77291,-0.61862 2.55665,-1.54991 z m 34.65064,0.77087 c -0.0155,-0.2856 -0.30013,-0.51946 -0.63342,-0.51946 -0.33328,0 -0.7107,0.3145 -0.83896,0.69901 -0.14552,0.4367 0.0923,0.63141 0.63341,0.51927 0.47663,-0.0987 0.85385,-0.41311 0.83897,-0.69882 z m 10.87887,-0.0556 c 0,-0.11227 -0.35062,-0.20408 -0.77908,-0.20408 -0.42851,0 -0.77903,0.22624 -0.77903,0.50301 0,0.27651 0.35052,0.36842 0.77903,0.20409 0.42846,-0.16446 0.77908,-0.39066 0.77908,-0.50302 z m -60.76404,-0.1176 c 0,-0.23806 -0.13971,-0.57256 -0.31046,-0.74334 -0.1709,-0.17065 -0.63819,-0.18451 -1.03885,-0.0317 -0.40052,0.15381 -0.72811,0.48823 -0.72811,0.74315 0,0.25528 0.46751,0.46396 1.03877,0.46396 0.57128,0 1.03865,-0.19462 1.03865,-0.43286 z m 45.60934,-1.27997 c 0.0918,-0.79429 -0.31992,-2.44855 -0.91395,-3.67608 -0.5942,-1.22754 -2.74003,-4.54854 -4.76828,-7.38014 -3.68754,-5.14857 -3.68754,-5.14857 -3.33567,-2.66184 0.19361,1.36762 0.77295,3.70475 1.28764,5.19348 0.51456,1.48886 1.45394,3.80529 2.08767,5.14796 0.6336,1.34261 1.75713,3.04628 2.49673,3.78575 0.73954,0.73954 1.71226,1.27491 2.16215,1.18977 0.4569,-0.0868 0.89087,-0.79157 0.98371,-1.5989 z m 9.39829,0.34983 c 0.11901,-0.1073 0.0778,-0.33338 -0.0905,-0.50234 -0.16893,-0.16894 -0.79209,-0.15304 -1.38488,0.0354 -0.5927,0.18799 -1.07777,0.57577 -1.07777,0.86159 0,0.29864 0.49619,0.36677 1.16839,0.15992 0.6427,-0.19738 1.26598,-0.44687 1.38472,-0.55428 z m -46.28272,-0.92062 c 0.95246,-0.49243 3.27866,-3.83445 7.24953,-10.4165 3.21592,-5.33013 6.31264,-11.07274 6.88142,-12.76129 0.56889,-1.6886 1.03437,-3.53495 1.03437,-4.10307 0,-0.81744 -0.47777,-0.52296 -2.29033,1.41186 -1.25964,1.34472 -4.18123,3.84691 -6.4921,5.56076 -3.83726,2.84628 -4.26971,3.35032 -4.98869,5.82116 -0.43293,1.48761 -1.71839,4.63032 -2.85648,6.98373 -1.13801,2.35321 -2.06909,4.79774 -2.06909,5.4323 0,0.63443 0.14173,1.52312 0.31521,1.9751 0.17342,0.45172 0.65248,0.82146 1.06454,0.82146 0.41188,0 1.38035,-0.3264 2.15162,-0.72551 z m 56.71334,-0.41192 c 0,-0.2732 -0.38958,-0.42134 -0.8658,-0.32896 -0.47639,0.0927 -0.95712,0.44174 -1.06861,0.77619 -0.12852,0.38704 0.18638,0.5068 0.86594,0.32892 0.58762,-0.15354 1.06847,-0.50285 1.06847,-0.77615 z m -75.92377,-0.22257 c -0.46217,-0.46223 -1.10047,-0.67964 -1.41822,-0.48339 -0.31769,0.19649 -0.44318,0.57472 -0.27893,0.84054 0.16431,0.26591 0.80265,0.48349 1.41811,0.48349 1.03147,0 1.05358,-0.0663 0.27904,-0.84064 z m 5.67063,0.5268 c -0.17269,-0.17247 -0.62047,-0.19096 -0.99531,-0.0409 -0.41442,0.16564 -0.29113,0.28876 0.31367,0.3137 0.54762,0.0221 0.85434,-0.10037 0.68164,-0.27282 z m 64.02082,-0.20546 c 0,-0.28566 -0.46738,-0.51951 -1.03876,-0.51951 -0.57114,0 -1.03859,0.23385 -1.03859,0.51951 0,0.28563 0.46745,0.5193 1.03859,0.5193 0.57138,0 1.03876,-0.23367 1.03876,-0.5193 z m -7.46792,-1.88224 c 0.26354,-1.05054 -0.31353,-2.62797 -2.51711,-6.88149 -1.57256,-3.03518 -3.13708,-6.37856 -3.4766,-7.42993 -0.506,-1.5665 -1.32807,-2.35452 -4.55342,-4.36473 -2.16484,-1.34905 -5.31542,-3.60124 -7.00148,-5.00424 -2.96712,-2.46927 -3.05446,-2.50392 -2.72399,-1.08861 0.18753,0.80458 1.0006,2.78705 1.80619,4.40558 0.80584,1.61846 3.73506,6.29272 6.50958,10.38703 2.77459,4.09427 5.87363,8.3205 6.88685,9.39165 1.26861,1.34115 2.29167,1.94747 3.28509,1.94747 1.1241,0 1.51832,-0.3009 1.78489,-1.36273 z m -48.22683,-0.30001 c 0.4522,-0.37098 1.92451,-3.01136 3.2717,-5.86778 1.3474,-2.85657 2.597,-5.83614 2.77732,-6.62162 0.23317,-1.01842 0.12458,-1.42821 -0.37882,-1.42821 -0.38828,0 -2.67135,1.1809 -5.07367,2.62452 -2.40201,1.44353 -5.0309,3.25472 -5.84184,4.0249 -0.81107,0.77029 -1.8045,2.03155 -2.20736,2.80278 -0.40298,0.77149 -0.73266,1.84525 -0.73266,2.3865 0,0.54118 0.40898,1.34664 0.90885,1.78987 0.49996,0.44333 1.37635,0.92994 1.94758,1.08176 0.57137,0.15176 1.81901,0.18706 2.77293,0.0781 0.95367,-0.10831 2.10407,-0.50049 2.55597,-0.87142 z m 59.58985,0.1049 c 0.17657,-0.28585 0.088,-0.5194 -0.19819,-0.5194 -0.28568,0 -0.66409,0.23355 -0.84049,0.5194 -0.17649,0.28569 -0.0875,0.51933 0.19842,0.51933 0.28569,0 0.66387,-0.23364 0.84026,-0.51933 z m -77.80244,-1.93772 c -0.13151,-0.50526 -0.24803,-0.2174 -0.25847,0.63924 -0.0119,0.85708 0.0969,1.27045 0.23927,0.91883 0.14238,-0.35167 0.15121,-1.0527 0.018,-1.55807 z m 83.80238,1.15877 c -0.015,-0.28583 -0.29999,-0.51953 -0.63326,-0.51953 -0.33321,0 -0.71075,0.31443 -0.83879,0.69893 -0.14574,0.4368 0.0922,0.63138 0.63327,0.51931 0.47656,-0.0986 0.85404,-0.41319 0.83878,-0.69871 z m -8.97192,-1.06826 c 0.668,-0.46787 1.15424,-1.35417 1.15424,-2.10332 0,-0.71193 -0.35082,-1.97304 -0.77968,-2.8023 -0.42885,-0.82934 -1.81718,-2.22186 -3.08543,-3.09427 -1.2682,-0.87249 -4.23045,-2.51709 -6.58289,-3.65477 -2.35243,-1.1375 -4.36288,-1.98267 -4.46739,-1.87805 -0.10479,0.10457 0.27221,1.40719 0.83718,2.89453 0.56518,1.48739 1.98192,4.31065 3.14827,6.27406 1.1663,1.96305 2.63553,3.93003 3.2651,4.37096 0.62941,0.44087 2.09218,0.80173 3.25036,0.80173 1.15836,0 2.6254,-0.36384 3.26024,-0.80857 z m -72.52889,-1.40732 c -0.51296,-0.50918 -0.5727,-0.44951 -0.29079,0.29066 0.19499,0.51226 0.48537,0.80051 0.64512,0.64059 0.15993,-0.15999 0.005,-0.57913 -0.35433,-0.93125 z m 84.58954,-0.90033 c 0,-0.57109 -0.23361,-1.03858 -0.51933,-1.03858 -0.28562,0 -0.51934,0.46749 -0.51934,1.03858 0,0.57128 0.23372,1.03878 0.51934,1.03878 0.28572,0 0.51933,-0.4675 0.51933,-1.03878 z m -75.88183,-2.80296 c 1.94546,-1.82753 4.29518,-3.71447 5.22097,-4.1932 0.92607,-0.47883 1.60366,-0.94067 1.50569,-1.02615 -0.0975,-0.086 -1.74742,0.0389 -3.66555,0.27554 -1.91792,0.23736 -4.67333,0.9415 -6.12292,1.56516 -1.44972,0.62369 -2.86022,1.55321 -3.13449,2.06551 -0.27427,0.51238 -0.49883,1.33786 -0.49883,1.83382 0,0.49619 0.38706,1.32957 0.85965,1.85186 0.47281,0.52244 1.18326,0.9496 1.57894,0.9496 0.39526,0 2.31088,-1.49493 4.25654,-3.32214 z m 73.18479,0.97139 c -0.16,-0.1598 -0.45031,0.12847 -0.64527,0.6405 -0.28188,0.74034 -0.22219,0.79984 0.29067,0.29081 0.35501,-0.35222 0.51448,-0.77133 0.3546,-0.93131 z m -85.87442,-0.20991 c 0.16438,-0.26598 0.0615,-0.63032 -0.22896,-0.80968 -0.29029,-0.17935 -0.52796,0.0388 -0.52796,0.48334 0,0.44531 0.10306,0.80968 0.22923,0.80968 0.12578,0 0.36351,-0.21761 0.52769,-0.48334 z m 82.56183,-0.85216 c 0.44901,-0.44883 0.81607,-1.13087 0.81607,-1.51547 0,-0.38479 -0.14555,-1.07912 -0.32364,-1.54315 -0.17806,-0.46403 -1.19532,-1.2882 -2.26046,-1.8315 -1.06521,-0.54358 -3.46497,-1.2543 -5.33276,-1.57952 -1.86792,-0.32522 -3.93354,-0.51331 -4.59016,-0.41815 -1.07224,0.15571 -0.96285,0.32596 1.06965,1.66682 1.2451,0.82133 3.51906,2.51564 5.05319,3.76521 1.53403,1.2495 3.23084,2.27203 3.77063,2.27203 0.53979,0 1.34856,-0.36734 1.79748,-0.81627 z m -40.7292,-11.51079 c 0.32288,-1.49536 0.50846,-3.36508 0.41194,-4.15483 -0.15056,-1.23563 -0.44562,-0.86345 -2.11715,2.67198 -1.068,2.25932 -2.29041,5.28149 -2.71655,6.71597 -0.42585,1.43456 -0.75393,3.55914 -0.72885,4.72132 0.0451,2.10345 0.0562,2.0916 2.30469,-2.56133 1.24239,-2.57077 2.52313,-5.89762 2.84592,-7.39311 z m 10.14575,6.537 c -0.45514,-1.77628 -1.98401,-5.34811 -3.3975,-7.93811 -2.20715,-4.04357 -2.57202,-4.4837 -2.58315,-3.11522 -0.01,0.87653 0.35525,2.8631 0.80511,4.41431 0.4502,1.55171 1.91079,4.75115 3.24604,7.10987 1.33532,2.35883 2.50181,3.94439 2.59228,3.52353 0.0904,-0.4208 -0.20779,-2.21841 -0.66278,-3.99438 z m 38.15125,2.67388 c 0,-0.2856 -0.23383,-0.51935 -0.51937,-0.51935 -0.28572,0 -0.51951,0.23375 -0.51951,0.51935 0,0.28561 0.23379,0.51919 0.51951,0.51919 0.28554,0 0.51937,-0.23358 0.51937,-0.51919 z m -90.36705,-0.51935 c 0,-0.28568 -0.23347,-0.51938 -0.5195,-0.51938 -0.28555,0 -0.51926,0.2337 -0.51926,0.51938 0,0.28567 0.23371,0.51935 0.51926,0.51935 0.28603,0 0.5195,-0.23368 0.5195,-0.51935 z m 3.11602,-0.74836 c 0,-0.12609 -0.23372,-0.37359 -0.51936,-0.55006 -0.28561,-0.17645 -0.51932,-0.0732 -0.51932,0.22904 0,0.30254 0.23371,0.55 0.51932,0.55 0.28564,0 0.51936,-0.10311 0.51936,-0.22898 z m 6.9836,-0.62087 c 1.39549,-0.47569 3.47187,-1.7914 4.7124,-2.98636 1.36018,-1.31013 2.43444,-2.92851 2.77749,-4.18455 0.30786,-1.1265 0.5074,-2.09715 0.44383,-2.15727 -0.0641,-0.0602 -2.45281,0.33167 -5.30932,0.8705 -2.8562,0.53874 -5.72737,1.26103 -6.37981,1.60533 -0.65253,0.34421 -1.64566,1.3691 -2.20707,2.27764 -0.56174,0.90872 -1.02112,2.13701 -1.02112,2.72976 0,0.59296 0.51954,1.44167 1.1543,1.88641 0.63496,0.44463 1.64497,0.80839 2.24468,0.80839 0.59951,0 2.2127,-0.38251 3.58462,-0.84985 z m 80.78672,-1.77749 c 0,-0.26891 -0.23385,-0.48876 -0.51929,-0.48876 -0.2857,0 -0.51937,0.3643 -0.51937,0.80959 0,0.44548 0.23367,0.66549 0.51937,0.48873 0.28544,-0.17631 0.51929,-0.54088 0.51929,-0.80956 z m -89.32808,-0.7791 c 0,-0.44529 -0.23396,-0.66522 -0.51967,-0.48873 -0.28561,0.17644 -0.51919,0.54105 -0.51919,0.8096 0,0.2692 0.23358,0.48882 0.51919,0.48882 0.28571,0 0.51967,-0.36435 0.51967,-0.80969 z m 20.94738,-0.54997 c 1.10311,-0.38915 3.88727,-1.81985 6.18744,-3.17944 2.30001,-1.35966 5.19815,-3.4069 6.44033,-4.5494 1.24229,-1.14267 2.61254,-2.95396 3.04541,-4.02496 0.47587,-1.17906 0.57448,-1.94768 0.2497,-1.94768 -0.29511,0 -1.99256,0.59358 -3.7723,1.31903 -2.85091,1.16213 -3.69868,1.27974 -7.13071,0.98636 -3.46812,-0.29632 -4.0467,-0.21295 -5.27913,0.76109 -0.84653,0.66949 -1.9295,2.55443 -2.78951,4.85646 -0.77312,2.06921 -1.84935,4.54338 -2.39181,5.49772 -0.98615,1.73524 -0.98615,1.73524 1.22464,1.36192 1.21585,-0.2056 3.11322,-0.692 4.21594,-1.0811 z m 62.89038,0.54357 c 0.4488,-0.44887 0.81628,-1.41118 0.81628,-2.13854 0,-0.83719 -0.71972,-2.04193 -1.96118,-3.28334 -1.85282,-1.85284 -2.18998,-1.97939 -6.10238,-2.2898 -2.27769,-0.18067 -4.90092,-0.4245 -5.82919,-0.54175 -0.92825,-0.11755 -1.68789,-0.10385 -1.68789,0.0312 0,0.13397 0.32285,1.01629 0.71745,1.96082 0.39475,0.94444 1.50467,2.45818 2.467,3.36403 0.96206,0.90573 2.91788,2.09984 4.34617,2.65357 1.42822,0.55371 3.45644,1.01882 4.50708,1.03378 1.07674,0.0152 2.26669,-0.32919 2.72666,-0.78932 z m 2.11461,0.29675 c 0.17644,-0.28555 0.0732,-0.51924 -0.22924,-0.51924 -0.30235,0 -0.54986,0.23369 -0.54986,0.51924 0,0.28558 0.10309,0.51934 0.22893,0.51934 0.12605,0 0.37371,-0.23376 0.55017,-0.51934 z m -15.22469,-2.98639 c -0.5571,-0.78536 -1.70698,-2.96128 -2.55494,-4.83524 -0.84794,-1.87399 -2.21334,-3.93551 -3.03444,-4.58139 -1.37529,-1.08187 -1.82545,-1.14608 -5.74391,-0.81967 -3.62139,0.3016 -4.76424,0.18374 -7.70637,-0.79559 -1.90026,-0.63241 -3.57414,-1.03039 -3.71977,-0.88493 -0.14573,0.14579 0.0992,0.9691 0.5444,1.82974 0.4452,0.86078 1.80619,2.38051 3.02463,3.37764 1.21838,0.99704 4.01116,2.78038 6.20593,3.96317 2.19495,1.18276 5.23314,2.59731 6.75157,3.14389 1.51861,0.54631 3.77007,1.0018 5.00345,1.01187 2.24249,0.0185 2.24249,0.0185 1.22945,-1.40949 z m -74.00872,-0.22713 c -0.1657,-0.41419 -0.28867,-0.29121 -0.31359,0.3137 -0.022,0.5476 0.10004,0.85436 0.27274,0.68171 0.17279,-0.17247 0.19089,-0.62042 0.0406,-0.99541 z m 3.28104,-0.26603 c 0,-1.04441 -0.15049,-1.25225 -0.5885,-0.81404 -0.32362,0.32356 -0.44776,0.95455 -0.27616,1.40234 0.17192,0.44766 0.43662,0.81387 0.58849,0.81387 0.15169,0 0.27617,-0.63093 0.27617,-1.40217 z m 86.56673,0.26603 c -0.16582,-0.41419 -0.28885,-0.29121 -0.31379,0.3137 -0.0217,0.5476 0.10037,0.85436 0.27279,0.68171 0.17241,-0.17247 0.19095,-0.62042 0.0408,-0.99541 z m 0.1645,-3.01863 c 0,-0.57135 -0.23366,-1.03881 -0.51947,-1.03881 -0.28558,0 -0.51923,0.46746 -0.51923,1.03881 0,0.5713 0.23365,1.03858 0.51923,1.03858 0.28581,0 0.51947,-0.46728 0.51947,-1.03858 z m 2.43216,-0.0971 c -0.16601,-0.41436 -0.28883,-0.29138 -0.31385,0.31375 -0.0219,0.54743 0.10041,0.85417 0.27295,0.68155 0.17247,-0.17236 0.19097,-0.62038 0.0403,-0.9953 z m -89.59411,-0.76213 c 0.52239,-0.47269 0.9496,-1.17391 0.9496,-1.55802 0,-0.38443 -0.3219,-0.69857 -0.71534,-0.69857 -0.39352,0 -0.94147,0.29212 -1.21766,0.64918 -0.27624,0.35699 -0.64817,1.05819 -0.8265,1.55798 -0.18637,0.52364 -0.0727,0.90893 0.26806,0.90893 0.32564,0 1.01955,-0.38676 1.54184,-0.8595 z m 16.51066,-0.76958 c 0.98419,-0.34305 1.99119,-1.34708 2.79682,-2.78869 1.25903,-2.25267 1.25903,-2.25267 -1.32652,-2.60828 -1.42196,-0.19556 -4.05792,-0.198 -5.85751,-0.006 -1.79959,0.19281 -4.04896,0.76724 -4.99906,1.27671 -0.96565,0.51789 -2.02378,1.6534 -2.40027,2.57546 -0.62544,1.53304 -0.58997,1.68464 0.50311,2.15362 0.6466,0.2775 3.10382,0.37592 5.46063,0.21853 2.35667,-0.15721 4.97692,-0.52734 5.8228,-0.82212 z m 65.06827,-1.82043 c 0.49987,-0.14085 0.90882,-0.55924 0.90882,-0.92988 0,-0.37072 -0.47113,-1.27296 -1.04682,-2.0049 -0.57584,-0.73197 -1.89579,-1.61098 -2.93364,-1.95352 -1.19576,-0.39454 -3.76293,-0.53227 -7.0109,-0.37576 -2.8181,0.13549 -5.2471,0.36954 -5.39689,0.51957 -0.15043,0.14994 0.21456,1.0994 0.81062,2.10955 0.59601,1.01028 1.48209,2.01878 1.96856,2.24125 0.48672,0.22254 2.63785,0.55691 4.77996,0.74356 2.14259,0.1866 4.59639,0.24191 5.45332,0.12262 0.85694,-0.11906 1.96704,-0.33185 2.46697,-0.47249 z m 6.63718,-1.19596 c -0.31426,-0.58701 -1.03071,-1.06749 -1.59171,-1.06749 -0.56133,0 -1.02047,0.21691 -1.02047,0.48165 0,0.26503 0.63705,0.98288 1.41572,1.59548 0.77872,0.61242 1.49506,0.87611 1.59187,0.58591 0.0965,-0.29045 -0.081,-1.0083 -0.39541,-1.59555 z m -54.88443,-3.19634 c 1.10009,-0.29494 1.91447,-0.62164 1.80971,-0.72637 -0.10456,-0.10451 -1.82256,0.0187 -3.81772,0.27694 -1.99513,0.25682 -5.14648,0.50978 -7.00312,0.56202 -3.34498,0.0944 -3.35446,0.0983 -1.03883,0.48566 1.28533,0.21495 3.62259,0.28913 5.19365,0.16446 1.57092,-0.12468 3.75628,-0.4679 4.85631,-0.7627 z m 27.86275,-0.44133 c 1.81251,-0.3224 1.05451,-0.413 -3.3759,-0.40278 -4.09323,0.0117 -5.05022,0.11599 -3.37559,0.37628 1.28539,0.19985 2.8044,0.38111 3.37559,0.40285 0.57163,0.0214 2.09038,-0.14764 3.3759,-0.37635 z m -49.18861,-2.88939 c 2.22446,-0.71057 5.28923,-1.29182 6.81039,-1.29182 1.52125,0 4.02454,0.24114 5.56322,0.53555 1.53877,0.29485 4.91158,0.561 7.49532,0.59171 3.25972,0.0394 5.15255,-0.18242 6.18316,-0.72246 1.48548,-0.77838 1.48548,-0.77838 -0.35094,-1.12284 -1.01011,-0.18935 -3.3251,-1.30929 -5.14455,-2.48837 -1.81951,-1.17934 -4.69437,-2.8017 -6.38874,-3.60611 -1.6943,-0.80408 -4.05064,-1.60726 -5.23635,-1.78503 -1.36846,-0.20516 -3.18341,-0.0175 -4.96944,0.51579 -1.54742,0.46158 -4.88581,1.05521 -7.41899,1.31917 -2.95487,0.30785 -4.93898,0.78172 -5.53642,1.32233 -0.51179,0.46337 -1.0689,1.39326 -1.23785,2.0667 -0.16905,0.67306 -0.0575,1.88253 0.24908,2.68736 0.30605,0.80469 0.92698,1.87258 1.37976,2.373 0.49668,0.54881 1.56421,0.90731 2.69051,0.90325 1.02677,-0.005 3.6871,-0.5879 5.91184,-1.29823 z m -13.75059,-1.42764 c 0.12886,-0.66884 -0.17263,-0.9031 -1.16263,-0.9031 -0.76754,0 -1.33627,0.29499 -1.33627,0.6925 0,0.38093 0.16371,0.85635 0.36406,1.05684 0.20037,0.20017 0.72343,0.29482 1.16284,0.21028 0.43885,-0.085 0.87632,-0.55998 0.972,-1.05652 z m 62.65318,-0.39492 c 2.55628,-0.56503 6.06656,-1.0274 7.80072,-1.0274 1.73404,0 4.88896,0.48103 7.01094,1.06908 2.12188,0.58799 4.40309,0.93215 5.06921,0.76523 0.66629,-0.16737 1.67069,-1.05752 2.23194,-1.97803 0.56146,-0.92074 1.02176,-2.18066 1.02271,-2.79999 0.008,-0.61953 -0.14336,-1.50455 -0.32071,-1.96693 -0.17744,-0.46222 -0.9837,-1.18264 -1.79195,-1.60038 -0.80808,-0.41805 -2.67886,-0.75986 -4.15751,-0.75986 -1.47827,0 -4.86917,-0.37179 -7.53522,-0.82633 -3.89825,-0.66457 -5.21292,-0.70564 -6.71496,-0.20972 -1.02747,0.33909 -4.44592,2.34668 -7.59701,4.46154 -3.15111,2.11511 -5.92722,3.84539 -6.16932,3.84539 -0.24236,0 -1.09819,0.25951 -1.90234,0.57638 -1.35839,0.53591 -1.3885,0.60684 -0.42316,1.00229 0.57112,0.23423 2.79119,0.43719 4.93349,0.45101 2.14261,0.0129 5.98693,-0.43703 8.54317,-1.00228 z m -21.0074,-1.59796 c 0,-0.31409 -0.37656,-1.36435 -0.8366,-2.33377 -0.46009,-0.96974 -4.02428,-4.84347 -7.92001,-8.60826 -3.89593,-3.76486 -8.22985,-7.7514 -9.63072,-8.85888 -1.40072,-1.10756 -3.38744,-2.37043 -4.41455,-2.80586 -1.02701,-0.43553 -3.56156,-0.92475 -5.6326,-1.0869 -2.07094,-0.16252 -3.76526,-0.1778 -3.76526,-0.0347 0,0.14364 0.83395,1.86082 1.85339,3.81661 1.23322,2.36597 2.49297,3.97933 3.76537,4.82188 1.05155,0.69635 2.46568,1.75871 3.14255,2.36064 0.67688,0.60219 1.77692,1.95052 2.44455,2.99655 0.9116,1.4282 1.9454,2.17565 4.14956,3.00033 1.61446,0.60391 5.60287,2.49423 8.86328,4.20038 3.25997,1.7062 6.38944,3.10217 6.95428,3.10217 0.56475,0 1.02676,-0.25682 1.02676,-0.57062 z m 12.46423,-2.4594 c 1.57122,-1.09941 5.25213,-3.22634 8.18001,-4.72613 2.92778,-1.50017 5.32336,-3.01 5.32336,-3.35583 0,-0.34568 0.68648,-1.55099 1.52573,-2.67836 0.83901,-1.1275 2.56663,-2.74854 3.83933,-3.60229 1.8731,-1.2567 2.47423,-2.06215 3.15731,-4.22835 0.46387,-1.4718 1.18999,-2.96368 1.61388,-3.31518 0.42347,-0.35164 0.77003,-0.8444 0.77003,-1.0948 0,-0.25098 -1.00933,-0.45606 -2.24281,-0.45606 -1.23349,0 -3.50549,0.3754 -5.04913,0.83355 -1.54333,0.45818 -3.79278,1.51211 -4.99858,2.34146 -1.20594,0.82998 -3.54968,3.06854 -5.2083,4.97508 -1.65859,1.90635 -4.63488,5.23452 -6.61383,7.39596 -1.97947,2.16138 -4.25815,4.96865 -5.06381,6.23864 -0.80581,1.26993 -1.46517,2.83123 -1.46517,3.46941 0,1.06129 0.14431,1.11934 1.68774,0.68126 0.92854,-0.2637 2.97349,-1.37887 4.54424,-2.47836 z m 37.56172,1.78239 c 0.15385,-0.40051 0.13984,-0.86777 -0.0315,-1.03867 -0.17089,-0.17084 -0.72516,-0.31055 -1.23192,-0.31055 -0.50691,0 -1.0659,0.23383 -1.24271,0.51943 -0.17631,0.28556 -0.17631,0.7529 0,1.03862 0.17665,0.28571 0.74979,0.51943 1.27366,0.51943 0.52387,0 1.0782,-0.32778 1.23185,-0.72826 z m -95.20946,-2.61698 c 0,-0.12592 -0.23366,-0.37331 -0.51932,-0.54988 -0.28558,-0.17646 -0.51944,-0.0733 -0.51944,0.22891 0,0.30256 0.23386,0.55002 0.51944,0.55002 0.28566,0 0.51932,-0.10289 0.51932,-0.22905 z m 4.58241,-0.98252 c 0.0948,-0.48747 -0.16118,-0.86584 -0.58571,-0.86584 -0.41426,0 -1.02522,0.32784 -1.35813,0.72857 -0.46426,0.55945 -0.44881,0.79048 0.0672,0.99549 0.36907,0.1469 0.90463,0.20842 1.19015,0.13741 0.28573,-0.0707 0.59498,-0.51926 0.6873,-0.99554 z m 12.04828,-2.11758 c 2.91314,-0.68837 5.5341,-1.48916 5.8244,-1.77956 0.29039,-0.29042 0.37994,-1.07105 0.19884,-1.73449 -0.18085,-0.66379 -1.18303,-1.84937 -2.22685,-2.63498 -1.6429,-1.23639 -2.37841,-1.42811 -5.47915,-1.42811 -1.96984,0 -4.6259,0.26296 -5.90241,0.58434 -1.34017,0.33736 -2.74505,1.12376 -3.3246,1.86051 -0.72417,0.92069 -0.91751,1.73404 -0.69426,2.92124 0.17017,0.90471 0.66396,2.0541 1.09741,2.55415 0.52044,0.59955 1.54029,0.90864 2.99943,0.90864 1.216,0 4.59417,-0.56308 7.50719,-1.25174 z m 76.72513,-0.43603 c -0.11755,-0.35726 -0.72122,-0.72384 -1.3415,-0.81529 -0.62035,-0.0913 -1.12789,0.0445 -1.12789,0.30311 0,0.25792 0.15577,0.62454 0.34617,0.81505 0.19042,0.19034 0.7942,0.34632 1.34163,0.34632 0.56408,0 0.90271,-0.28133 0.78159,-0.64919 z m 3.76262,0.1298 c 0,-0.2858 -0.10288,-0.51952 -0.22886,-0.51952 -0.12601,0 -0.37344,0.23372 -0.55009,0.51952 -0.17645,0.28555 -0.0733,0.51933 0.22913,0.51933 0.3026,0 0.54982,-0.23378 0.54982,-0.51933 z m -99.61997,-1.67076 c -0.37271,-0.37259 -0.61454,-0.40334 -0.61454,-0.0775 0,0.29521 0.1558,0.6925 0.3463,0.88292 0.19044,0.19044 0.46691,0.22557 0.61428,0.0771 0.14792,-0.14754 -0.01,-0.54454 -0.34604,-0.88276 z m 5.51194,0.0271 c 0.0979,-0.51351 -0.279,-1.00537 -0.9284,-1.21139 -0.6091,-0.19348 -1.42974,-0.0678 -1.85364,0.28401 -0.59125,0.49058 -0.62454,0.79498 -0.15035,1.36641 0.3355,0.40443 1.09549,0.66544 1.68903,0.58018 0.59332,-0.0858 1.15304,-0.54376 1.24336,-1.01921 z m 86.54816,-0.54941 c 0.44473,-0.63482 0.80493,-1.9787 0.80054,-2.9864 -0.008,-1.00779 -0.1843,-2.10937 -0.40008,-2.44869 -0.2156,-0.33916 -0.98671,-0.84283 -1.7137,-1.1192 -0.72691,-0.2763 -2.62862,-0.66568 -4.22584,-0.86539 -1.59724,-0.19951 -3.88788,-0.19654 -5.09016,0.005 -1.42025,0.23993 -2.89277,1.00781 -4.20308,2.19164 -1.23343,1.11428 -2.01692,2.28778 -2.01692,3.02006 0,0.89195 0.43057,1.33825 1.68755,1.74849 0.92835,0.30304 2.97344,0.76131 4.54426,1.01827 1.5712,0.2572 4.42098,0.49465 6.33281,0.52818 3.04107,0.053 3.57731,-0.0842 4.28462,-1.09357 z m 6.26164,-2.73385 c 0,-0.58007 -0.4087,-1.11034 -0.9338,-1.21139 -0.5137,-0.0989 -1.27328,0.10183 -1.68784,0.4461 -0.41473,0.34413 -0.75412,0.96244 -0.75412,1.37414 0,0.53139 0.48922,0.70105 1.68795,0.58549 1.28312,-0.12371 1.68781,-0.41008 1.68781,-1.19434 z m 2.85642,0.19126 c 0,-0.28571 -0.23366,-0.37496 -0.5193,-0.19844 -0.28561,0.17647 -0.51939,0.55461 -0.51939,0.84018 0,0.28586 0.23378,0.37493 0.51939,0.19849 0.28564,-0.17656 0.5193,-0.55461 0.5193,-0.84023 z m -98.45944,-1.29258 c 0.45182,-0.1734 0.82164,-0.52407 0.82164,-0.77918 0,-0.25504 -0.58453,-0.46377 -1.2985,-0.46377 -0.71422,0 -1.29857,0.19482 -1.29857,0.43266 0,0.23815 0.15606,0.58875 0.34648,0.77915 0.19044,0.19044 0.40505,0.34623 0.47674,0.34623 0.0713,0 0.50052,-0.14182 0.95221,-0.31509 z m 11.90505,-2.30683 c 1.38271,-0.36058 2.63136,-0.96027 2.7739,-1.33262 0.14272,-0.37212 -0.005,-1.47 -0.32207,-2.43954 -0.31989,-0.9696 -1.10347,-2.25297 -1.74103,-2.85174 -0.63754,-0.59906 -2.09153,-1.22875 -3.23087,-1.39898 -1.46871,-0.21965 -2.59281,-0.0391 -3.86284,0.62311 -1.15816,0.60326 -1.92968,1.46469 -2.18271,2.43699 -0.24712,0.95032 -0.12704,2.13623 0.32646,3.22168 0.5142,1.23008 1.20721,1.85707 2.44235,2.209 0.94858,0.27044 2.07525,0.42313 2.50365,0.33959 0.4284,-0.084 1.91035,-0.44683 3.29316,-0.80749 z m 84.87751,-1.43549 c 0.11355,-0.34065 -0.26527,-0.61672 -0.84601,-0.61672 -0.57817,0 -1.18342,0.2138 -1.34474,0.47505 -0.16159,0.2612 0,0.59224 0.35875,0.73572 0.35892,0.14351 0.87156,0.20714 1.13937,0.14166 0.26773,-0.0659 0.57941,-0.39659 0.69263,-0.73571 z m -96.57919,-1.7504 c 0.11693,-1.01204 -0.15758,-1.56354 -1.00376,-2.01667 -1.0029,-0.53656 -1.29513,-0.46272 -2.10109,0.5327 -0.72433,0.89454 -0.81226,1.38705 -0.38939,2.17763 0.37821,0.70662 0.97623,0.97197 1.9402,0.8607 1.07467,-0.12441 1.42989,-0.47962 1.55404,-1.55436 z m 88.32193,1.07915 c 0.90544,-0.31574 1.87527,-1.00152 2.15492,-1.524 0.27967,-0.52241 0.50834,-1.75744 0.50834,-2.74443 0,-0.98676 -0.43106,-2.32643 -0.95784,-2.97698 -0.73533,-0.90796 -1.49094,-1.18276 -3.25447,-1.18276 -1.26298,0 -2.99152,0.33312 -3.84135,0.74037 -0.84967,0.40727 -1.81538,1.32272 -2.14539,2.03404 -0.33052,0.71158 -0.75281,2.02024 -0.93892,2.90822 -0.33057,1.57894 -0.27768,1.63202 2.41368,2.42498 1.51348,0.446 3.126,0.82959 3.58306,0.8525 0.45722,0.0227 1.57225,-0.2165 2.47797,-0.53194 z m -93.67632,-1.50344 c 0.17655,-0.28568 -0.0426,-0.51946 -0.48866,-0.51946 -0.4453,0 -0.80971,0.23378 -0.80971,0.51946 0,0.28542 0.21983,0.51911 0.48876,0.51911 0.26866,0 0.63307,-0.23369 0.80961,-0.51911 z m 102.46795,-1.66197 c 0.34277,-0.34297 0.62321,-1.13578 0.62321,-1.76214 0,-0.6265 -0.38356,-1.28616 -0.85229,-1.46599 -0.46864,-0.17993 -1.26132,-0.19724 -1.76174,-0.0392 -0.50003,0.15889 -1.02069,0.71515 -1.15702,1.23652 -0.13641,0.52117 -0.0335,1.33126 0.22929,1.80042 0.26237,0.46913 0.88633,0.85283 1.38618,0.85283 0.50001,0 1.1895,-0.28046 1.53237,-0.62323 z m -105.32436,-0.0926 c 0,-0.10788 -0.35053,-0.48703 -0.77902,-0.84265 -0.63813,-0.52956 -0.77917,-0.49398 -0.77917,0.19614 0,0.46338 0.35077,0.84259 0.77917,0.84259 0.42849,0 0.77902,-0.0884 0.77902,-0.19608 z m 3.11607,-2.14109 c 0,-0.42844 -0.34314,-0.77896 -0.76284,-0.77896 -0.46462,0 -0.64585,0.30466 -0.46382,0.77896 0.16458,0.42848 0.50776,0.779 0.76288,0.779 0.25507,0 0.46378,-0.35052 0.46378,-0.779 z m 105.68787,0.25964 c -0.17634,-0.28561 -0.54085,-0.51902 -0.80973,-0.51902 -0.2688,0 -0.48867,0.23341 -0.48867,0.51902 0,0.28567 0.36432,0.51936 0.8096,0.51936 0.44555,0 0.66544,-0.23369 0.4888,-0.51936 z m -100.58025,-1.3485 c 0.74182,-0.5195 1.12431,-1.24666 1.02427,-1.94741 -0.12381,-0.86892 -0.57137,-1.15309 -2.00637,-1.27359 -1.01584,-0.086 -2.47662,0.0847 -3.24603,0.37652 -0.76938,0.29257 -1.39883,0.77154 -1.39883,1.06414 0,0.29264 0.46733,0.99961 1.03875,1.57096 0.57128,0.57107 1.5709,1.03887 2.22153,1.03887 0.65045,0 1.71559,-0.37341 2.36668,-0.82949 z m 103.47571,-0.87159 c -0.0209,-0.20703 -0.20852,-0.39402 -0.41551,-0.41539 -0.20708,-0.0207 -0.47,0.24144 -0.58421,0.58424 -0.11437,0.34254 0.0723,0.52962 0.41539,0.41546 0.34276,-0.11424 0.60588,-0.37718 0.58433,-0.58431 z m -111.95891,-0.88853 c 0,-0.42476 -0.43358,-0.85552 -0.96419,-0.95771 -0.53017,-0.10214 -1.19926,0.0488 -1.48684,0.33716 -0.28776,0.28757 -0.35754,0.79012 -0.15535,1.11708 0.20196,0.32694 0.87108,0.5225 1.48667,0.43485 0.61569,-0.0882 1.11971,-0.50699 1.11971,-0.93138 z m 18.73212,-0.0662 c 0.19662,-0.31752 0.0354,-0.7813 -0.35875,-1.03061 -0.3936,-0.24944 -1.46141,-0.45706 -2.37286,-0.46139 -0.91149,-0.005 -1.78935,0.20595 -1.95074,0.46712 -0.1615,0.26122 0.35062,0.71016 1.13785,0.99772 0.78728,0.28742 1.82655,0.5411 2.30966,0.56367 0.48294,0.0218 1.03881,-0.21887 1.23484,-0.53651 z m 10.09167,-0.17972 c 0,-0.1307 -0.99321,-0.81583 -2.20713,-1.52253 -1.21407,-0.70654 -2.90856,-1.45024 -3.76532,-1.65214 -1.55808,-0.36747 -1.55808,-0.36747 -0.16446,0.75403 0.76667,0.61675 2.16882,1.45813 3.11626,1.86964 0.94731,0.41153 2.0144,0.75718 2.37156,0.76853 0.3571,0.0117 0.64909,-0.087 0.64909,-0.21753 z m 79.97999,-0.54125 c 0,-0.42842 -0.2336,-0.77889 -0.51937,-0.77889 -0.28567,0 -0.51936,0.35047 -0.51936,0.77889 0,0.42859 0.23369,0.77902 0.51936,0.77902 0.28577,0 0.51937,-0.35043 0.51937,-0.77902 z m -2.26801,-1.06034 c 1.08947,-1.08944 1.20686,-1.45713 0.67108,-2.10257 -0.44395,-0.53488 -1.38541,-0.73297 -2.97847,-0.62732 -1.57343,0.10467 -2.51513,0.4605 -2.90199,1.09623 -0.46539,0.76525 -0.34297,1.12973 0.65358,1.94775 0.67409,0.55327 1.67837,1.00587 2.23088,1.00587 0.55242,0 1.59882,-0.59399 2.32492,-1.31996 z m -20.80893,-1.31903 c 0.87577,-0.52944 2.03309,-1.44972 2.57186,-2.0452 0.97529,-1.0775 0.9734,-1.08012 -0.4271,-0.54766 -0.77373,0.29419 -2.04851,0.86672 -2.83282,1.27235 -0.78431,0.40552 -1.89273,1.25972 -2.46334,1.89815 -1.03757,1.16121 -1.03757,1.16121 0.26093,0.77312 0.71415,-0.21347 2.01476,-0.82125 2.89047,-1.35076 z m -89.1029,0.54554 c 0,-0.29452 -0.36055,-0.67401 -0.80149,-0.8432 -0.44057,-0.16914 -0.93137,-0.17748 -1.09049,-0.017 -0.15893,0.15946 -0.13524,0.53873 0.0527,0.84332 0.18821,0.30455 0.67911,0.55392 1.09073,0.55392 0.41155,0 0.74823,-0.24125 0.74823,-0.53575 z m 98.89569,-0.0602 c 0.71857,-0.32736 1.18325,-0.7948 1.03245,-1.03857 -0.15067,-0.24391 -1.04955,-0.44353 -1.99741,-0.44353 -0.94794,0 -1.98384,0.31366 -2.30194,0.69698 -0.31818,0.3834 -0.42474,0.85072 -0.23674,1.03881 0.18804,0.18793 0.75905,0.34162 1.26939,0.34162 0.51024,0 1.51557,-0.26781 2.23425,-0.59531 z m -81.01168,-0.38891 c 0.15806,-0.25584 -0.0809,-0.60641 -0.53104,-0.77909 -0.45017,-0.17269 -1.52909,-0.31407 -2.39775,-0.31407 -1.34458,0 -1.48312,0.11568 -0.93261,0.77909 0.35564,0.4284 1.30522,0.77898 2.11031,0.77898 0.80514,0 1.59315,-0.2091 1.75109,-0.46491 z m 98.86038,-0.63813 c 0.0883,-0.46393 -0.22257,-0.99052 -0.69074,-1.17017 -0.46829,-0.17974 -1.06401,-0.19535 -1.32402,-0.035 -0.25977,0.16059 -0.47233,0.76183 -0.47233,1.33621 0,0.78463 0.28914,1.00294 1.16313,0.87824 0.63971,-0.0916 1.23552,-0.54578 1.32396,-1.00945 z m -106.10866,-0.54448 c 0.73506,-0.33484 1.24854,-0.86062 1.14107,-1.16838 -0.11344,-0.32536 -1.52431,-0.53926 -3.36848,-0.51094 -1.7454,0.0271 -3.53308,0.34796 -3.97278,0.71298 -0.44002,0.36514 -0.79997,0.86878 -0.79997,1.11944 0,0.25068 1.27444,0.45589 2.83206,0.45589 1.55751,0 3.4332,-0.27405 4.1681,-0.60899 z m -9.33977,-0.94806 c 0.75,-0.28526 1.21866,-0.75259 1.04181,-1.03895 -0.17686,-0.28614 -1.009,-0.52028 -1.84903,-0.52028 -0.92646,0 -1.5273,0.27243 -1.5273,0.69249 0,0.38079 0.15564,0.84825 0.34626,1.03869 0.19013,0.19039 0.4088,0.34616 0.48588,0.34616 0.0756,0 0.75245,-0.23317 1.50238,-0.51811 z m 17.40083,-0.26081 c 0,-0.42854 -0.48205,-1.26097 -1.0711,-1.8502 -0.5892,-0.58912 -1.3488,-0.97989 -1.68798,-0.86822 -0.33929,0.11172 -0.69167,0.71202 -0.78308,1.33405 -0.11598,0.78833 0.19878,1.27756 1.03857,1.61445 0.663,0.26564 1.49739,0.49791 1.8543,0.51611 0.35714,0.017 0.64929,-0.31772 0.64929,-0.74619 z m 84.20713,-0.7617 c 1.22587,-1.02138 1.22587,-1.02138 0.0914,-1.03889 -0.62404,-0.0116 -1.74826,0.2164 -2.49809,0.50133 -0.74995,0.28513 -1.21878,0.75245 -1.04197,1.03859 0.17679,0.28627 0.74945,0.52035 1.27214,0.52035 0.52287,0 1.50241,-0.45942 2.17672,-1.02138 z m -79.76205,-0.2935 c -0.55448,-0.41941 -1.34277,-0.76243 -1.75159,-0.76243 -0.60189,0 -0.62035,0.14821 -0.0966,0.77884 0.35517,0.42869 1.14335,0.77174 1.75134,0.76265 1.08317,-0.0159 1.08511,-0.032 0.0967,-0.77906 z m 96.19585,-0.68227 c 0.14868,-0.4469 -0.10087,-0.63391 -0.69294,-0.51937 -0.5091,0.0987 -1.03022,0.49396 -1.15842,0.87828 -0.14871,0.44694 0.10109,0.63445 0.69309,0.51926 0.50905,-0.0986 1.03042,-0.49379 1.15827,-0.87817 z m -109.85937,-0.679 c 0.49975,-0.26194 0.9087,-0.81862 0.9087,-1.23702 0,-0.57456 -0.68877,-0.76071 -2.81392,-0.76071 -1.54769,0 -3.18363,0.14203 -3.6353,0.31514 -0.45176,0.17339 -0.82157,0.64843 -0.82157,1.05557 0,0.40703 0.52592,0.95401 1.16855,1.21572 0.64239,0.26137 1.86963,0.34306 2.72669,0.18137 0.85681,-0.16158 1.9669,-0.50835 2.46685,-0.77007 z m 103.2208,0.58118 c 0.67437,-0.45141 0.64348,-0.62466 -0.2289,-1.29056 -0.58787,-0.44838 -2.10368,-0.76559 -3.63554,-0.76112 -1.44519,0.005 -2.93056,0.2003 -3.30114,0.43536 -0.55207,0.35028 -0.55207,0.52619 0,0.97473 0.37058,0.30116 1.14121,0.66244 1.71245,0.80286 0.57133,0.14047 1.8566,0.279 2.85642,0.30785 0.9998,0.0293 2.16818,-0.18256 2.59671,-0.46912 z m -11.8562,-0.84173 c 0.52246,-0.47265 0.9499,-1.29079 0.9499,-1.8177 0,-0.52704 -0.33368,-0.95829 -0.74151,-0.95829 -0.40753,0 -1.22549,0.61587 -1.81744,1.36847 -0.59206,0.75255 -1.07645,1.5706 -1.07645,1.81779 0,0.24696 0.39054,0.44925 0.86799,0.44925 0.47725,0 1.2952,-0.38685 1.81751,-0.85952 z m -4.96253,-0.79573 c 0.16708,-0.27016 0.18342,-0.61157 0.0368,-0.75841 -0.14704,-0.14724 -0.75457,-0.005 -1.35041,0.31258 -0.59571,0.31877 -1.08317,0.78318 -1.08317,1.03214 0,0.24875 0.47112,0.32912 1.04678,0.17851 0.5757,-0.15048 1.1835,-0.49477 1.35035,-0.765 z m -98.61768,0.30276 c -0.17272,-0.17254 -0.62051,-0.19091 -0.99542,-0.041 -0.41439,0.16604 -0.29127,0.289 0.31379,0.31403 0.54738,0.0218 0.85399,-0.0999 0.68163,-0.27285 z m 16.24035,-0.20565 c 0,-0.28544 -0.3506,-0.51922 -0.77893,-0.51922 -0.42847,0 -0.77905,0.23378 -0.77905,0.51922 0,0.28582 0.35058,0.5195 0.77905,0.5195 0.42833,0 0.77893,-0.23368 0.77893,-0.5195 z m 4.6742,0 c -0.4284,-0.27676 -1.01268,-0.50333 -1.29815,-0.50333 -0.28569,0 -0.1689,0.22657 0.25986,0.50333 0.42806,0.27696 1.0125,0.50354 1.29812,0.50354 0.28548,0 0.16865,-0.22658 -0.25983,-0.50354 z m 100.00305,-0.56454 c 0.19209,-0.31051 0.10595,-0.8075 -0.19089,-1.10454 -0.29701,-0.29701 -1.14125,-0.38899 -1.87641,-0.20464 -0.73505,0.18467 -1.33631,0.68151 -1.33631,1.10465 0,0.50493 0.52465,0.76907 1.52726,0.76907 0.8401,0 1.68447,-0.2539 1.87635,-0.56454 z m -116.2544,-1.18916 c -0.10685,-0.32068 -0.60868,-0.66342 -1.11509,-0.76152 -0.5067,-0.0979 -1.18636,0.0871 -1.5107,0.4111 -0.44014,0.43994 -0.41135,0.69992 0.11269,1.0237 0.38617,0.23883 1.15336,0.31627 1.7048,0.17213 0.55115,-0.14434 0.91502,-0.52462 0.8083,-0.84532 z m 111.49945,-0.98709 c 0.44171,-0.71323 0.39474,-1.03691 -0.2068,-1.42055 -0.42848,-0.27295 -1.67077,-0.50014 -2.76087,-0.50452 -1.08979,-0.005 -2.43352,0.23412 -2.98618,0.52981 -0.55244,0.29563 -1.00458,0.7704 -1.00458,1.05529 0,0.28504 0.5259,0.73482 1.16864,1.00007 0.64262,0.26514 2.07953,0.43286 3.19303,0.37269 1.29164,-0.0692 2.23169,-0.44366 2.59676,-1.03279 z m -13.19051,-0.67112 c 0,-0.1431 -0.46754,-0.0115 -1.03882,0.29624 -0.57123,0.30565 -1.03861,0.67285 -1.03861,0.81551 0,0.143 0.46738,0.0114 1.03861,-0.29623 0.57128,-0.30578 1.03882,-0.67275 1.03882,-0.81552 z m 4.67406,0.29624 c 0,-0.28576 -0.35059,-0.51944 -0.77915,-0.51944 -0.42836,0 -0.779,0.23368 -0.779,0.51944 0,0.28563 0.35064,0.51928 0.779,0.51928 0.42856,0 0.77915,-0.23365 0.77915,-0.51928 z m -99.45555,-1.03874 c -0.17634,-0.28551 -0.89152,-0.51928 -1.58868,-0.51928 -0.69742,0 -1.26778,0.23377 -1.26778,0.51928 0,0.2857 0.71482,0.51932 1.58873,0.51932 0.92678,0 1.45497,-0.21637 1.26773,-0.51932 z m 115.41469,0.20571 c -0.17248,-0.17269 -0.62037,-0.19113 -0.99528,-0.0416 -0.41436,0.16596 -0.29128,0.28908 0.31366,0.314 0.54765,0.0219 0.85439,-0.10007 0.68162,-0.27283 z m -3.59369,-1.63388 c -0.0959,-0.49988 -0.63598,-0.90887 -1.19938,-0.90887 -0.56353,0 -1.10325,0.40899 -1.1995,0.90887 -0.13112,0.6807 0.16985,0.90889 1.1995,0.90889 1.0296,0 1.33058,-0.22819 1.19938,-0.90889 z m -3.27671,-2.20718 c 0.18125,-0.2934 -0.24412,-0.51948 -0.97749,-0.51948 -0.71414,0 -1.44283,0.23363 -1.61935,0.51948 -0.18133,0.29334 0.24409,0.51928 0.97743,0.51928 0.71414,0 1.44261,-0.23378 1.61941,-0.51928 z"
     id="path1"
     sodipodi:nodetypes="scsssssssssssssssssssssssssssssscssssssssssssssssssssscsssssssssscssssssssssssscsssssssssssscsssssssssssssssssscsssscscssssssssssssscssssssssscsssscscsssscsscsscssscssssssssssssssssssssssssssssssssssssssssscssssssssscsssssssssssssssssssssssssssssssssssssssssscssscsssssssssssssssssssssssssssssssssssssssssssssssssssssssssscssssssssssssssssssssssssssssssssssssssssssssssssssssssscssssscssssssscsssssssssccssssssssssssssssssssscssssssssscsccssscccssssccssssssssssssssscssssscssssssscsssscssssscsssssssssssssssssssssscsssssscsssssssssssssssssssssssssssssssssssscssssssscsssssssssssssssssssssssssssssssssssscccsscsssssccssssssscsssssssssssscsssssssssssscsssssscsssssssssscssssssssssccssssssssssssssssssssssssssssssssssssssssscssssssssscssssssssssssssssssssssscsssssssssssssssssccsssccsscsssssssssssssssscsscsssssssscsssssscsssssccccscsssccssssssscscscccscsssssssssssssssssssssscscsssscssscsscscsssssssssssscssscsssccscsc"
     inkscape:export-filename="..\..\..\path1.svg"
     inkscape:export-xdpi="96"
     inkscape:export-ydpi="96" />
</svg>
