<?xml version="1.0" encoding="UTF-8" standalone="no"?>
<!-- Created with Inkscape (http://www.inkscape.org/) -->

<svg
   version="1.1"
   id="svg6"
   width="567.35999"
   height="567.35999"
   viewBox="0 0 567.35999 567.35999"
   sodipodi:docname="Completelogo.svg"
   inkscape:export-filename="logonuevo2-01.png"
   inkscape:export-xdpi="96"
   inkscape:export-ydpi="96"
   inkscape:version="1.3.2 (091e20e, 2023-11-25, custom)"
   xmlns:inkscape="http://www.inkscape.org/namespaces/inkscape"
   xmlns:sodipodi="http://sodipodi.sourceforge.net/DTD/sodipodi-0.dtd"
   xmlns="http://www.w3.org/2000/svg"
   xmlns:svg="http://www.w3.org/2000/svg">
  <defs
     id="defs10" />
  <sodipodi:namedview
     id="namedview8"
     pagecolor="#505050"
     bordercolor="#eeeeee"
     borderopacity="1"
     inkscape:showpageshadow="0"
     inkscape:pageopacity="0"
     inkscape:pagecheckerboard="0"
     inkscape:deskcolor="#505050"
     showgrid="false"
     inkscape:zoom="0.4353497"
     inkscape:cx="295.16501"
     inkscape:cy="360.62963"
     inkscape:window-width="1024"
     inkscape:window-height="697"
     inkscape:window-x="-8"
     inkscape:window-y="-8"
     inkscape:window-maximized="1"
     inkscape:current-layer="g12" />
  <g
     inkscape:groupmode="layer"
     inkscape:label="Image"
     id="g12">
    <path
       style="fill:#6a0a0b;stroke-width:0.44447;fill-opacity:1"
       d="m 405.60224,545.54098 c -6.16256,-0.67822 -11.39423,-1.63404 -18.22324,-3.32932 -8.42892,-2.09253 -13.51903,-2.98934 -34.22416,-6.03001 -35.3988,-5.1985 -40.30804,-5.79751 -70.89287,-8.64971 -36.33877,-3.38886 -50.76708,-4.99943 -52.37928,-5.84701 -0.52637,-0.27668 -1.55708,-1.00453 -2.29046,-1.61746 l -1.33341,-1.11434 -0.13929,1.40263 c -0.0819,0.82423 -0.39061,1.40259 -0.74876,1.40259 -0.33522,0 -2.07264,-0.30831 -3.86094,-0.68515 -9.66726,-2.03711 -17.7787,-2.87597 -36.15663,-3.73919 -7.5281,-0.35361 -9.45223,-0.59146 -12.45325,-1.5395 -4.03234,-1.27381 -5.55149,-2.1768 -4.85451,-2.88555 0.77706,-0.79013 16.91948,-6.70761 18.26971,-6.69725 0.70116,0.006 2.1467,0.40534 3.21235,0.88894 2.53113,1.1485 4.31897,1.10327 6.53738,-0.16554 2.82355,-1.61482 9.87824,-2.23439 16.49261,-1.44839 3.08996,0.36718 3.22492,0.34252 4.36641,-0.79896 1.89309,-1.8931 1.33677,-2.24934 -3.73365,-2.39084 -3.33174,-0.093 -4.50172,-0.27163 -4.36591,-0.66671 0.24877,-0.72351 9.16678,-0.49133 15.43437,0.40185 5.46143,0.77829 7.88643,0.54713 12.22291,-1.16511 6.20455,-2.44982 6.13658,-2.44536 37.1132,-2.41671 30.59504,0.0285 36.50416,0.29972 57.33656,2.63348 16.07046,1.80033 21.71136,2.11372 32.44626,1.80281 8.28687,-0.24005 10.43904,-0.17205 12.55934,0.39684 3.04376,0.81662 7.12511,2.81761 10.71745,5.25446 3.40739,2.31138 10.88146,5.85455 14.38992,6.82175 3.30893,0.9122 4.78685,0.48257 5.51387,-1.60287 0.25543,-0.73272 0.76045,-1.33222 1.12224,-1.33222 0.72661,0 11.71062,3.12494 14.7054,4.18367 9.55912,3.37934 14.44318,16.69187 9.37778,25.56103 -2.09265,3.66417 -3.27556,4.02446 -13.04954,3.9749 -4.40025,-0.0222 -10.30058,-0.29372 -13.11186,-0.60311 z M 9.8021775,532.14685 c -2.8666339,-0.7211 -4.12958,-1.36039 -5.8859574,-2.97937 -2.2617522,-2.08483 -3.01625259,-3.3802 -3.67127618,-6.30307 -0.65125839,-2.90602 -0.15393852,-5.15762 3.33706358,-15.10845 4.3663565,-12.44595 7.4121125,-19.96187 11.6070845,-28.6425 4.521588,-9.35649 6.42107,-12.70179 12.632229,-22.24765 8.993724,-13.82238 15.089542,-25.49357 25.985288,-49.75227 10.315755,-22.96739 17.993982,-39.25924 33.00765,-70.03643 10.451386,-21.42482 14.986701,-31.3053 27.438621,-59.77697 9.25245,-21.15601 32.69888,-73.45135 34.71881,-77.43747 0.59157,-1.16742 1.23813,-2.12257 1.43681,-2.12257 0.52873,0 5.78766,-4.83791 6.30042,-5.79601 0.69199,-1.293 -0.1869,-1.38518 -1.80746,-0.18956 -1.72993,1.27628 -2.20234,1.3616 -2.20234,0.39772 0,-0.38429 2.88798,-6.33463 6.41775,-13.22297 3.52977,-6.88836 7.10729,-14.42438 7.95006,-16.74674 0.84277,-2.32235 3.06654,-6.92261 4.9417,-10.2228 5.14998,-9.06369 6.79758,-12.67943 8.00005,-17.55654 1.52278,-6.17631 5.96069,-17.93149 9.1693,-24.2877 1.44376,-2.86009 7.78722,-12.404465 8.58735,-12.920547 0.70084,-0.452046 1.53548,0.534838 1.87095,2.212215 0.26947,1.347392 0.19687,1.456752 -1.14526,1.725192 -2.59723,0.51943 -7.37436,7.65758 -7.65946,11.445 -0.0751,0.99767 0.0826,1.80613 0.37198,1.90826 0.27626,0.0976 1.13095,-0.9367 1.89932,-2.29819 2.66511,-4.72232 5.39858,-8.71375 5.79831,-8.46671 0.22097,0.13654 0.3084,1.29567 0.19428,2.57578 -0.11418,1.2801 -0.3803,6.3277 -0.59152,11.21686 -0.44971,10.40867 -0.8347,11.86775 -4.12273,15.62517 -1.2434,1.4209 -2.62565,3.38679 -3.07168,4.36865 -1.02433,2.25485 -1.06787,6.28766 -0.10094,9.35496 0.95591,3.03246 0.57824,4.37761 -1.61844,5.76431 -2.05224,1.2955 -2.44042,2.40799 -2.01853,5.78474 0.17803,1.42486 0.0848,3.49596 -0.22471,4.99223 -0.47951,2.31799 -0.82538,2.84475 -3.69868,5.6332 l -3.1697,3.0761 0.046,2.49086 c 0.0514,2.77729 1.53349,6.69115 2.53384,6.69115 1.12042,0 3.41455,-5.14961 4.97276,-11.16242 0.83618,-3.22661 1.70646,-6.0527 1.93395,-6.28018 1.01401,-1.01402 0.88881,0.88049 -0.39397,5.96161 -1.89394,7.50195 -3.19124,11.03443 -5.50487,14.98967 -5.21753,8.91955 -7.92697,17.62773 -9.83339,31.60441 -1.11026,8.13983 -2.78488,14.18009 -7.88647,28.44605 -1.61724,4.52247 -5.45946,15.50382 -8.53823,24.40297 -8.88979,25.69584 -16.55842,46.65934 -20.33949,55.60153 -1.08534,2.5668 -4.48118,10.06723 -7.5463,16.6676 -23.97513,51.62767 -27.53476,60.015 -32.06808,75.55982 -3.432987,11.77182 -5.509083,16.855 -9.669588,23.67533 -3.268705,5.35844 -7.557539,10.40117 -15.965051,18.7715 -8.622541,8.5844 -11.174403,11.858 -13.984004,17.93901 -1.563979,3.38504 -2.856905,7.97023 -2.868754,10.17368 -0.0058,1.10184 0.146736,1.2223 1.549071,1.2223 0.855613,0 1.555653,0.19455 1.555653,0.43238 0,0.58337 -9.52769,16.31807 -13.733231,22.68003 -1.858357,2.81127 -4.678924,6.43462 -6.267903,8.05188 -3.402534,3.4631 -8.458712,6.87262 -12.982772,8.75466 -5.689363,2.3668 -13.220899,3.98028 -15.6855105,3.36029 z M 128.25856,499.86824 c -1.07853,-0.55005 -2.04521,-1.2728 -2.14816,-1.60619 -0.1521,-0.49243 0.42727,-0.54896 3.08908,-0.30145 5.24282,0.4875 5.98296,0.95624 3.52058,2.22956 -1.72437,0.89173 -2.14061,0.86169 -4.4615,-0.32192 z m 298.46461,-6.38858 c -0.4674,-0.4674 -0.67488,-1.2912 -0.58777,-2.33387 0.12196,-1.4588 0.36252,-1.72633 2.53984,-2.82363 4.64538,-2.3412 4.99491,-3.05831 6.88323,-14.12205 2.17932,-12.76839 2.16902,-12.8896 -1.09565,-12.8896 -2.81052,0 -2.83128,-0.69573 -0.0729,-2.44458 2.63922,-1.67335 2.97168,-3.00666 1.02597,-4.11405 -1.46212,-0.83214 -1.75503,-1.64245 -0.73529,-2.03382 0.34776,-0.13348 0.69778,-0.70483 0.77782,-1.26986 0.094,-0.6626 0.71463,-1.30548 1.74887,-1.81129 1.55625,-0.76111 1.7781,-0.75178 7.57085,0.3181 7.50648,1.3864 11.27314,2.54065 15.49395,4.74797 3.83488,2.00552 9.63054,7.04991 10.51148,9.14896 0.9153,2.18092 0.72413,4.37232 -0.62204,7.12974 -1.45434,2.97902 -4.38144,5.99962 -7.77399,8.0223 -2.68579,1.60134 -10.27014,4.75566 -19.00529,7.90432 -3.05573,1.10144 -7.35598,3.07017 -9.5561,4.37491 -4.70243,2.78873 -6.08354,3.21584 -7.10289,2.19645 z m 14.99191,-8.37293 c 2.37214,-0.6017 4.76765,-1.38616 5.32346,-1.74324 0.55581,-0.35706 2.91065,-1.39183 5.233,-2.29952 11.14134,-4.35449 15.55066,-7.72395 15.5548,-11.88622 0,-2.16726 -0.8393,-3.76313 -3.02551,-5.73824 -2.51262,-2.26998 -5.26185,-3.77306 -9.96381,-5.44738 -5.91389,-2.10589 -9.02121,-2.74393 -9.88234,-2.02926 -0.86116,0.71471 -1.82391,3.94215 -2.71388,9.09781 -1.13916,6.59971 -3.23583,14.50486 -4.64754,17.52315 -0.72742,1.55529 -1.32262,3.00539 -1.32262,3.22243 0,0.59072 0.72555,0.49753 5.44444,-0.69953 z m -294.98333,7.90904 c -0.15639,-0.40759 -0.12778,-0.89326 0.0636,-1.07931 0.33709,-0.3278 25.59584,-5.29118 26.92672,-5.29118 0.9054,0 1.2964,1.21271 0.73137,2.26847 -0.65314,1.22041 -3.92646,3.50961 -5.01838,3.50961 -0.50021,0 -1.66761,-0.5254 -2.59424,-1.16752 -1.43296,-0.99308 -1.8683,-1.09794 -2.91294,-0.70182 -0.67549,0.25614 -3.14998,0.56381 -5.49881,0.68368 -3.42903,0.17504 -4.71813,0.44473 -6.54117,1.36852 -2.63027,1.33288 -4.73758,1.50022 -5.15612,0.40954 z m 327.59024,-3.94018 c -0.9273,-0.92735 -1.33399,-3.40473 -0.96988,-5.90871 0.16614,-1.14257 0.36326,-2.82818 0.43802,-3.74569 0.0773,-0.94922 0.83325,-2.79808 1.7538,-4.2895 0.88987,-1.44163 1.61791,-3.13441 1.61791,-3.76168 0,-2.06981 3.78017,-5.08016 8.44679,-6.72666 1.3555,-0.47823 2.08878,-0.47665 4.17859,0.009 1.39399,0.32404 2.82381,0.8292 3.17728,1.12259 0.45363,0.37646 0.6427,1.49146 0.6427,3.78989 0,3.15228 -0.0463,3.29162 -1.44452,4.35518 -1.8497,1.40692 -5.25704,2.74376 -8.54039,3.35074 -1.42017,0.2625 -2.85576,0.70433 -3.19013,0.98188 -0.64355,0.53411 -0.6448,4.58006 0,5.62061 0.78612,1.27194 6.64615,0.36668 12.16788,-1.87969 2.87452,-1.16944 5.6353,-1.46681 6.13355,-0.66067 0.49674,0.80377 -2.69815,3.34847 -5.18647,4.13085 -1.31052,0.41213 -4.58289,1.13616 -7.27193,1.60903 -2.68904,0.47286 -5.94136,1.27013 -7.22738,1.7717 -2.79389,1.08962 -3.81546,1.13958 -4.7241,0.23096 z m 10.25578,-14.90374 c 3.24555,-1.22624 5.00691,-4.95933 2.62233,-5.55787 -1.29812,-0.3258 -4.02841,0.88255 -4.94224,2.18725 -0.67159,0.9588 -0.87827,3.0238 -0.35499,3.54705 0.42144,0.42147 1.23437,0.36782 2.6749,-0.17643 z m 19.69671,14.80618 c -2.48699,-1.24238 -3.20645,-3.14967 -2.97577,-7.88863 0.1071,-2.20013 0.50625,-5.00029 0.88698,-6.22257 0.38078,-1.22229 0.79907,-2.72777 0.92965,-3.34543 0.93272,-4.4135 10.43832,-9.31977 15.44457,-7.97175 2.02588,0.54555 2.24376,1.55431 0.6575,3.04448 -1.09469,1.02842 -4.55021,2.27235 -6.31231,2.27235 -1.54747,0 -3.58541,2.00962 -4.36847,4.30776 -0.88619,2.60085 -0.92401,7.7607 -0.0691,9.41413 1.46916,2.841 2.47051,2.9486 9.10363,0.97805 4.80396,-1.42715 6.90022,-1.68325 7.38308,-0.90191 0.49132,0.79502 -0.78213,1.85628 -4.01227,3.34374 -3.32285,1.53017 -11.45291,3.74874 -13.73317,3.74759 -0.75835,-3.6e-4 -2.07883,-0.35038 -2.93443,-0.77782 z m 26.73053,-1.33272 c -0.22735,-0.4278 -0.87512,-2.83002 -1.43952,-5.3383 -1.01809,-4.52487 -1.01965,-4.57941 -0.20257,-6.98318 0.79826,-2.34849 3.42543,-6.74438 4.9977,-8.36225 1.22847,-1.26417 6.6453,-2.72415 9.91611,-2.67269 3.72497,0.0586 7.18436,0.55146 7.88933,1.12398 1.07624,0.87401 0.57207,3.04403 -1.50657,6.48489 -1.1342,1.87744 -3.06311,4.67814 -4.28646,6.22383 -4.06748,5.13899 -11.0481,10.28431 -13.97021,10.2972 -0.54146,0.005 -1.17046,-0.34567 -1.39781,-0.77348 z m 9.09059,-6.86372 c 1.11189,-1.02485 2.55304,-2.77026 3.20259,-3.87866 0.96658,-1.64933 1.19148,-2.6116 1.23874,-5.29981 l 0.0578,-3.28458 -2.04794,0.27643 c -2.97226,0.40117 -5.79366,1.99245 -6.77359,3.82033 -0.60821,1.13448 -0.83027,2.47974 -0.83027,5.02948 0,1.91447 0.20704,3.86769 0.46013,4.34052 0.75582,1.4123 2.46915,1.04584 4.69261,-1.00371 z M 309.60179,443.19677 c -0.94884,-0.94881 -1.85005,-2.31167 -2.00271,-3.02858 -0.52666,-2.47341 -0.67043,-2.60578 -4.89152,-4.50407 -1.2017,-0.54043 -1.82434,-1.12699 -1.92126,-1.81 -0.24089,-1.69749 1.1646,-5.05212 3.48728,-8.32341 3.02416,-4.25926 4.25298,-6.6906 5.31078,-10.50783 1.15983,-4.18535 1.16334,-6.22943 0.0126,-7.27095 -0.48892,-0.44246 -0.88894,-1.12874 -0.88894,-1.52506 0,-0.39633 0.69808,-3.51554 1.55125,-6.9315 1.83317,-7.33975 2.63936,-14.15978 2.04801,-17.32512 -0.5255,-2.81291 -2.27144,-4.47753 -5.14871,-4.90903 -2.23472,-0.33513 -3.33972,-1.13653 -3.33972,-2.42227 0,-0.96 1.13072,-2.22235 1.99067,-2.22235 0.79099,0 4.13158,-3.75852 7.15951,-8.05516 1.34912,-1.91442 3.47741,-4.60168 4.72949,-5.97167 3.75631,-4.10997 10.48036,-8.19664 13.48647,-8.19664 1.31174,0 5.17653,0.97744 9.9693,2.52125 0.50824,0.16374 0.37202,0.44425 -0.57332,1.18024 -5.0934,3.96561 -6.25458,5.73344 -9.05996,13.79305 -1.9783,5.68357 -2.33137,6.33791 -4.58976,8.50692 -2.50047,2.40152 -3.11128,3.72128 -3.11128,6.72266 0,1.84001 -0.60369,4.39908 -2.18085,9.24478 -1.19947,3.68528 -2.31343,7.90102 -2.47546,9.36835 -0.32518,2.94497 0.23528,5.11037 1.32265,5.11037 0.83525,0 22.60652,-21.69606 27.52877,-27.43367 1.93405,-2.25449 4.3318,-4.75049 5.32825,-5.54671 0.99645,-0.79623 3.52834,-3.0981 5.62635,-5.11526 2.09804,-2.01719 4.57355,-3.98468 5.50117,-4.37229 2.41516,-1.00909 4.63426,-0.49372 7.74995,1.79993 1.93193,1.42219 2.92035,2.55622 3.80625,4.36704 1.07203,2.1911 1.1786,2.83192 1.02299,6.15047 -0.0956,2.03755 -0.65193,5.42693 -1.23638,7.53206 -1.01876,3.66936 -1.03094,3.87596 -0.29424,5.0003 0.93463,1.42642 2.40761,1.52106 4.01353,0.25787 0.63967,-0.50317 2.48871,-2.45329 4.10898,-4.33357 5.70347,-6.61887 17.31275,-16.2743 23.0984,-19.21096 2.38562,-1.21086 3.17744,-1.40261 5.0494,-1.22272 3.96704,0.38116 6.40907,3.09034 8.76894,9.72833 1.63912,4.61042 1.76007,8.3862 0.60374,18.84287 -1.08973,9.85429 -0.99146,13.92576 0.44868,18.58838 1.48048,4.79325 3.30075,6.15999 6.11981,4.5951 0.55895,-0.31028 4.15917,-3.55932 8.00044,-7.22009 8.3078,-7.91734 11.23149,-10.40751 12.21933,-10.40751 0.90626,0 2.98758,2.97477 2.98758,4.27005 0,2.06376 -0.60253,3.81751 -1.41479,4.11797 -0.46425,0.17175 -1.59383,1.30487 -2.51014,2.51806 -0.91628,1.21317 -3.5582,3.66736 -5.87091,5.45377 -7.56486,5.8433 -8.37375,6.64423 -9.89095,9.79379 -1.22989,2.55303 -1.65397,3.03368 -3.09027,3.50257 -1.44142,0.47054 -2.21666,0.40259 -5.7781,-0.50649 -2.26236,-0.57747 -5.0778,-1.18643 -6.25663,-1.35331 -2.29732,-0.32517 -3.85705,-1.48658 -3.85705,-2.87204 0,-0.47017 0.50002,-1.44907 1.11116,-2.17536 1.34252,-1.59552 1.36795,-1.93328 0.22353,-2.96897 -1.43038,-1.29448 -6.1511,-9.70238 -6.64126,-11.8285 -0.24739,-1.07317 -0.4547,-3.38368 -0.4607,-5.13451 -0.0148,-4.35411 -0.93529,-8.76173 -3.09673,-14.82909 -1.7978,-5.04656 -3.24163,-7.99561 -3.90797,-7.98228 -0.64035,0.0124 -1.28233,0.66474 -4.15685,4.22099 -3.74915,4.63833 -7.52324,9.97956 -11.14544,15.77335 -3.6318,5.80919 -4.35952,7.24305 -7.32894,14.44072 -1.31211,3.18044 -3.31062,7.14099 -4.44114,8.80121 -2.33831,3.43388 -5.72525,6.10309 -9.20033,7.25067 -1.26035,0.41619 -2.74011,1.04805 -3.28837,1.40416 -1.28693,0.83591 -2.48233,0.48993 -5.1731,-1.49733 l -2.16962,-1.60236 0.26974,-2.58099 c 0.36901,-3.53042 2.06109,-7.82091 5.16803,-13.10425 1.43759,-2.44458 2.94638,-5.64476 3.35284,-7.11151 0.40648,-1.46674 1.33507,-4.56226 2.06355,-6.87888 1.52911,-4.86275 1.43955,-6.33458 -0.55443,-9.11113 -0.83872,-1.16789 -1.544,-2.9871 -1.9898,-5.13246 -0.37985,-1.82784 -0.86392,-3.49874 -1.07575,-3.71304 -1.40932,-1.42582 -6.07004,2.36165 -11.56204,9.39575 -2.32234,2.97445 -5.14455,6.36512 -6.27151,7.53487 -1.12699,1.16973 -4.03627,4.62694 -6.46502,7.68266 -2.42879,3.05573 -5.46693,6.85595 -6.75143,8.44493 -2.85796,3.53544 -5.14935,7.44868 -7.31532,12.49301 -0.90351,2.10422 -1.64276,3.92933 -1.64276,4.05578 0,0.1264 0.60004,0.34992 1.3334,0.4966 1.80531,0.36104 1.72361,1.33235 -0.38303,4.55359 -2.14371,3.27792 -7.31166,9.31897 -8.52984,9.97092 -0.78408,0.41962 -1.15713,0.24477 -2.63838,-1.23647 z m 153.05167,-7.56424 c -1.93117,-1.55768 -2.55636,-3.58412 -2.7449,-8.89732 -0.24571,-6.92295 0.46731,-11.11915 3.3336,-19.61868 2.32343,-6.88978 2.44606,-7.47052 2.16968,-10.2749 l -0.29287,-2.97239 2.25524,-1.88819 c 1.24039,-1.03851 2.44379,-2.24051 2.6743,-2.67113 0.23045,-0.43064 1.33954,-3.75776 2.46462,-7.3936 4.50852,-14.56955 9.72913,-22.08121 19.25735,-27.70851 5.19358,-3.06723 10.00763,-4.33811 20.28221,-5.35439 2.68904,-0.26597 7.07524,-0.83329 9.74709,-1.26073 5.50951,-0.88143 9.25327,-0.64894 12.47097,0.7744 1.38834,0.61412 2.05785,1.213 2.26101,2.02256 0.41278,1.64458 -0.53536,2.80754 -3.7939,4.65346 -4.24122,2.40254 -4.69368,3.22266 -4.63853,8.4074 0.0252,2.36454 0.37984,6.09927 0.78813,8.2994 0.40834,2.20013 1.037,7.82906 1.39706,12.5088 0.50878,6.61308 0.98814,9.8326 2.15172,14.45211 2.30711,9.15953 4.33451,12.37944 7.78911,12.37047 2.46338,-0.006 5.40097,-1.99247 12.48919,-8.44395 3.54078,-3.22262 7.29241,-6.36022 8.33695,-6.97239 2.35458,-1.37985 4.86259,-1.53883 5.72255,-0.36273 1.0998,1.50404 0.54172,5.56044 -0.76498,5.56044 -0.94062,0 -4.35655,2.72207 -10.66797,8.50106 -11.47412,10.50615 -12.28896,11.12556 -20.31537,15.44283 -4.14908,2.23173 -7.84191,4.05769 -8.20628,4.05769 -1.50813,0 -5.97741,-6.1274 -8.57267,-11.75323 -2.37275,-5.14345 -3.37511,-8.66637 -3.77995,-13.28493 -0.63648,-7.26241 -1.72191,-12.31217 -2.89953,-13.48979 -2.0146,-2.0146 -3.40997,-1.32056 -6.41858,3.19263 -0.8148,1.22228 -2.75976,3.72242 -4.32216,5.55586 -1.56236,1.83344 -4.409,5.64513 -6.32592,8.47044 -3.32289,4.89765 -4.44033,6.12438 -8.93174,9.80536 -1.23514,1.01227 -3.1116,3.48272 -5.06406,6.66704 -3.57479,5.83019 -6.98075,9.48538 -10.43063,11.19383 -2.85692,1.41478 -5.96306,1.58685 -7.42074,0.41108 z m 15.71866,-19.99126 c 0.47536,-0.4278 7.73622,-11.14294 16.13523,-23.81146 15.08805,-22.75777 15.27321,-23.06464 15.45838,-25.62492 0.16962,-2.34486 0.0876,-2.65401 -0.86288,-3.25131 -0.57774,-0.36299 -1.85043,-0.79711 -2.82827,-0.96472 -0.97782,-0.16756 -2.43932,-0.69007 -3.24782,-1.16103 -1.81753,-1.05886 -2.91737,-1.06483 -5.1991,-0.028 -4.19156,1.9042 -8.63852,8.83008 -12.88135,20.06193 -1.15428,3.05572 -3.17892,8.12348 -4.49922,11.2617 -1.3203,3.13822 -2.89061,7.63848 -3.48962,10.00057 -0.59901,2.36209 -1.39813,5.16993 -1.77579,6.2396 -1.36533,3.86706 -0.38411,7.72096 2.04203,8.02063 0.15627,0.0192 0.67305,-0.31496 1.14841,-0.74276 z m -281.34238,17.11206 c -2.83924,-3.05136 -5.09459,-6.66365 -5.90844,-9.46324 -0.59238,-2.03766 -0.70645,-3.64233 -0.51872,-7.29726 0.29761,-5.79481 1.36994,-9.39176 4.6134,-15.47495 2.28503,-4.28557 2.54557,-5.1078 4.22539,-13.33409 0.9846,-4.82178 1.89487,-10.56696 2.02279,-12.76708 0.20719,-3.56335 0.13404,-4.12156 -0.67061,-5.1114 l -0.9032,-1.11117 -4.15008,1.42355 c -2.28253,0.78294 -6.29251,1.76103 -8.91106,2.17354 -4.44145,0.69965 -4.83671,0.70036 -5.88922,0.0116 -1.68752,-1.10571 -1.50803,-2.96262 0.50135,-5.18678 2.99877,-3.31926 6.40509,-4.85618 16.81591,-7.58722 3.71147,-0.97367 10.11519,-3.14424 14.44525,-4.89628 4.27802,-1.73104 8.34568,-3.37536 9.03924,-3.65404 1.12428,-0.4518 1.35823,-0.38677 2.15711,0.5992 1.46634,1.80979 0.91079,4.12983 -2.01908,8.43212 -1.84538,2.70979 -2.85174,4.80267 -3.82702,7.95881 -0.72778,2.35514 -2.11977,5.92744 -3.09334,7.9383 -3.6973,7.6368 -4.55783,13.23742 -3.97964,25.90106 0.17299,3.7891 0.33134,8.13935 0.35192,9.66721 0.0319,2.36734 0.15593,2.77794 0.83933,2.77794 1.68736,0 5.44528,-3.02292 12.10612,-9.73841 3.79924,-3.8304 7.62924,-7.4103 8.51106,-7.9553 0.94229,-0.58239 1.97067,-1.76628 2.49427,-2.87145 1.42551,-3.00902 10.45486,-11.3422 13.47619,-12.43719 0.39645,-0.14365 1.16682,-1.18251 1.71191,-2.30857 0.60299,-1.24559 2.21344,-3.13067 4.1125,-4.81383 1.71677,-1.5216 5.41914,-4.89712 8.22752,-7.50117 2.80836,-2.60407 6.07562,-5.2623 7.26055,-5.90722 2.33065,-1.26848 8.34444,-2.62486 9.62389,-2.17057 1.58653,0.56327 2.34475,1.60595 2.33723,3.21408 -0.007,1.45768 -0.53678,2.92138 -4.16387,11.50021 -2.38113,5.63187 -3.80804,15.34674 -3.82043,26.01067 -0.009,8.8428 0.19994,9.49626 3.51364,10.92177 2.42025,1.04117 3.36167,2.24319 2.97219,3.79496 -0.27634,1.10105 -5.86546,5.68699 -10.86801,8.91735 -5.98553,3.86515 -10.95152,5.19181 -13.29363,3.55131 -1.17196,-0.82089 -2.05311,-3.78296 -1.65906,-5.57706 0.15662,-0.71311 0.99789,-2.14644 1.86946,-3.18525 2.73376,-3.25814 2.89177,-4.01582 2.94282,-14.1116 0.0384,-7.59972 -0.0792,-9.42866 -0.70838,-11.02226 -1.03878,-2.63073 -3.4385,-5.86758 -4.35007,-5.86758 -1.92559,0 -11.55628,10.0067 -23.31343,24.22359 -5.58976,6.75922 -13.50432,14.74404 -16.67311,16.82112 -1.34452,0.8813 -3.14463,1.73277 -4.00023,1.89215 -0.92036,0.17148 -2.28169,0.98309 -3.33352,1.98745 -2.0272,1.93576 -5.17212,3.49878 -7.06868,3.51309 -0.95322,0.007 -1.74999,-0.48399 -3.04821,-1.87922 z m 181.05754,-88.59328 c -1.57356,-1.32409 -2.39724,-3.65368 -2.18857,-6.18982 0.23694,-2.87911 1.22136,-2.19029 2.85847,2.0001 2.133,5.45961 1.97958,6.41914 -0.6699,4.18972 z m -19.37762,-20.35569 c -3.41002,-2.31047 -6.13902,-4.88046 -9.1679,-8.6338 -3.31401,-4.10668 -9.27653,-13.16659 -9.27653,-14.09553 0,-1.62957 6.06649,0.0516 7.09045,1.96501 0.27232,0.50883 0.70365,2.05313 0.9585,3.43174 0.54242,2.93426 1.96776,5.26987 4.41722,7.2383 1.50747,1.21143 1.75686,1.65929 1.75686,3.15478 0,1.58563 0.21059,1.8997 2.33346,3.48029 2.83812,2.11312 4.48342,3.84155 4.26901,4.48473 -0.0895,0.26862 -1.13669,-0.18239 -2.38107,-1.02552 z m -6.66598,-21.23685 c -1.46676,-1.2389 -4.16691,-3.68794 -6.00034,-5.44236 -1.83344,-1.75441 -4.17196,-3.84018 -5.19674,-4.63506 -2.8475,-2.20871 -3.79482,-4.06418 -3.94208,-7.72105 -0.15171,-3.7663 -0.80502,-4.6339 -5.13903,-6.8244 -1.61913,-0.81835 -3.06361,-1.79991 -3.20993,-2.18123 -0.14635,-0.38134 -0.0659,-1.2197 0.17865,-1.863 0.40774,-1.07245 0.2089,-1.41395 -2.392,-4.10801 -1.56019,-1.61608 -2.97728,-3.38123 -3.1491,-3.92261 -0.17183,-0.54134 -0.10709,-1.72789 0.14389,-2.63677 0.56488,-2.04585 0.36467,-2.31186 -3.46746,-4.60689 -2.39755,-1.43587 -3.03042,-1.64835 -3.50274,-1.17605 -0.4723,0.47232 -0.33292,1.1488 0.77149,3.7441 1.50689,3.54114 1.61063,4.1053 0.75494,4.1053 -0.86446,0 -4.08263,-7.18237 -5.13278,-11.45551 -1.38991,-5.65553 -3.5852,-9.41176 -7.55097,-12.91988 -7.84575,-6.94038 -9.10069,-8.8439 -19.38631,-29.40542 -7.66361,-15.31999 -8.7284,-17.32331 -14.364,-27.0245 -1.46294,-2.51835 -3.58151,-6.64352 -4.70793,-9.16706 -2.08585,-4.67302 -9.46661,-23.36085 -14.93408,-37.81261 -5.45801,-14.42677 -7.50422,-18.63007 -13.13334,-26.97836 -3.74364,-5.55203 -5.78416,-10.652926 -6.37535,-15.937144 -0.47621,-4.256461 -0.0472,-8.522015 1.47815,-14.699823 1.31163,-5.311916 1.41322,-7.7493 0.45718,-10.968643 -0.71147,-2.395789 -3.87297,-7.419001 -5.19236,-8.249997 -0.60396,-0.380393 -0.95714,-0.272402 -1.69325,0.517722 -0.51157,0.549106 -1.09305,0.897695 -1.29217,0.774623 -0.19912,-0.123062 -0.59975,-2.177622 -0.89026,-4.565666 -0.29051,-2.388057 -1.04383,-6.500851 -1.67404,-9.139541 -1.03054,-4.314998 -1.09646,-5.095411 -0.65532,-7.757649 0.26977,-1.628015 1.12332,-4.245495 1.89678,-5.816602 1.95003,-3.96107 6.70584,-8.873588 10.52453,-10.871312 3.8744,-2.02685 6.21879,-2.625606 10.21907,-2.609911 3.93047,0.01542 6.50314,1.097215 8.69273,3.655248 3.28596,3.838915 9.29372,17.418701 12.47483,28.19785 0.86573,2.9335 2.70009,9.933897 4.07636,15.556437 3.23059,13.198044 4.89901,18.182313 13.01843,38.891078 4.8907,12.47384 7.48709,19.82273 9.579,27.11264 5.39517,18.80126 12.66006,38.383 23.16842,62.44796 3.05282,6.99121 6.62823,15.88329 11.56,28.74983 l 3.69415,9.63764 -0.49974,2.91745 c -0.39409,2.30068 -0.3804,3.03514 0.0648,3.47419 0.45289,0.44672 0.67806,0.40302 1.13912,-0.22104 0.31607,-0.4278 0.78315,-0.77782 1.03796,-0.77782 0.25482,0 0.88595,1.45008 1.40251,3.2224 3.09076,10.60451 6.3265,19.40682 10.74274,29.22387 6.85955,15.24825 10.01417,22.67058 10.29548,24.22357 0.33098,1.82766 -0.23194,7.01089 -0.77855,7.16842 -0.24445,0.0705 -1.64453,-0.88554 -3.11129,-2.12441 z M 205.39688,109.84626 c -1.53919,-2.34149 -2.10211,-5.19915 -1.49749,-7.60203 0.34329,-1.3643 1.18639,-2.6515 2.85843,-4.364098 2.74375,-2.810311 3.13048,-3.896081 3.66326,-10.28472 0.36534,-4.380731 0.44858,-4.651668 1.88466,-6.133319 1.69453,-1.748309 1.79998,-2.643841 1.12317,-9.539667 -0.36213,-3.689412 -0.33838,-3.852184 0.74537,-5.111399 0.61567,-0.71532 1.28643,-1.132097 1.49057,-0.92615 0.64179,0.647503 0.30392,12.277778 -0.48624,16.737627 -0.94708,5.345533 -1.4528,7.370058 -4.80203,19.223326 -1.75688,6.2178 -2.93715,9.6672 -3.30779,9.6672 -0.31695,0 -1.0693,-0.75004 -1.67191,-1.66677 z"
       id="path242" />
  </g>
</svg>
