<?xml version="1.0" encoding="UTF-8" standalone="no"?>
<!-- Created with Inkscape (http://www.inkscape.org/) -->

<svg
   version="1.1"
   id="svg6"
   width="567.35999"
   height="567.35999"
   viewBox="0 0 567.35999 567.35999"
   sodipodi:docname="Completelogo.svg"
   inkscape:export-filename="logonuevo2-01.png"
   inkscape:export-xdpi="96"
   inkscape:export-ydpi="96"
   inkscape:version="1.3.2 (091e20e, 2023-11-25, custom)"
   xmlns:inkscape="http://www.inkscape.org/namespaces/inkscape"
   xmlns:sodipodi="http://sodipodi.sourceforge.net/DTD/sodipodi-0.dtd"
   xmlns="http://www.w3.org/2000/svg"
   xmlns:svg="http://www.w3.org/2000/svg">
  <defs
     id="defs10" />
  <sodipodi:namedview
     id="namedview8"
     pagecolor="#505050"
     bordercolor="#eeeeee"
     borderopacity="1"
     inkscape:showpageshadow="0"
     inkscape:pageopacity="0"
     inkscape:pagecheckerboard="0"
     inkscape:deskcolor="#505050"
     showgrid="false"
     inkscape:zoom="0.8706994"
     inkscape:cx="288.84825"
     inkscape:cy="274.49198"
     inkscape:window-width="1024"
     inkscape:window-height="697"
     inkscape:window-x="-8"
     inkscape:window-y="-8"
     inkscape:window-maximized="1"
     inkscape:current-layer="g12" />
  <g
     inkscape:groupmode="layer"
     inkscape:label="Image"
     id="g12">
    <path
       style="fill:#6a0a0b;fill-opacity:1;stroke-width:0.44447"
       d="m 405.60224,545.54098 c -6.16256,-0.67822 -11.39423,-1.63404 -18.22324,-3.32932 -8.42892,-2.09253 -13.51903,-2.98934 -34.22416,-6.03001 -35.3988,-5.1985 -40.30804,-5.79751 -70.89287,-8.64971 -36.33877,-3.38886 -50.76708,-4.99943 -52.37928,-5.84701 -0.52637,-0.27668 -1.55708,-1.00453 -2.29046,-1.61746 l -1.33341,-1.11434 -0.13929,1.40263 c -0.0819,0.82423 -0.39061,1.40259 -0.74876,1.40259 -0.33522,0 -2.07264,-0.30831 -3.86094,-0.68515 -9.66726,-2.03711 -17.7787,-2.87597 -36.15663,-3.73919 -7.5281,-0.35361 -9.45223,-0.59146 -12.45325,-1.5395 -4.03234,-1.27381 -5.55149,-2.1768 -4.85451,-2.88555 0.77706,-0.79013 16.91948,-6.70761 18.26971,-6.69725 0.70116,0.006 2.1467,0.40534 3.21235,0.88894 2.53113,1.1485 4.31897,1.10327 6.53738,-0.16554 2.82355,-1.61482 9.87824,-2.23439 16.49261,-1.44839 3.08996,0.36718 3.22492,0.34252 4.36641,-0.79896 1.89309,-1.8931 1.33677,-2.24934 -3.73365,-2.39084 -3.33174,-0.093 -4.50172,-0.27163 -4.36591,-0.66671 0.24877,-0.72351 9.16678,-0.49133 15.43437,0.40185 5.46143,0.77829 7.88643,0.54713 12.22291,-1.16511 6.20455,-2.44982 6.13658,-2.44536 37.1132,-2.41671 30.59504,0.0285 36.50416,0.29972 57.33656,2.63348 16.07046,1.80033 21.71136,2.11372 32.44626,1.80281 8.28687,-0.24005 10.43904,-0.17205 12.55934,0.39684 3.04376,0.81662 7.12511,2.81761 10.71745,5.25446 3.40739,2.31138 10.88146,5.85455 14.38992,6.82175 3.30893,0.9122 4.78685,0.48257 5.51387,-1.60287 0.25543,-0.73272 0.76045,-1.33222 1.12224,-1.33222 0.72661,0 11.71062,3.12494 14.7054,4.18367 9.55912,3.37934 14.44318,16.69187 9.37778,25.56103 -2.09265,3.66417 -3.27556,4.02446 -13.04954,3.9749 -4.40025,-0.0222 -10.30058,-0.29372 -13.11186,-0.60311 z M 9.8021775,532.14685 c -2.8666339,-0.7211 -4.12958,-1.36039 -5.8859574,-2.97937 -2.2617522,-2.08483 -3.01625259,-3.3802 -3.67127618,-6.30307 -0.65125839,-2.90602 -0.15393852,-5.15762 3.33706358,-15.10845 4.3663565,-12.44595 7.4121125,-19.96187 11.6070845,-28.6425 4.521588,-9.35649 6.42107,-12.70179 12.632229,-22.24765 8.993724,-13.82238 15.089542,-25.49357 25.985288,-49.75227 10.315755,-22.96739 17.993982,-39.25924 33.00765,-70.03643 10.451386,-21.42482 14.986701,-31.3053 27.438621,-59.77697 9.25245,-21.15601 32.69888,-73.45135 34.71881,-77.43747 0.59157,-1.16742 1.23813,-2.12257 1.43681,-2.12257 0.52873,0 5.78766,-4.83791 6.30042,-5.79601 0.69199,-1.293 -0.1869,-1.38518 -1.80746,-0.18956 -1.72993,1.27628 -2.20234,1.3616 -2.20234,0.39772 0,-0.38429 2.88798,-6.33463 6.41775,-13.22297 3.52977,-6.88836 7.10729,-14.42438 7.95006,-16.74674 0.84277,-2.32235 3.06654,-6.92261 4.9417,-10.2228 5.14998,-9.06369 6.79758,-12.67943 8.00005,-17.55654 1.52278,-6.17631 5.96069,-17.93149 9.1693,-24.2877 1.44376,-2.86009 7.78722,-12.404465 8.58735,-12.920547 0.70084,-0.452046 1.53548,0.534838 1.87095,2.212215 0.26947,1.347392 0.19687,1.456752 -1.14526,1.725192 -2.59723,0.51943 -7.37436,7.65758 -7.65946,11.445 -0.0751,0.99767 0.0826,1.80613 0.37198,1.90826 0.27626,0.0976 1.13095,-0.9367 1.89932,-2.29819 2.66511,-4.72232 5.39858,-8.71375 5.79831,-8.46671 0.22097,0.13654 0.3084,1.29567 0.19428,2.57578 -0.11418,1.2801 -0.3803,6.3277 -0.59152,11.21686 -0.44971,10.40867 -0.8347,11.86775 -4.12273,15.62517 -1.2434,1.4209 -2.62565,3.38679 -3.07168,4.36865 -1.02433,2.25485 -1.06787,6.28766 -0.10094,9.35496 0.95591,3.03246 0.57824,4.37761 -1.61844,5.76431 -2.05224,1.2955 -2.44042,2.40799 -2.01853,5.78474 0.17803,1.42486 0.0848,3.49596 -0.22471,4.99223 -0.47951,2.31799 -0.82538,2.84475 -3.69868,5.6332 l -3.1697,3.0761 0.046,2.49086 c 0.0514,2.77729 1.53349,6.69115 2.53384,6.69115 1.12042,0 3.41455,-5.14961 4.97276,-11.16242 0.83618,-3.22661 1.70646,-6.0527 1.93395,-6.28018 1.01401,-1.01402 0.88881,0.88049 -0.39397,5.96161 -1.89394,7.50195 -3.19124,11.03443 -5.50487,14.98967 -5.21753,8.91955 -7.92697,17.62773 -9.83339,31.60441 -1.11026,8.13983 -2.78488,14.18009 -7.88647,28.44605 -1.61724,4.52247 -5.45946,15.50382 -8.53823,24.40297 -8.88979,25.69584 -16.55842,46.65934 -20.33949,55.60153 -1.08534,2.5668 -4.48118,10.06723 -7.5463,16.6676 -23.97513,51.62767 -27.53476,60.015 -32.06808,75.55982 -3.432987,11.77182 -5.509083,16.855 -9.669588,23.67533 -3.268705,5.35844 -7.557539,10.40117 -15.965051,18.7715 -8.622541,8.5844 -11.174403,11.858 -13.984004,17.93901 -1.563979,3.38504 -2.856905,7.97023 -2.868754,10.17368 -0.0058,1.10184 0.146736,1.2223 1.549071,1.2223 0.855613,0 1.555653,0.19455 1.555653,0.43238 0,0.58337 -9.52769,16.31807 -13.733231,22.68003 -1.858357,2.81127 -4.678924,6.43462 -6.267903,8.05188 -3.402534,3.4631 -8.458712,6.87262 -12.982772,8.75466 -5.689363,2.3668 -13.220899,3.98028 -15.6855105,3.36029 z M 128.25856,499.86824 c -1.07853,-0.55005 -2.04521,-1.2728 -2.14816,-1.60619 -0.1521,-0.49243 0.42727,-0.54896 3.08908,-0.30145 5.24282,0.4875 5.98296,0.95624 3.52058,2.22956 -1.72437,0.89173 -2.14061,0.86169 -4.4615,-0.32192 z m 18.47319,-6.85247 c -0.15639,-0.40759 -0.12778,-0.89326 0.0636,-1.07931 0.33709,-0.3278 25.59584,-5.29118 26.92672,-5.29118 0.9054,0 1.2964,1.21271 0.73137,2.26847 -0.65314,1.22041 -3.92646,3.50961 -5.01838,3.50961 -0.50021,0 -1.66761,-0.5254 -2.59424,-1.16752 -1.43296,-0.99308 -1.8683,-1.09794 -2.91294,-0.70182 -0.67549,0.25614 -3.14998,0.56381 -5.49881,0.68368 -3.42903,0.17504 -4.71813,0.44473 -6.54117,1.36852 -2.63027,1.33288 -4.73758,1.50022 -5.15612,0.40954 z M 378.08728,344.16005 c -1.57356,-1.32409 -2.39724,-3.65368 -2.18857,-6.18982 0.23694,-2.87911 1.22136,-2.19029 2.85847,2.0001 2.133,5.45961 1.97958,6.41914 -0.6699,4.18972 z m -19.37762,-20.35569 c -3.41002,-2.31047 -6.13902,-4.88046 -9.1679,-8.6338 -3.31401,-4.10668 -9.27653,-13.16659 -9.27653,-14.09553 0,-1.62957 6.06649,0.0516 7.09045,1.96501 0.27232,0.50883 0.70365,2.05313 0.9585,3.43174 0.54242,2.93426 1.96776,5.26987 4.41722,7.2383 1.50747,1.21143 1.75686,1.65929 1.75686,3.15478 0,1.58563 0.21059,1.8997 2.33346,3.48029 2.83812,2.11312 4.48342,3.84155 4.26901,4.48473 -0.0895,0.26862 -1.13669,-0.18239 -2.38107,-1.02552 z m -6.66598,-21.23685 c -1.46676,-1.2389 -4.16691,-3.68794 -6.00034,-5.44236 -1.83344,-1.75441 -4.17196,-3.84018 -5.19674,-4.63506 -2.8475,-2.20871 -3.79482,-4.06418 -3.94208,-7.72105 -0.15171,-3.7663 -0.80502,-4.6339 -5.13903,-6.8244 -1.61913,-0.81835 -3.06361,-1.79991 -3.20993,-2.18123 -0.14635,-0.38134 -0.0659,-1.2197 0.17865,-1.863 0.40774,-1.07245 0.2089,-1.41395 -2.392,-4.10801 -1.56019,-1.61608 -2.97728,-3.38123 -3.1491,-3.92261 -0.17183,-0.54134 -0.10709,-1.72789 0.14389,-2.63677 0.56488,-2.04585 0.36467,-2.31186 -3.46746,-4.60689 -2.39755,-1.43587 -3.03042,-1.64835 -3.50274,-1.17605 -0.4723,0.47232 -0.33292,1.1488 0.77149,3.7441 1.50689,3.54114 1.61063,4.1053 0.75494,4.1053 -0.86446,0 -4.08263,-7.18237 -5.13278,-11.45551 -1.38991,-5.65553 -3.5852,-9.41176 -7.55097,-12.91988 -7.84575,-6.94038 -9.10069,-8.8439 -19.38631,-29.40542 -7.66361,-15.31999 -8.7284,-17.32331 -14.364,-27.0245 -1.46294,-2.51835 -3.58151,-6.64352 -4.70793,-9.16706 -2.08585,-4.67302 -9.46661,-23.36085 -14.93408,-37.81261 -5.45801,-14.42677 -7.50422,-18.63007 -13.13334,-26.97836 -3.74364,-5.55203 -5.78416,-10.652926 -6.37535,-15.937144 -0.47621,-4.256461 -0.0472,-8.522015 1.47815,-14.699823 1.31163,-5.311916 1.41322,-7.7493 0.45718,-10.968643 -0.71147,-2.395789 -3.87297,-7.419001 -5.19236,-8.249997 -0.60396,-0.380393 -0.95714,-0.272402 -1.69325,0.517722 -0.51157,0.549106 -1.09305,0.897695 -1.29217,0.774623 -0.19912,-0.123062 -0.59975,-2.177622 -0.89026,-4.565666 -0.29051,-2.388057 -1.04383,-6.500851 -1.67404,-9.139541 -1.03054,-4.314998 -1.09646,-5.095411 -0.65532,-7.757649 0.26977,-1.628015 1.12332,-4.245495 1.89678,-5.816602 1.95003,-3.96107 6.70584,-8.873588 10.52453,-10.871312 3.8744,-2.02685 6.21879,-2.625606 10.21907,-2.609911 3.93047,0.01542 6.50314,1.097215 8.69273,3.655248 3.28596,3.838915 9.29372,17.418701 12.47483,28.19785 0.86573,2.9335 2.70009,9.933897 4.07636,15.556437 3.23059,13.198044 4.89901,18.182313 13.01843,38.891078 4.8907,12.47384 7.48709,19.82273 9.579,27.11264 5.39517,18.80126 12.66006,38.383 23.16842,62.44796 3.05282,6.99121 6.62823,15.88329 11.56,28.74983 l 3.69415,9.63764 -0.49974,2.91745 c -0.39409,2.30068 -0.3804,3.03514 0.0648,3.47419 0.45289,0.44672 0.67806,0.40302 1.13912,-0.22104 0.31607,-0.4278 0.78315,-0.77782 1.03796,-0.77782 0.25482,0 0.88595,1.45008 1.40251,3.2224 3.09076,10.60451 6.3265,19.40682 10.74274,29.22387 6.85955,15.24825 10.01417,22.67058 10.29548,24.22357 0.33098,1.82766 -0.23194,7.01089 -0.77855,7.16842 -0.24445,0.0705 -1.64453,-0.88554 -3.11129,-2.12441 z M 205.39688,109.84626 c -1.53919,-2.34149 -2.10211,-5.19915 -1.49749,-7.60203 0.34329,-1.3643 1.18639,-2.6515 2.85843,-4.364098 2.74375,-2.810311 3.13048,-3.896081 3.66326,-10.28472 0.36534,-4.380731 0.44858,-4.651668 1.88466,-6.133319 1.69453,-1.748309 1.79998,-2.643841 1.12317,-9.539667 -0.36213,-3.689412 -0.33838,-3.852184 0.74537,-5.111399 0.61567,-0.71532 1.28643,-1.132097 1.49057,-0.92615 0.64179,0.647503 0.30392,12.277778 -0.48624,16.737627 -0.94708,5.345533 -1.4528,7.370058 -4.80203,19.223326 -1.75688,6.2178 -2.93715,9.6672 -3.30779,9.6672 -0.31695,0 -1.0693,-0.75004 -1.67191,-1.66677 z"
       id="path242"
       sodipodi:nodetypes="sssssscssssssccssssssscsssssssssssssssssssssssssssssssssscsscssssssssccsssssssssssssscssssssssssssssssssssssssssssssssssssssssssssssssssssssssssscssssssssssssssssscssssssssssssssssssssss" />
    <path
       style="fill:#1a3902;fill-opacity:1;stroke-width:4.75156"
       d="m 305.59063,494.81985 c -1.72863,-0.98819 -4.19355,-1.81672 -5.47758,-1.84123 -1.28406,-0.0238 -5.87636,-1.73484 -10.20513,-3.80077 -4.32877,-2.06593 -8.58048,-4.61173 -9.44824,-5.65735 -0.86778,-1.04559 -2.25126,-1.9011 -3.07439,-1.9011 -0.82316,0 -2.98083,-1.55575 -4.79483,-3.45725 -1.814,-1.90147 -3.91436,-4.87156 -4.66745,-6.60019 -0.75308,-1.72862 -2.78567,-5.08977 -4.51686,-7.46926 -2.04115,-2.80552 -3.11344,-5.89896 -3.05042,-8.80027 0.0535,-2.46068 -0.44622,-7.01981 -1.11038,-10.13132 -0.75382,-3.53164 -0.77732,-9.82024 -0.0626,-16.73637 0.62974,-6.09349 1.71568,-12.14541 2.41318,-13.44872 1.00665,-1.88095 0.60393,-3.03391 -1.95284,-5.59063 -1.77155,-1.77158 -4.03848,-5.17754 -5.03761,-7.56876 -0.99915,-2.39128 -1.8166,-5.99386 -1.8166,-8.00577 0,-2.01184 -0.81213,-4.33199 -1.80472,-5.15577 -0.9926,-0.82377 -2.71126,-5.48348 -3.81923,-10.35493 -1.108,-4.87148 -3.07731,-10.94041 -4.37625,-13.48654 -1.29895,-2.54617 -2.75914,-6.86595 -3.24489,-9.59962 -0.53838,-3.02978 -2.84034,-7.32899 -5.89618,-11.01193 -2.75716,-3.3229 -6.8552,-9.10094 -9.10679,-12.84004 -2.25159,-3.73914 -5.3746,-10.78176 -6.94003,-15.65026 -2.04887,-6.37194 -2.67151,-10.67048 -2.22252,-15.34331 0.35884,-3.73463 1.43445,-7.08429 2.5327,-7.8873 1.30864,-0.95691 6.00559,-1.10659 14.93616,-0.47596 7.16499,0.50594 17.5531,2.08066 23.08471,3.49943 5.53161,1.41872 15.35741,5.13026 21.83514,8.24781 6.47772,3.11758 16.66091,8.85124 22.6293,12.74149 5.9684,3.89023 15.09186,10.52959 20.2744,14.75416 5.18252,4.22456 13.56266,11.60545 18.62254,16.40195 5.05986,4.79651 12.9278,13.13864 17.4843,18.53806 6.53007,7.73816 8.64329,9.51947 9.97842,8.41145 0.93159,-0.77317 1.68689,-2.32655 1.67849,-3.4519 -0.0106,-1.12537 -1.86878,-6.28913 -4.13405,-11.47502 -2.26531,-5.18589 -6.77339,-13.53131 -10.01805,-18.54538 -3.2446,-5.01409 -8.18726,-11.5987 -10.98373,-14.63249 -2.79643,-3.03377 -6.90883,-6.2376 -9.13868,-7.11963 -2.22984,-0.88199 -5.0443,-2.44678 -6.25434,-3.47724 -1.21004,-1.03047 -2.20007,-2.35159 -2.20007,-2.9359 0,-0.58429 0.75161,-1.06234 1.67025,-1.06234 0.91862,0 4.38252,1.79656 7.69756,3.99234 3.31503,2.19581 9.10221,7.71169 12.86046,12.25756 3.75819,4.54585 9.55001,13.07391 12.87069,18.95125 3.32066,5.87732 7.10653,13.38344 8.41292,16.68031 1.39482,3.51982 3.07217,5.85516 4.06344,5.65731 0.92846,-0.18531 4.34236,-6.28528 7.58648,-13.55554 3.24413,-7.27028 8.06254,-16.78113 10.70759,-21.13536 2.64499,-4.35419 7.80054,-11.13481 11.45666,-15.068 3.65619,-3.93321 8.40275,-8.1733 10.54795,-9.42239 3.81431,-2.22102 3.90041,-2.21618 3.90041,0.21999 0,1.63126 -1.84436,3.50675 -5.34302,5.43312 -3.26833,1.79952 -7.90736,6.35171 -11.94696,11.72314 -3.63214,4.82968 -9.39553,14.25487 -12.80753,20.94488 -3.41196,6.69 -6.8938,14.46726 -7.73735,17.28284 -1.32373,4.41815 -0.37299,5.91769 0.5527,7.42475 0,0 1.06625,1.48386 2.75425,0.56639 1.0422,-0.56644 5.15169,-5.83983 9.96614,-12.14485 4.81448,-6.30504 13.8662,-16.76754 20.11492,-23.24991 6.24874,-6.4824 15.32146,-15.00423 20.16164,-18.93733 4.84017,-3.93316 12.47754,-9.75091 16.97199,-12.92843 4.49441,-3.17751 13.26327,-8.33875 19.48633,-11.46944 6.22304,-3.13067 15.55765,-6.86697 20.74352,-8.30283 5.18589,-1.43592 14.66872,-3.23269 21.07296,-3.99289 8.89678,-1.05598 12.07096,-1.02786 13.45314,0.11931 0.99493,0.82574 2.17369,3.93339 2.61943,6.90593 0.44571,2.97251 0.13637,8.72505 -0.68716,12.78335 -0.82373,4.05831 -3.62231,11.66047 -6.21908,16.89369 -2.59683,5.23323 -6.78569,12.58018 -9.30868,16.32659 -2.52299,3.74643 -4.58721,8.354 -4.58721,10.23914 0,1.88514 -1.14626,6.33553 -2.54721,9.88984 -1.40099,3.55432 -2.90059,9.8432 -3.33251,13.9753 -0.43192,4.13209 -1.45834,8.18603 -2.28103,9.00872 -0.82269,0.82267 -1.90134,4.55294 -2.39703,8.28943 -0.49562,3.73647 -1.50515,7.96869 -2.24335,9.40484 -0.73816,1.43616 -2.45137,3.83072 -3.80709,5.32124 -1.97066,2.16661 -2.19127,3.22145 -1.10007,5.26039 0.75069,1.40266 1.36489,4.49645 1.36489,6.87509 0,2.37857 0.8566,6.75262 1.9036,9.72012 1.04702,2.96744 1.58759,7.14016 1.20134,9.27262 -0.3863,2.13249 -0.84436,7.96066 -1.01802,12.95152 -0.25564,7.35326 -0.8413,9.63373 -3.08709,12.02424 -1.52424,1.62252 -2.77139,4.16678 -2.77139,5.65393 0,1.48714 -1.75579,4.70361 -3.9018,7.14777 -2.14594,2.44415 -4.64454,4.4439 -5.55242,4.4439 -0.90788,0 -2.68791,1.30263 -3.95564,2.89474 -1.2677,1.5921 -5.41643,4.20152 -9.21944,5.79871 -3.80296,1.59718 -10.02603,4.24523 -13.82899,5.88452 -4.87505,2.10142 -9.51024,3.02674 -15.71483,3.13702 -6.06161,0.10787 -10.95205,-0.63808 -15.71478,-2.39677 -4.22974,-1.56195 -8.38204,-4.24305 -10.69415,-6.90527 -2.07881,-2.39355 -6.43256,-9.08435 -9.67502,-14.86842 -3.24247,-5.78408 -8.46258,-16.4567 -11.60032,-23.71693 -5.70491,-13.20045 -5.70491,-13.20045 -5.72548,-2.38772 -0.0106,5.94705 -0.65053,12.6201 -1.42063,14.82906 -0.77003,2.20894 -2.04292,3.80736 -2.82864,3.55202 -0.78572,-0.25516 -2.1259,-1.89336 -2.97824,-3.63998 -0.85228,-1.74668 -1.9306,-8.13191 -2.3962,-14.18944 -0.84659,-11.01368 -0.84659,-11.01368 -5.03056,0.75421 -2.30119,6.47235 -7.2174,17.99093 -10.92489,25.5969 -3.70746,7.60596 -8.29261,15.66765 -10.1892,17.91485 -1.89662,2.24724 -4.11363,4.08586 -4.92671,4.08586 -0.8131,0 -3.58941,1.13148 -6.16962,2.51439 -3.63306,1.94719 -7.03183,2.50431 -15.06758,2.46982 -6.61543,-0.0285 -11.51547,-0.69578 -13.51927,-1.84124 z m 20.11493,-3.14297 c 0,-0.69145 -0.24945,-1.25717 -0.55439,-1.25717 -0.30492,0 -0.90404,0.56572 -1.33138,1.25717 -0.42736,0.69144 -0.17786,1.25716 0.55441,1.25716 0.73224,0 1.33136,-0.56572 1.33136,-1.25716 z m -9.14076,-2.0167 c -0.41776,-0.41766 -1.50207,-0.46233 -2.40961,-0.0994 -1.0029,0.4015 -0.70499,0.69919 0.75956,0.75954 1.32526,0.0546 2.06779,-0.2428 1.65005,-0.66027 z m -12.23136,-1.75485 c 0,-0.69145 -0.99003,-1.24853 -2.20007,-1.23792 -1.88016,0.0142 -1.92588,0.19624 -0.31431,1.23792 1.03717,0.67025 2.0272,1.22732 2.20007,1.23793 0.17285,0.0106 0.31431,-0.54649 0.31431,-1.23793 z m 128.23272,0.7028 c 0,-0.30504 -0.56572,-0.90403 -1.25722,-1.33138 -0.69144,-0.42717 -1.25716,-0.17772 -1.25716,0.5544 0,0.73222 0.56572,1.33134 1.25716,1.33134 0.6915,0 1.25722,-0.24946 1.25722,-0.55436 z m -103.08905,-2.58855 c 0,-1.03722 -0.81521,-1.8858 -1.81157,-1.8858 -0.99637,0 -2.13136,0.51739 -2.5222,1.14983 -0.39088,0.63239 7e-5,1.4363 0.86869,1.78649 0.86863,0.35019 2.00361,0.68137 2.5222,0.73598 0.51858,0.0546 0.94288,-0.74933 0.94288,-1.7865 z m 95.20545,1.1262 c -0.41766,-0.41766 -1.50206,-0.46231 -2.40961,-0.0994 -1.00286,0.40151 -0.705,0.69926 0.75953,0.75955 1.32531,0.0546 2.06783,-0.24233 1.65008,-0.66027 z m 17.94108,-1.75483 c 0,-0.69145 -0.53237,-1.25717 -1.18299,-1.25717 -0.65069,0 -1.53267,0.56572 -1.95998,1.25717 -0.42716,0.69144 0.10496,1.25721 1.183,1.25721 1.07794,0 1.95997,-0.56577 1.95997,-1.25721 z m -123.204,-1.88575 c -0.86078,-1.03718 -2.76868,-1.8678 -4.23977,-1.8458 -2.62227,0.0379 -2.62686,0.0761 -0.23435,1.88575 1.3422,1.01522 3.2501,1.8458 4.23978,1.8458 1.45694,0 1.50155,-0.35875 0.23434,-1.88575 z m -26.40084,-0.6286 c 0,-0.69143 -1.2729,-1.24851 -2.82866,-1.23792 -2.28738,0.0142 -2.46781,0.25232 -0.94289,1.23792 1.03717,0.67026 2.31007,1.22735 2.82866,1.23793 0.51859,0.0106 0.94289,-0.54647 0.94289,-1.23793 z m 51.96368,-2.49474 c 1.73641,-2.06356 4.28125,-6.75658 5.65525,-10.42893 1.37396,-3.67232 3.16816,-10.08256 3.98709,-14.24497 0.81889,-4.16241 1.29441,-8.93189 1.05675,-10.59888 -0.35257,-2.47071 -1.78165,-0.76637 -7.73359,9.22144 -4.01578,6.73885 -8.38778,14.6456 -9.71557,17.57057 -1.32778,2.92501 -2.42659,6.87393 -2.44176,8.77545 -0.0224,2.82323 0.52824,3.45724 3.00358,3.45724 1.82113,0 4.29152,-1.49779 6.18825,-3.75192 z m 83.8785,1.86616 c -0.0379,-0.69148 -0.72641,-1.25721 -1.53309,-1.25721 -0.80671,0 -1.72044,0.76119 -2.03057,1.69157 -0.35257,1.05744 0.22236,1.5287 1.53313,1.25715 1.1533,-0.23901 2.06708,-1.00005 2.03053,-1.69151 z m 26.33448,-0.13446 c 0,-0.27179 -0.84864,-0.49411 -1.8858,-0.49411 -1.03718,0 -1.88576,0.548 -1.88576,1.21772 0,0.66979 0.84858,0.89211 1.88576,0.49413 1.03716,-0.3982 1.8858,-0.946 1.8858,-1.21774 z M 308.105,481.82894 c 0,-0.57622 -0.33818,-1.38584 -0.75151,-1.79913 -0.41334,-0.41338 -1.54479,-0.44713 -2.51435,-0.075 -0.96959,0.37206 -1.76288,1.18166 -1.76288,1.79914 0,0.61746 1.13146,1.12269 2.51437,1.12269 1.38291,0 2.51437,-0.47136 2.51437,-1.04767 z m 110.40609,-3.09826 c 0.22142,-1.92271 -0.77437,-5.92704 -2.21279,-8.89852 -1.4385,-2.97149 -6.63242,-11.01097 -11.54217,-17.86553 -8.92671,-12.46287 -8.92671,-12.46287 -8.07469,-6.44322 0.46849,3.3108 1.87111,8.96809 3.11669,12.57182 1.24557,3.60373 3.5197,9.21142 5.0537,12.46158 1.53395,3.25016 4.2537,7.37405 6.04384,9.16419 1.79016,1.79015 4.14535,3.08623 5.23384,2.88015 1.10635,-0.20953 2.15656,-1.91615 2.38158,-3.87047 z m 22.75057,0.84678 c 0.28794,-0.25991 0.1891,-0.80696 -0.21953,-1.21578 -0.4091,-0.40911 -1.9175,-0.37063 -3.35251,0.0847 -1.43503,0.45519 -2.60913,1.39382 -2.60913,2.08528 0,0.72322 1.20139,0.88792 2.8287,0.38771 1.55575,-0.4782 3.06437,-1.08207 3.35247,-1.34188 z m -112.03641,-2.2282 c 2.30563,-1.19245 7.936,-9.2825 17.54889,-25.21528 7.78477,-12.90272 15.28075,-26.80384 16.6577,-30.89131 1.37699,-4.08754 2.50359,-8.5569 2.50359,-9.932 0,-1.97879 -1.15616,-1.2661 -5.54417,3.41761 -3.04927,3.25478 -10.12096,9.31215 -15.71485,13.46082 -9.28961,6.88967 -10.33579,8.11035 -12.0763,14.09095 -1.04808,3.60129 -4.15957,11.20874 -6.91443,16.90547 -2.75487,5.69669 -5.00885,11.6142 -5.00885,13.14999 0,1.53581 0.3434,3.68721 0.76309,4.78093 0.41972,1.09376 1.57926,1.98861 2.5768,1.98861 0.99755,0 3.34138,-0.79012 5.20853,-1.75579 z m 137.28486,-0.9974 c 0,-0.66151 -0.94314,-1.01983 -2.09591,-0.79626 -1.15273,0.22379 -2.31649,1.06914 -2.58613,1.87905 -0.31171,0.93672 0.45092,1.22647 2.09586,0.79626 1.42238,-0.37204 2.58618,-1.21753 2.58618,-1.87905 z m -183.78733,-0.53853 c -1.119,-1.119 -2.66378,-1.64561 -3.43287,-1.17032 -0.76908,0.47535 -1.07285,1.39089 -0.67503,2.03452 0.3978,0.6437 1.94259,1.17032 3.43285,1.17032 2.49656,0 2.54963,-0.16013 0.67505,-2.03452 z m 13.72708,1.27498 c -0.41775,-0.41766 -1.50208,-0.46233 -2.4096,-0.0994 -1.0029,0.4015 -0.70501,0.69923 0.75955,0.75958 1.32528,0.0546 2.0678,-0.24281 1.65005,-0.66032 z m 154.97404,-0.49764 c 0,-0.69145 -1.13148,-1.25717 -2.51437,-1.25717 -1.3829,0 -2.51434,0.56572 -2.51434,1.25717 0,0.69146 1.13144,1.25718 2.51434,1.25718 1.38289,0 2.51437,-0.56572 2.51437,-1.25718 z m -18.07764,-4.55631 c 0.63824,-2.54285 -0.75848,-6.36129 -6.09305,-16.65763 -3.80662,-7.34725 -7.59376,-15.44082 -8.41587,-17.98569 -1.22486,-3.79176 -3.2149,-5.69927 -11.02243,-10.56549 -5.24022,-3.26607 -12.8669,-8.71726 -16.9481,-12.11366 -7.18245,-5.97732 -7.39395,-6.0618 -6.59422,-2.63499 0.45426,1.94719 2.42207,6.74613 4.37252,10.66426 1.95047,3.91819 9.04141,15.23284 15.75766,25.14368 6.71623,9.9109 14.21813,20.1413 16.67094,22.73421 3.07074,3.24623 5.54729,4.71445 7.95205,4.71445 2.72094,0 3.67543,-0.72883 4.3205,-3.29914 z m -116.74145,-0.72589 c 1.09424,-0.89777 4.65802,-7.28961 7.9195,-14.20413 3.26149,-6.91452 6.28662,-14.12762 6.72253,-16.02909 0.56502,-2.46478 0.30191,-3.45725 -0.91653,-3.45725 -0.93998,0 -6.46665,2.85893 -12.28148,6.35322 -5.81483,3.49426 -12.17869,7.8787 -14.14193,9.74317 -1.96321,1.86447 -4.36757,4.91762 -5.34302,6.78475 -0.97545,1.86717 -1.77354,4.46671 -1.77354,5.7768 0,1.31006 0.99003,3.25982 2.20007,4.33275 1.21004,1.07301 3.33155,2.2513 4.71444,2.61851 1.38291,0.36728 4.40348,0.45282 6.71239,0.19054 2.30892,-0.26229 5.09332,-1.21157 6.18757,-2.10937 z m 144.24795,0.25372 c 0.42717,-0.69143 0.21144,-1.2572 -0.48019,-1.2572 -0.69146,0 -1.60684,0.56577 -2.03415,1.2572 -0.42716,0.69146 -0.21144,1.25718 0.48019,1.25718 0.69146,0 1.60684,-0.56572 2.03415,-1.25718 z m -188.33487,-4.6905 c -0.31873,-1.22324 -0.6005,-0.5268 -0.62612,1.54754 -0.0257,2.07434 0.23515,3.07516 0.57954,2.22402 0.3444,-0.85119 0.36534,-2.54836 0.0465,-3.77156 z m 202.85891,2.80471 c -0.038,-0.69145 -0.72642,-1.25717 -1.53314,-1.25717 -0.80667,0 -1.72044,0.76121 -2.03058,1.69156 -0.35256,1.05741 0.22238,1.52872 1.53314,1.25717 1.15336,-0.239 2.06707,-1.00011 2.03058,-1.69156 z m -21.71828,-2.58566 c 1.6168,-1.13244 2.79411,-3.27762 2.79411,-5.09115 0,-1.72377 -0.84934,-4.77655 -1.88743,-6.78395 -1.03806,-2.00743 -4.39903,-5.3779 -7.46886,-7.49002 -3.0698,-2.11206 -10.24062,-6.09326 -15.93517,-8.84707 -5.69452,-2.75382 -10.5609,-4.79964 -10.81427,-4.54634 -0.25326,0.25325 0.6588,3.40648 2.02692,7.00708 1.36812,3.60059 4.79747,10.43475 7.6207,15.18703 2.82328,4.75222 6.37996,9.51371 7.9037,10.58095 1.52377,1.0673 5.06454,1.94054 7.86834,1.94054 2.80384,0 6.35521,-0.88065 7.89196,-1.95707 z M 278.0886,463.68383 c -1.24162,-1.23236 -1.38602,-1.08796 -0.70377,0.70375 0.47212,1.23987 1.17508,1.93764 1.56215,1.55053 0.38706,-0.38725 8e-4,-1.40147 -0.85838,-2.25428 z m 204.76488,-2.17911 c 0,-1.3829 -0.56572,-2.51439 -1.25717,-2.51439 -0.69145,0 -1.25717,1.13149 -1.25717,2.51439 0,1.38289 0.56572,2.51438 1.25717,2.51438 0.69145,0 1.25717,-1.13149 1.25717,-2.51438 z m -183.68623,-6.78543 c 4.70981,-4.42341 10.39732,-8.99098 12.63891,-10.15013 2.24158,-1.15918 3.88159,-2.27708 3.64447,-2.48421 -0.2371,-0.20716 -4.22989,0.0931 -8.87282,0.66727 -4.64294,0.57417 -11.31287,2.27908 -14.82208,3.7887 -3.50921,1.50961 -6.92354,3.75967 -7.58739,5.00007 -0.66386,1.24044 -1.20701,3.23798 -1.20701,4.43905 0,1.20104 0.93627,3.21831 2.08063,4.4828 1.14433,1.26448 2.86392,2.29904 3.8213,2.29904 0.95738,0 5.59418,-3.61916 10.30399,-8.04259 z m 177.15753,2.35203 c -0.38724,-0.38725 -1.09004,0.31075 -1.56216,1.55052 -0.68223,1.79172 -0.53783,1.93612 0.70375,0.70376 0.85918,-0.85281 1.24548,-1.86722 0.85841,-2.25428 z m -207.87475,-0.5087 c 0.39781,-0.6437 0.14834,-1.52568 -0.55439,-1.95997 -0.70273,-0.43429 -1.27769,0.0922 -1.27769,1.17031 0,1.07797 0.24944,1.95997 0.55439,1.95997 0.30492,0 0.87987,-0.52661 1.27769,-1.17031 z m 199.85603,-2.06247 c 1.08658,-1.08653 1.9756,-2.73746 1.9756,-3.66872 0,-0.93121 -0.35257,-2.61213 -0.78368,-3.73529 -0.43097,-1.12318 -2.89326,-3.1184 -5.47175,-4.43382 -2.57849,-1.31547 -8.3875,-3.03597 -12.90899,-3.82335 -4.52149,-0.78738 -9.5216,-1.24276 -11.11137,-1.01198 -2.59522,0.37679 -2.3307,0.78889 2.58949,4.03463 3.01396,1.98829 8.51836,6.08984 12.23189,9.11459 3.71359,3.02474 7.82098,5.49954 9.12761,5.49954 1.30659,0 3.26465,-0.88901 4.3512,-1.9756 z m -98.59238,-27.864 c 0.78158,-3.61996 1.23026,-8.14583 0.99702,-10.05747 -0.36492,-2.99139 -1.07908,-2.09012 -5.12484,6.46792 -2.58548,5.46903 -5.54455,12.78482 -6.57578,16.25726 -1.03123,3.47249 -1.82526,8.61529 -1.76454,11.42845 0.10975,5.09168 0.13495,5.06365 5.57876,-6.19978 3.00759,-6.22307 6.10784,-14.27643 6.88938,-17.89638 z m 24.55924,15.82375 c -1.10146,-4.29925 -4.80231,-12.9462 -8.22415,-19.2155 -5.34255,-9.78816 -6.226,-10.8536 -6.25295,-7.54101 -0.019,2.12171 0.85989,6.93044 1.94923,10.68607 1.08935,3.75564 4.62517,11.50034 7.85741,17.21047 3.23221,5.71014 6.05591,9.54841 6.27492,8.52944 0.21904,-1.01897 -0.50305,-5.37022 -1.60446,-9.66947 z m 92.35211,6.47276 c 0,-0.69144 -0.56572,-1.25722 -1.25717,-1.25722 -0.69145,0 -1.25717,0.56578 -1.25717,1.25722 0,0.69144 0.56572,1.25716 1.25717,1.25716 0.69145,0 1.25717,-0.56572 1.25717,-1.25716 z m -218.7499,-1.25722 c 0,-0.69144 -0.56573,-1.25716 -1.25718,-1.25716 -0.69146,0 -1.25719,0.56572 -1.25719,1.25716 0,0.69145 0.56573,1.25722 1.25719,1.25722 0.69145,0 1.25718,-0.56577 1.25718,-1.25722 z m 7.54309,-1.81157 c 0,-0.30506 -0.56573,-0.90404 -1.25718,-1.33134 -0.69144,-0.42717 -1.25717,-0.17771 -1.25717,0.55436 0,0.73226 0.56573,1.33139 1.25717,1.33139 0.69145,0 1.25718,-0.24946 1.25718,-0.55441 z m 16.90517,-1.50306 c 3.37753,-1.15088 8.40427,-4.33633 11.40728,-7.22883 3.29236,-3.17124 5.8927,-7.08891 6.72328,-10.12932 0.74495,-2.72697 1.22835,-5.07687 1.07423,-5.22207 -0.15414,-0.14539 -5.93755,0.80292 -12.85206,2.10699 -6.9145,1.30406 -13.86407,3.05277 -15.44346,3.88601 -1.5794,0.83323 -3.98376,3.31444 -5.34304,5.5138 -1.35926,2.19935 -2.4714,5.17283 -2.4714,6.60775 0,1.43498 1.25736,3.48969 2.7941,4.56607 1.53675,1.07641 3.98178,1.95707 5.43338,1.95707 1.45159,0 5.35656,-0.92589 8.67769,-2.05747 z m 195.55885,-4.30264 c 0,-0.65062 -0.56577,-1.18299 -1.25721,-1.18299 -0.69145,0 -1.25717,0.88199 -1.25717,1.95997 0,1.07798 0.56572,1.61035 1.25717,1.183 0.69144,-0.42717 1.25721,-1.30935 1.25721,-1.95998 z m -216.23556,-1.8858 c 0,-1.07799 -0.56574,-1.61029 -1.25718,-1.18295 -0.69145,0.42717 -1.25718,1.3093 -1.25718,1.95998 0,0.65063 0.56573,1.18295 1.25718,1.18295 0.69144,0 1.25718,-0.88199 1.25718,-1.95998 z m 50.70798,-1.33138 c 2.66971,-0.94195 9.40947,-4.4054 14.97724,-7.69658 5.56778,-3.29122 12.58341,-8.24694 15.59034,-11.01274 3.00688,-2.76583 6.32394,-7.15024 7.37124,-9.74321 1.15262,-2.85378 1.39144,-4.7144 0.6051,-4.7144 -0.71444,0 -4.82363,1.43681 -9.13144,3.19296 -6.90111,2.81329 -8.95357,3.0972 -17.26129,2.38751 -8.39542,-0.71716 -9.79605,-0.51517 -12.77885,1.84261 -2.04958,1.62018 -4.67079,6.18344 -6.75268,11.75578 -1.87149,5.00928 -4.47697,10.99805 -5.78993,13.30837 -2.38723,4.20065 -2.38723,4.20065 2.96452,3.29648 2.94346,-0.4973 7.53606,-1.67484 10.20575,-2.61678 z m 152.23733,1.31579 c 1.08658,-1.08658 1.97559,-3.41603 1.97559,-5.17662 0,-2.02668 -1.74163,-4.94267 -4.74718,-7.94827 -4.48485,-4.48481 -5.30122,-4.79113 -14.77193,-5.54251 -5.51357,-0.43761 -11.86336,-1.0277 -14.11056,-1.31176 -2.2472,-0.28414 -4.08582,-0.25087 -4.08582,0.0737 0,0.32453 0.78154,2.4605 1.73684,4.74676 0.95525,2.28626 3.6425,5.95075 5.97162,8.14326 2.32911,2.19252 7.06343,5.08304 10.52066,6.42336 3.45728,1.34026 8.36702,2.46639 10.91058,2.50241 2.60618,0.0379 5.48686,-0.79674 6.6002,-1.91009 z m 5.11852,0.7184 c 0.42717,-0.69146 0.1777,-1.25718 -0.55437,-1.25718 -0.73226,0 -1.33138,0.56572 -1.33138,1.25718 0,0.69145 0.24944,1.25717 0.55441,1.25717 0.30505,0 0.90404,-0.56572 1.33134,-1.25717 z m -36.85377,-7.22878 c -1.34881,-1.90154 -4.13189,-7.16878 -6.18462,-11.70505 -2.05271,-4.53626 -5.35804,-9.52659 -7.3451,-11.08961 -3.32971,-2.61915 -4.41958,-2.77468 -13.90487,-1.98459 -8.76553,0.73017 -11.53237,0.44476 -18.655,-1.92571 -4.59965,-1.53067 -8.6515,-2.49457 -9.00402,-2.14205 -0.35256,0.35257 0.24044,2.34571 1.31799,4.42921 1.07741,2.08352 4.37211,5.76275 7.32149,8.17601 2.94939,2.41333 9.70967,6.73039 15.02281,9.59353 5.3132,2.86316 12.66771,6.28779 16.34341,7.61025 3.67572,1.32251 9.126,2.42496 12.11173,2.4499 5.42861,0.0476 5.42861,0.0476 2.97618,-3.41189 z m -179.15155,-0.55004 c -0.4013,-1.00292 -0.69922,-0.705 -0.75954,0.75953 -0.0545,1.3253 0.24256,2.06783 0.66028,1.65007 0.41777,-0.41766 0.46244,-1.50206 0.0994,-2.4096 z m 7.94149,-0.64432 c 0,-2.52817 -0.3634,-3.03097 -1.42412,-1.97028 -0.78327,0.78329 -1.08388,2.31073 -0.66805,3.39442 0.41586,1.08364 1.05669,1.97027 1.42412,1.97027 0.36745,0 0.66805,-1.52747 0.66805,-3.39441 z m 209.55126,0.64432 c -0.40151,-1.00292 -0.69924,-0.705 -0.75958,0.75953 -0.0546,1.3253 0.2428,2.06783 0.66032,1.65007 0.41766,-0.41766 0.46232,-1.50206 0.0994,-2.4096 z m 0.39818,-7.30738 c 0,-1.3829 -0.56572,-2.51438 -1.25718,-2.51438 -0.69148,0 -1.25721,1.13148 -1.25721,2.51438 0,1.38289 0.56573,2.51438 1.25721,2.51438 0.69146,0 1.25718,-1.13149 1.25718,-2.51438 z m 5.88751,-0.23567 c -0.4015,-1.00292 -0.69919,-0.705 -0.75953,0.75952 -0.0547,1.32531 0.2428,2.06784 0.66027,1.65008 0.41766,-0.41766 0.46233,-1.50205 0.0994,-2.4096 z m -216.87902,-1.84489 c 1.26448,-1.14437 2.29907,-2.84153 2.29907,-3.77156 0,-0.93002 -0.77934,-1.69093 -1.73185,-1.69093 -0.95251,0 -2.27903,0.70717 -2.9478,1.57148 -0.66878,0.86431 -1.56889,2.56152 -2.00025,3.77155 -0.45178,1.26729 -0.17671,2.20006 0.64873,2.20006 0.78817,0 2.46762,-0.93629 3.7321,-2.0806 z m 39.96713,-1.86281 c 2.38254,-0.83053 4.81992,-3.26081 6.77041,-6.75059 3.04766,-5.45289 3.04766,-5.45289 -3.21128,-6.31372 -3.44244,-0.47326 -9.82305,-0.47915 -14.17913,-0.0142 -4.35609,0.4666 -9.8016,1.85718 -12.10113,3.09045 -2.33758,1.25366 -4.89913,4.00234 -5.80989,6.23434 -1.51437,3.71129 -1.42874,4.07803 1.21722,5.21345 1.56539,0.67173 7.51376,0.90973 13.21861,0.5289 5.70485,-0.38061 12.04767,-1.27642 14.09519,-1.99019 z m 157.50966,-4.40684 c 1.21004,-0.34068 2.20007,-1.35367 2.20007,-2.251 0,-0.89734 -1.14033,-3.08115 -2.53406,-4.853 -1.39369,-1.77181 -4.58919,-3.89975 -7.10111,-4.72875 -2.89479,-0.95535 -9.10926,-1.28858 -16.97147,-0.90997 -6.82239,0.32833 -12.70158,0.89452 -13.06489,1.25783 -0.3635,0.36302 0.52001,2.66134 1.96286,5.10683 1.44287,2.44548 3.58735,4.8867 4.76554,5.42494 1.17814,0.53832 6.38514,1.34831 11.57098,1.80004 5.18591,0.45188 11.12608,0.58534 13.20046,0.29698 2.07434,-0.28841 4.76159,-0.80315 5.97162,-1.14384 z m 16.0664,-2.89469 c -0.76064,-1.42124 -2.49452,-2.58408 -3.85309,-2.58408 -1.35862,0 -2.47014,0.52465 -2.47014,1.16593 0,0.64127 1.54221,2.37906 3.42716,3.86178 1.88498,1.48268 3.61887,2.12086 3.85308,1.41811 0.23425,-0.70272 -0.19624,-2.4405 -0.95701,-3.86174 z m -132.85758,-7.73763 c 2.66276,-0.71369 4.63405,-1.50491 4.3807,-1.75827 -0.25327,-0.25326 -4.41201,0.048 -9.24144,0.67006 -4.82949,0.62193 -12.45813,1.23422 -16.95256,1.36072 -8.09725,0.22807 -8.12015,0.23852 -2.51436,1.17606 3.11153,0.52038 8.76885,0.69927 12.57183,0.39769 3.80298,-0.30172 9.09311,-1.13243 11.75583,-1.84612 z m 67.44671,-1.0682 c 4.38727,-0.78062 2.55274,-0.99959 -8.17168,-0.97516 -9.90856,0.0238 -12.22519,0.28081 -8.17168,0.91102 3.1115,0.48371 6.78879,0.92255 8.17168,0.97516 1.38289,0.0528 5.06018,-0.35732 8.17168,-0.91102 z m -119.07022,-6.99472 c 5.38509,-1.71978 12.80383,-3.1269 16.4861,-3.1269 3.68224,0 9.74232,0.58364 13.46681,1.29694 3.72451,0.71329 11.88922,1.35765 18.14386,1.43193 7.89057,0.0936 12.47278,-0.4419 14.9676,-1.74891 3.59555,-1.88391 3.59555,-1.88391 -0.84983,-2.71784 -2.44501,-0.45854 -8.04896,-3.16938 -12.45326,-6.0238 -4.40432,-2.85441 -11.36363,-6.78238 -15.46518,-8.7288 -4.10154,-1.94644 -9.80561,-3.89111 -12.67571,-4.3215 -3.31243,-0.49673 -7.70582,-0.0427 -12.02899,1.24895 -3.74584,1.11728 -11.82733,2.55421 -17.95885,3.1931 -7.15306,0.74538 -11.9558,1.89249 -13.40167,3.20099 -1.23938,1.12164 -2.58808,3.37278 -2.99713,5.00253 -0.40907,1.62973 -0.1377,4.55717 0.60303,6.5054 0.7407,1.94818 2.24365,4.53323 3.33986,5.74454 1.20227,1.32849 3.78643,2.19604 6.5127,2.18634 2.48578,-0.0106 8.92558,-1.42314 14.31066,-3.14297 z m -33.2855,-3.45562 c 0.31174,-1.6189 -0.41801,-2.18566 -2.81423,-2.18566 -1.85783,0 -3.23514,0.71363 -3.23514,1.67625 0,0.92194 0.39671,2.07296 0.88159,2.5578 0.48486,0.48491 1.75127,0.71412 2.81421,0.50943 1.06296,-0.2048 2.12207,-1.35572 2.35357,-2.55782 z m 151.66348,-0.95568 c 6.18799,-1.36792 14.68535,-2.48715 18.88296,-2.48715 4.19768,0 11.83467,1.1646 16.97111,2.58799 5.13648,1.42337 10.65855,2.25679 12.27129,1.852 1.61272,-0.40483 4.04404,-2.55938 5.40289,-4.78804 1.35885,-2.22862 2.4728,-5.2787 2.47538,-6.77792 0.002,-1.4992 -0.34687,-3.64165 -0.77628,-4.76096 -0.42952,-1.11928 -2.38147,-2.86278 -4.33769,-3.87438 -1.95622,-1.01161 -6.48488,-1.83927 -10.0637,-1.83927 -3.57878,0 -11.7871,-0.90005 -18.24063,-2.00008 -9.43625,-1.60846 -12.61899,-1.7079 -16.25503,-0.5079 -2.48678,0.82068 -10.76209,5.68087 -18.38968,10.80035 -7.62758,5.11951 -14.34795,9.30821 -14.9341,9.30821 -0.58619,0 -2.6584,0.62806 -4.60492,1.39562 -3.28836,1.2968 -3.36097,1.46865 -1.02472,2.426 1.3829,0.56672 6.75738,1.05789 11.94323,1.09154 5.18591,0.0332 14.49182,-1.05809 20.67989,-2.42601 z m -50.85228,-3.86862 c 0,-0.75983 -0.9113,-3.302 -2.02517,-5.64929 -1.11385,-2.3473 -9.74131,-11.72427 -19.17206,-20.83771 -9.43076,-9.11344 -19.92147,-18.76343 -23.31267,-21.4444 -3.3912,-2.68103 -8.19993,-5.73747 -10.68605,-6.79207 -2.48614,-1.05466 -8.6218,-2.23884 -13.63482,-2.63157 -5.01303,-0.39294 -9.11458,-0.43001 -9.11458,-0.0828 0,0.34734 2.01891,4.50466 4.48647,9.23874 2.98544,5.72763 6.03485,9.63279 9.11458,11.67234 2.54546,1.68576 5.96869,4.25735 7.60719,5.71465 1.63849,1.45732 4.30143,4.72145 5.91761,7.2536 2.20639,3.45681 4.70902,5.26629 10.04449,7.26257 3.90828,1.46229 13.56298,6.03786 21.45489,10.168 7.8919,4.13011 15.46746,7.50932 16.83454,7.50932 1.36706,0 2.48558,-0.62164 2.48558,-1.38146 z m 30.17239,-5.9531 c 3.803,-2.66149 12.71327,-7.80979 19.80065,-11.44065 7.08738,-3.6309 12.88613,-7.28633 12.88613,-8.12318 0,-0.83679 1.6619,-3.75444 3.6931,-6.48359 2.03121,-2.72915 6.21353,-6.65313 9.29405,-8.71991 4.53423,-3.0422 5.98982,-4.99152 7.64284,-10.23553 1.12302,-3.56272 2.88092,-7.174 3.9064,-8.02504 1.02544,-0.85106 1.86446,-2.04385 1.86446,-2.65061 0,-0.60684 -2.44309,-1.10327 -5.42912,-1.10327 -2.98603,0 -8.48605,0.90778 -12.22225,2.01731 -3.7362,1.10954 -9.18138,3.66055 -12.10047,5.6689 -2.91907,2.00839 -8.59224,7.4274 -12.60712,12.04221 -4.01488,4.61486 -11.21967,12.67137 -16.0107,17.90329 -4.791,5.23195 -10.3069,12.02778 -12.2575,15.10179 -1.95066,3.07408 -3.54666,6.85328 -3.54666,8.39824 0,2.56904 0.34924,2.70996 4.08586,1.64913 2.2472,-0.63799 7.19738,-3.33754 11.00033,-5.99909 z m 90.92469,4.31453 c 0.37205,-0.96961 0.33832,-2.10105 -0.075,-2.51439 -0.41339,-0.41338 -1.75529,-0.7515 -2.98213,-0.7515 -1.22686,0 -2.5803,0.56576 -3.00765,1.2572 -0.42717,0.69145 -0.42717,1.8229 0,2.51435 0.42716,0.69143 1.81453,1.2572 3.08268,1.2572 1.2681,0 2.61008,-0.79332 2.98213,-1.76286 z M 257.81747,380.4904 c 0,-0.30506 -0.56573,-0.90404 -1.25718,-1.3314 -0.69145,-0.42716 -1.25718,-0.17769 -1.25718,0.55442 0,0.73226 0.56573,1.33139 1.25718,1.33139 0.69145,0 1.25718,-0.24946 1.25718,-0.55441 z M 268.91,378.11194 c 0.22889,-1.18013 -0.39047,-2.0959 -1.41753,-2.0959 -1.00323,0 -2.48264,0.79361 -3.28763,1.76354 -1.1239,1.35424 -1.08668,1.91345 0.16037,2.40961 0.89318,0.35543 2.18969,0.5049 2.88114,0.33261 0.69145,-0.17248 1.4401,-1.25687 1.66366,-2.40961 z m 29.16513,-5.12587 c 7.05153,-1.66647 13.39609,-3.60511 14.09907,-4.3081 0.70296,-0.70294 0.91961,-2.5924 0.48146,-4.1988 -0.43819,-1.60642 -2.86393,-4.47649 -5.39058,-6.37799 -3.97731,-2.99324 -5.75753,-3.45722 -13.26362,-3.45722 -4.76834,0 -11.19784,0.63656 -14.28778,1.41463 -3.24392,0.81684 -6.64479,2.71994 -8.04771,4.50343 -1.75314,2.22877 -2.22108,4.19778 -1.68059,7.07137 0.41199,2.19037 1.60768,4.97255 2.65712,6.18259 1.25923,1.45198 3.7279,2.20006 7.25988,2.20006 2.9435,0 11.12124,-1.36345 18.17275,-3.02997 z m 185.72732,-1.05584 c -0.28462,-0.86431 -1.7461,-1.75229 -3.24768,-1.97324 -1.50164,-0.22094 -2.7302,0.10888 -2.7302,0.73337 0,0.6243 0.37727,1.51222 0.83812,1.97322 0.46091,0.4609 1.92244,0.83813 3.2477,0.83813 1.3656,0 2.18537,-0.68091 1.89206,-1.57148 z m 9.10832,0.31407 c 0,-0.69144 -0.24946,-1.25716 -0.55442,-1.25716 -0.30504,0 -0.90403,0.56572 -1.33138,1.25716 -0.42717,0.69144 -0.17771,1.25722 0.55441,1.25722 0.73227,0 1.33139,-0.56578 1.33139,-1.25722 z m -241.14874,-4.04391 c -0.90209,-0.90213 -1.48765,-0.97636 -1.48765,-0.18864 0,0.71449 0.37712,1.67626 0.83811,2.13721 0.46094,0.46089 1.13042,0.5458 1.48767,0.18865 0.35722,-0.35734 -0.02,-1.31899 -0.83813,-2.13722 z m 13.34289,0.0656 c 0.23682,-1.24306 -0.67567,-2.43361 -2.24755,-2.93252 -1.47471,-0.46804 -3.46119,-0.16346 -4.48714,0.68798 -1.43074,1.1874 -1.51183,1.92442 -0.36397,3.30751 0.81233,0.97877 2.65217,1.61087 4.08851,1.40465 1.43634,-0.20621 2.79091,-1.31666 3.01017,-2.46762 z m 209.50541,-1.33002 c 1.07636,-1.53674 1.94837,-4.78972 1.93778,-7.22883 -0.0106,-2.43907 -0.44617,-5.10644 -0.96847,-5.92751 -0.52204,-0.82109 -2.38884,-2.04019 -4.14839,-2.70916 -1.75955,-0.66897 -6.36272,-1.61158 -10.2293,-2.09468 -3.86654,-0.48308 -9.41132,-0.47606 -12.3217,0.0142 -3.43795,0.58084 -7.00208,2.43932 -10.17437,5.30527 -2.9854,2.69712 -4.88275,5.53784 -4.88275,7.31042 0,2.15919 1.04288,3.23956 4.08587,4.23273 2.2472,0.73341 7.19737,1.84261 11.00032,2.46488 3.80302,0.62225 10.70114,1.19747 15.32921,1.27835 7.36164,0.12877 8.65962,-0.20289 10.3718,-2.64714 z m 15.15747,-6.61758 c 0,-1.40409 -0.98941,-2.68768 -2.26046,-2.93248 -1.24325,-0.23947 -3.0819,0.24661 -4.08587,1.07965 -1.00396,0.83319 -1.82535,2.33007 -1.82535,3.32642 0,1.28639 1.18428,1.69731 4.08582,1.41753 3.10614,-0.29933 4.08586,-0.99274 4.08586,-2.89112 z m 6.91453,0.46279 c 0,-0.69143 -0.56572,-0.90754 -1.25718,-0.48019 -0.69149,0.42717 -1.25721,1.34274 -1.25721,2.03419 0,0.69145 0.56572,0.9075 1.25721,0.4802 0.69146,-0.42716 1.25718,-1.34275 1.25718,-2.0342 z m -238.33909,-3.12904 c 1.09372,-0.41956 1.9886,-1.26834 1.9886,-1.8858 0,-0.61747 -1.41433,-1.12265 -3.14296,-1.12265 -1.72863,0 -3.14295,0.47135 -3.14295,1.04762 0,0.57623 0.37712,1.4248 0.8381,1.8858 0.46095,0.46091 0.98045,0.83813 1.15438,0.83813 0.1739,0 1.21111,-0.34354 2.30483,-0.7631 z m 28.8182,-5.58384 c 3.34734,-0.87286 6.369,-2.32437 6.71482,-3.22555 0.34582,-0.90114 -0.005,-3.55868 -0.77954,-5.90561 -0.77454,-2.34691 -2.6711,-5.45346 -4.21456,-6.9035 -1.54347,-1.44999 -5.06288,-2.97386 -7.82091,-3.3863 -3.55532,-0.53173 -6.27651,-0.0927 -9.35086,1.50862 -2.80372,1.46035 -4.67095,3.54519 -5.28332,5.89912 -0.59847,2.30046 -0.30761,5.17097 0.7902,7.7984 1.2442,2.9778 2.92216,4.49558 5.91191,5.34764 2.29605,0.65439 5.02323,1.02424 6.06041,0.82197 1.03718,-0.20242 4.6245,-1.08193 7.97185,-1.95479 z m 205.46123,-3.47482 c 0.27512,-0.82463 -0.64155,-1.49289 -2.04729,-1.49289 -1.39971,0 -2.86472,0.51741 -3.25558,1.14978 -0.39106,0.63239 9e-5,1.43388 0.86868,1.78103 0.86863,0.34735 2.10969,0.50152 2.75794,0.34306 0.64822,-0.15822 1.40252,-0.9599 1.67625,-1.78102 z M 258.8357,344.35651 c 0.28306,-2.45013 -0.38164,-3.78546 -2.43013,-4.88179 -2.42763,-1.29923 -3.1349,-1.11995 -5.08584,1.28937 -1.75342,2.16539 -1.96666,3.35788 -0.94256,5.27143 0.91552,1.71066 2.36314,2.35288 4.69619,2.08332 2.60174,-0.30077 3.46177,-1.16061 3.76234,-3.76233 z m 213.79907,2.61189 c 2.19214,-0.7642 4.53945,-2.42421 5.21632,-3.68892 0.67685,-1.26473 1.23064,-4.25408 1.23064,-6.64302 0,-2.38889 -1.0433,-5.63193 -2.31843,-7.20668 -1.78003,-2.19822 -3.60952,-2.86316 -7.87765,-2.86316 -3.05757,0 -7.24214,0.80659 -9.29903,1.79243 -2.05691,0.98586 -4.39416,3.20166 -5.19385,4.92401 -0.79968,1.72233 -1.82226,4.89006 -2.27233,7.03943 -0.80045,3.82238 -0.67264,3.95082 5.84266,5.87021 3.6636,1.07923 7.56667,2.00792 8.6735,2.06371 1.10687,0.0556 3.80604,-0.52387 5.99817,-1.28801 z m -226.76054,-3.63937 c 0.42736,-0.69145 -0.10496,-1.25721 -1.183,-1.25721 -1.07796,0 -1.95996,0.56576 -1.95996,1.25721 0,0.69145 0.53234,1.25717 1.18298,1.25717 0.65066,0 1.53264,-0.56572 1.95998,-1.25717 z m 248.0423,-4.02301 c 0.82972,-0.82977 1.50862,-2.7493 1.50862,-4.26562 0,-1.51637 -0.92832,-3.11326 -2.06289,-3.54865 -1.13463,-0.43524 -3.0536,-0.47716 -4.26443,-0.0927 -1.21083,0.3844 -2.47147,1.73109 -2.80143,2.99291 -0.33022,1.26177 -0.0803,3.22308 0.55532,4.35847 0.63538,1.13542 2.14548,2.06436 3.35569,2.06436 1.21028,0 2.87936,-0.67891 3.70912,-1.50862 z m -254.95681,-0.22333 c 0,-0.26085 -0.84859,-1.17891 -1.88578,-2.03969 -1.54446,-1.28179 -1.88577,-1.19589 -1.88577,0.47467 0,1.12185 0.8486,2.03976 1.88577,2.03976 1.03719,0 1.88578,-0.21382 1.88578,-0.47469 z m 7.5431,-5.18266 c 0,-1.03717 -0.83084,-1.88575 -1.84632,-1.88575 -1.12467,0 -1.56347,0.73706 -1.12268,1.88575 0.39799,1.03717 1.22884,1.8858 1.84633,1.8858 0.61746,0 1.12267,-0.84863 1.12267,-1.8858 z m 255.8368,0.62857 c -0.42716,-0.69143 -1.30929,-1.25715 -1.95998,-1.25715 -0.65063,0 -1.18294,0.56572 -1.18294,1.25715 0,0.69146 0.88199,1.25723 1.95997,1.25723 1.07794,0 1.61031,-0.56577 1.18295,-1.25723 z m -243.47317,-3.2643 c 1.79578,-1.25784 2.72159,-3.01792 2.47981,-4.71445 -0.29978,-2.10334 -1.3833,-2.79108 -4.85697,-3.08296 -2.45913,-0.2067 -5.99496,0.20384 -7.8574,0.91177 -1.86244,0.70808 -3.38625,1.86717 -3.38625,2.57573 0,0.7086 1.13146,2.41978 2.51437,3.80267 1.38289,1.3829 3.80282,2.51439 5.37758,2.51439 1.57478,0 4.15277,-0.90324 5.72886,-2.00715 z m 250.482,-2.11012 c -0.0518,-0.5013 -0.50446,-0.95388 -1.00576,-1.00577 -0.50128,-0.0518 -1.13776,0.58458 -1.41435,1.41435 -0.27654,0.82971 0.1758,1.2823 1.00576,1.00576 0.82973,-0.27654 1.46619,-0.91306 1.41435,-1.41434 z m -271.01732,-2.15142 c 0,-1.02771 -1.05012,-2.07082 -2.33361,-2.31799 -1.28348,-0.24709 -2.9031,0.12018 -3.59915,0.81612 -0.69605,0.69605 -0.86545,1.91293 -0.37642,2.70416 0.48902,0.79122 2.10863,1.26486 3.59914,1.05242 1.49054,-0.2124 2.71005,-1.22704 2.71005,-2.25471 z m 45.34548,-0.15775 c 0.4751,-0.76876 0.0842,-1.89155 -0.86871,-2.4951 -0.9529,-0.60358 -3.53778,-1.10606 -5.74419,-1.11665 -2.20641,-0.0106 -4.33143,0.4982 -4.72228,1.13058 -0.3908,0.63239 0.84868,1.71921 2.75449,2.41513 1.90578,0.69591 4.42172,1.30995 5.59095,1.36454 1.16923,0.0546 2.5146,-0.52975 2.98974,-1.2985 z m 24.4282,-0.43524 c 0,-0.31646 -2.40437,-1.97503 -5.34304,-3.68554 -2.93865,-1.71048 -7.04022,-3.51028 -9.11457,-3.99954 -3.77155,-0.88964 -3.77155,-0.88964 -0.39775,1.82536 1.85558,1.49322 5.24997,3.52993 7.5431,4.52594 2.29312,0.99604 4.87647,1.83312 5.74078,1.8602 0.86432,0.0285 1.57148,-0.21001 1.57148,-0.52642 z m 193.60623,-1.31015 c 0,-1.03718 -0.56573,-1.8858 -1.25717,-1.8858 -0.69145,0 -1.25717,0.84862 -1.25717,1.8858 0,1.03716 0.56572,1.88575 1.25717,1.88575 0.69144,0 1.25717,-0.84859 1.25717,-1.88575 z m -5.49015,-2.56726 c 2.63712,-2.63712 2.92112,-3.5269 1.62446,-5.08932 -1.07475,-1.29498 -3.35354,-1.77493 -7.21006,-1.51854 -3.80871,0.25325 -6.08846,1.11439 -7.02461,2.65364 -1.12659,1.85236 -0.83052,2.73468 1.58194,4.71445 1.6324,1.33957 4.06248,2.43561 5.40019,2.43561 1.33776,0 3.87039,-1.43816 5.62808,-3.19584 z m -50.3718,-3.19281 c 2.11986,-1.28174 4.92143,-3.50966 6.22577,-4.95089 2.36073,-2.60861 2.35602,-2.61461 -1.03417,-1.32569 -1.87306,0.71215 -4.95887,2.09805 -6.85731,3.07977 -1.89839,0.98172 -4.58179,3.0495 -5.96305,4.59508 -2.5114,2.81017 -2.5114,2.81017 0.63157,1.87117 1.72861,-0.51649 4.87733,-1.98773 6.99719,-3.26944 z M 230.15944,320.66 c 0,-0.71316 -0.873,-1.63164 -1.94,-2.04108 -1.06699,-0.40959 -2.25511,-0.42954 -2.64026,-0.0427 -0.38516,0.38534 -0.32733,1.30362 0.12843,2.04107 0.45578,0.73749 1.6439,1.34085 2.64027,1.34085 0.99636,0 1.81157,-0.5835 1.81157,-1.29667 z m 239.39485,-0.14445 c 1.73951,-0.79257 2.86419,-1.92405 2.49932,-2.51438 -0.36493,-0.59034 -2.54075,-1.07333 -4.83538,-1.07333 -2.29458,0 -4.80212,0.75921 -5.5722,1.68714 -0.77013,0.92793 -1.028,2.05937 -0.57298,2.51437 0.45519,0.45521 1.83775,0.82721 3.07288,0.82721 1.23512,0 3.66886,-0.64845 5.40836,-1.44101 z m -196.10344,-0.94162 c 0.38254,-0.61904 -0.19605,-1.4676 -1.28581,-1.8858 -1.08976,-0.41813 -3.70158,-0.76029 -5.80403,-0.76029 -3.2554,0 -3.59042,0.27987 -2.25762,1.88575 0.86078,1.03717 3.15959,1.8858 5.10848,1.8858 1.94887,0 3.85642,-0.50646 4.23898,-1.12546 z m 239.30942,-1.54501 c 0.21381,-1.12308 -0.53855,-2.39778 -1.67207,-2.83279 -1.13354,-0.43477 -2.57564,-0.47277 -3.2047,-0.0841 -0.62906,0.38869 -1.1437,1.84428 -1.1437,3.23449 0,1.89924 0.69995,2.42771 2.81583,2.12584 1.54867,-0.22095 2.99076,-1.32054 3.20464,-2.44357 z M 255.9051,316.71117 c 1.77906,-0.81057 3.02195,-2.08347 2.76199,-2.82866 -0.27469,-0.78737 -3.68995,-1.30511 -8.15403,-1.23616 -4.22474,0.0651 -8.55254,0.84174 -9.61733,1.72543 -1.06481,0.8837 -1.93601,2.10318 -1.93601,2.70996 0,0.60682 3.08491,1.10327 6.85535,1.10327 3.77045,0 8.31096,-0.66323 10.09003,-1.47384 z m -22.6089,-2.29539 c 1.81525,-0.69011 2.95016,-1.8216 2.52201,-2.51433 -0.42811,-0.69278 -2.44224,-1.25954 -4.47579,-1.25954 -2.243,0 -3.69734,0.65932 -3.69734,1.67625 0,0.92189 0.37712,2.05339 0.83811,2.51433 0.46094,0.46091 0.98987,0.83813 1.17534,0.83813 0.18545,0 1.82243,-0.56467 3.63767,-1.25484 z m 42.12184,-0.63091 c 0,-1.03717 -1.16682,-3.0526 -2.59294,-4.47872 -1.42612,-1.42614 -3.26475,-2.37183 -4.08585,-2.10162 -0.8211,0.27037 -1.67415,1.72344 -1.89565,3.22935 -0.28073,1.90827 0.48122,3.09241 2.51437,3.90768 1.60442,0.64332 3.62428,1.20557 4.48859,1.24938 0.86431,0.0427 1.57148,-0.7689 1.57148,-1.80607 z m 203.83874,-1.84393 c 2.96792,-2.47258 2.96792,-2.47258 0.22095,-2.51439 -1.51076,-0.0238 -4.23202,0.52287 -6.04727,1.21299 -1.81523,0.69015 -2.95014,1.82164 -2.52202,2.51438 0.42811,0.69273 1.81385,1.25954 3.07933,1.25954 1.2655,0 3.63647,-1.11263 5.26887,-2.47252 z m -193.07867,-0.71042 c -1.3422,-1.01521 -3.2501,-1.84578 -4.23979,-1.84578 -1.45693,0 -1.50155,0.35874 -0.23433,1.88575 0.86077,1.03716 2.76867,1.86778 4.23977,1.84579 2.62227,-0.038 2.62685,-0.0761 0.23435,-1.88576 z m 232.85982,-1.65158 c 0.36017,-1.08194 -0.24424,-1.535 -1.67745,-1.25717 -1.23236,0.239 -2.49413,1.19554 -2.80389,2.1259 -0.36017,1.08196 0.24423,1.53503 1.6774,1.2572 1.23237,-0.239 2.49414,-1.19558 2.80394,-2.12593 z m -265.93489,-1.64437 c 1.21003,-0.63396 2.20007,-1.98136 2.20007,-2.9942 0,-1.39068 -1.6677,-1.84156 -6.8117,-1.84156 -3.74642,0 -7.70654,0.34354 -8.80027,0.7631 -1.09374,0.41956 -1.9886,1.56939 -1.9886,2.55485 0,0.98549 1.2729,2.30974 2.82866,2.94284 1.55576,0.63305 4.52587,0.83077 6.60022,0.43952 2.07435,-0.39152 4.76158,-1.23042 5.97162,-1.86436 z m 249.86521,1.40703 c 1.63221,-1.0922 1.55766,-1.51219 -0.5546,-3.12373 -1.42276,-1.08549 -5.09234,-1.85387 -8.80026,-1.84266 -3.49796,0.0106 -7.0939,0.48485 -7.99093,1.0539 -1.33653,0.84782 -1.33653,1.27384 0,2.35981 0.89703,0.72889 2.76245,1.60337 4.14534,1.94326 1.3829,0.33973 4.49446,0.675 6.91453,0.74466 2.42006,0.0695 5.24871,-0.44142 6.28592,-1.13524 z m -28.69994,-2.03753 c 1.26449,-1.14431 2.29909,-3.12438 2.29909,-4.40012 0,-1.27576 -0.80757,-2.31954 -1.79456,-2.31954 -0.98701,0 -2.96702,1.49067 -4.40015,3.31251 -1.43306,1.8219 -2.60562,3.80196 -2.60562,4.40014 0,0.59822 0.94552,1.08768 2.10111,1.08768 1.15558,0 3.13564,-0.9363 4.40013,-2.08067 z m -12.01308,-1.92628 c 0.40435,-0.65399 0.44379,-1.48015 0.0878,-1.83589 -0.3559,-0.3559 -1.82674,-0.0142 -3.26884,0.75649 -1.44214,0.77179 -2.62206,1.89611 -2.62206,2.4985 0,0.6024 1.14028,0.79708 2.53397,0.4324 1.39368,-0.36445 2.86467,-1.19773 3.26883,-1.85169 z m -238.72221,0.73303 c -0.41774,-0.41766 -1.50206,-0.46232 -2.40958,-0.0994 -1.00291,0.40151 -0.70501,0.69923 0.75954,0.75952 1.32528,0.0546 2.0678,-0.24231 1.65004,-0.66027 z m 39.31319,-0.49763 c 0,-0.69145 -0.84861,-1.25722 -1.88578,-1.25722 -1.03718,0 -1.88578,0.56577 -1.88578,1.25722 0,0.69145 0.8486,1.25718 1.88578,1.25718 1.03717,0 1.88578,-0.56573 1.88578,-1.25718 z m 11.31465,0 c -1.03718,-0.6703 -2.45151,-1.21867 -3.14296,-1.21867 -0.69145,0 -0.40858,0.54837 0.62859,1.21867 1.03718,0.67025 2.45151,1.21868 3.14296,1.21868 0.69145,0 0.40859,-0.54843 -0.62859,-1.21868 z m 242.0755,-1.36673 c 0.46471,-0.75172 0.25658,-1.9549 -0.46232,-2.67376 -0.71887,-0.71887 -2.76275,-0.94166 -4.54202,-0.49511 -1.77927,0.44665 -3.235,1.64973 -3.235,2.67375 0,1.22229 1.27008,1.86185 3.69733,1.86185 2.03357,0 4.0775,-0.61504 4.54206,-1.36673 z m -281.41525,-2.87921 c -0.25845,-0.77627 -1.47313,-1.6059 -2.69932,-1.84361 -1.22618,-0.23758 -2.87177,0.21002 -3.65685,0.99526 -1.06513,1.0651 -0.99591,1.69413 0.27268,2.47817 0.93507,0.57789 2.79211,0.7652 4.12675,0.41624 1.33462,-0.34923 2.21516,-1.26971 1.95674,-2.04597 z m 269.90483,-2.39009 c 1.06954,-1.72629 0.95545,-2.50982 -0.50052,-3.43799 -1.03718,-0.66118 -4.04449,-1.21079 -6.68289,-1.22139 -2.63839,-0.0106 -5.89136,0.56639 -7.22877,1.28216 -1.33747,0.71577 -2.43171,1.86547 -2.43171,2.55487 0,0.6894 1.2729,1.7787 2.82865,2.42059 1.55575,0.64194 5.03395,1.048 7.72936,0.90236 3.12653,-0.16867 5.4022,-1.07418 6.28588,-2.5006 z m -31.93009,-1.62413 c 0,-0.34592 -1.13149,-0.0238 -2.51438,0.71706 -1.3829,0.74011 -2.5144,1.6285 -2.5144,1.97422 0,0.34591 1.1315,0.0238 2.5144,-0.71705 1.38289,-0.74011 2.51438,-1.62851 2.51438,-1.97423 z m 11.31465,0.71706 c 0,-0.69146 -0.84863,-1.25722 -1.8858,-1.25722 -1.03716,0 -1.88576,0.56576 -1.88576,1.25722 0,0.69145 0.8486,1.25717 1.88576,1.25717 1.03717,0 1.8858,-0.56572 1.8858,-1.25717 z m -240.75064,-2.51438 c -0.42735,-0.69145 -2.15792,-1.25717 -3.84574,-1.25717 -1.68783,0 -3.06877,0.56572 -3.06877,1.25717 0,0.69144 1.73059,1.25716 3.84576,1.25716 2.24369,0 3.52206,-0.52372 3.06875,-1.25716 z m 279.38282,0.49763 c -0.41766,-0.41766 -1.50208,-0.46233 -2.40962,-0.0994 -1.00286,0.4015 -0.70499,0.69924 0.75959,0.75953 1.32526,0.0547 2.06778,-0.24232 1.65003,-0.66027 z m -8.69911,-3.95488 c -0.23283,-1.21007 -1.5397,-2.2001 -2.90364,-2.2001 -1.36399,0 -2.67061,0.99003 -2.90363,2.2001 -0.3174,1.64785 0.41149,2.20008 2.90363,2.20008 2.49215,0 3.22094,-0.55223 2.90364,-2.20008 z m -7.9324,-5.34302 c 0.43905,-0.71008 -0.59081,-1.25722 -2.36595,-1.25722 -1.72866,0 -3.49262,0.56572 -3.91994,1.25722 -0.43903,0.71002 0.59081,1.25717 2.36595,1.25717 1.72866,0 3.49264,-0.56572 3.91994,-1.25717 z"
       id="path1"
       sodipodi:nodetypes="scsssssssssssssssssssssssssssssscssssssssssssssssssssscsssssssssscssssssssssssscsssssssssssscsssssssssssssssssscsssscscssssssssssssscssssssssscsssscscsssscsscsscssscssssssssssssssssssssssssssssssssssssssssscssssssssscsssssssssssssssssssssssssssssssssssssssssscssscsssssssssssssssssssssssssssssssssssssssssssssssssssssssssscssssssssssssssssssssssssssssssssssssssssssssssssssssssscssssscssssssscsssssssssccssssssssssssssssssssscssssssssscsccssscccssssccssssssssssssssscssssscssssssscsssscssssscsssssssssssssssssssssscsssssscsssssssssssssssssssssssssssssssssssscssssssscsssssssssssssssssssssssssssssssssssscccsscsssssccssssssscsssssssssssscsssssssssssscsssssscsssssssssscssssssssssccssssssssssssssssssssssssssssssssssssssssscssssssssscssssssssssssssssssssssscsssssssssssssssssccsssccsscsssssssssssssssscsscsssssssscsssssscsssssccccscsssccssssssscscscccscsssssssssssssssssssssscscsssscssscsscscsssssssssssscssscsssccscsc"
       inkscape:export-filename="..\..\..\path1.svg"
       inkscape:export-xdpi="96"
       inkscape:export-ydpi="96" />
  </g>
</svg>
