<?xml version="1.0" encoding="UTF-8" standalone="no"?>
<!-- Created with Inkscape (http://www.inkscape.org/) -->

<svg
   version="1.1"
   id="svg1"
   width="1164.4641"
   height="1147.7338"
   viewBox="0 0 1164.4641 1147.7338"
   sodipodi:docname="Sin título-1.jpg"
   xmlns:inkscape="http://www.inkscape.org/namespaces/inkscape"
   xmlns:sodipodi="http://sodipodi.sourceforge.net/DTD/sodipodi-0.dtd"
   xmlns="http://www.w3.org/2000/svg"
   xmlns:svg="http://www.w3.org/2000/svg">
  <defs
     id="defs1" />
  <sodipodi:namedview
     id="namedview1"
     pagecolor="#505050"
     bordercolor="#eeeeee"
     borderopacity="1"
     inkscape:showpageshadow="0"
     inkscape:pageopacity="0"
     inkscape:pagecheckerboard="0"
     inkscape:deskcolor="#d1d1d1"
     showgrid="false" />
  <g
     inkscape:groupmode="layer"
     inkscape:label="Image"
     id="g1"
     transform="translate(-362.76797,-134.63313)">
    <path
       style="fill:#ff1516;stroke:none"
       d="m 872.76796,137.91314 v 1 c 7.6171,0 33.0618,-2.91223 34,6 l -74,-1 -33,7.66663 -36,7 -32,9 -15,6.33337 47,-11.33337 11,-5.5 52,-0.16663 56,-5.33337 45,6.33337 v 3 c -10.6977,0 -21.9449,-1.81628 -33,0.33337 -3.3303,0.64759 -14.361,1.48365 -8,6.66663 v 1 c -7.2958,3.26392 -11.8344,-4.24573 -19,-5 2.0937,11.36584 -8.4892,5.82983 -14,3 -4.4638,6.89868 -8.952,-3.53882 -14,-5 l 1,10 h -10 c 0,-10.07776 -7.4138,-6.18347 -15,-5.83337 -3.9264,0.18127 -7.9147,-2.16663 -12,-2.16663 -5.6509,0 -11.6027,4.27698 -17.1667,3 -6.5474,-1.50269 -15.6951,3.30603 -22.8333,4 -15.3505,1.49231 -30.662,2.71179 -46,6.33337 -13.9212,3.28699 -27.6807,12.13538 -41,17.5 -8.8447,3.56238 -28.5075,5.67701 -34,13.16663 l 26,-5 v 1 l -26,7 v 1 c 22.6282,-1.7865 44.4574,-12.08423 66,-18.66663 21.2914,-6.50561 42.6191,-7.69726 64,-10.66674 6.2748,-0.87146 13.5334,-4.71851 20,-4 4.2397,0.47107 6.108,4.33337 11,4.33337 v -1 h -4 c 3.7991,-5.00769 22.7579,-4.45276 26,1 -5.0752,1.60266 -12.6414,3.59546 -18,3 -2.3788,-0.26428 -4.5997,-2.16675 -7,-1.83337 -6.5906,0.91528 -10.6574,5.84057 -17,0.83337 h -1 c -6.5609,7.12329 -22.2243,9.54358 -32,8 l 1,-3 -4,3 4,2 -2,3 h 6 v 1 c -4.2802,1.23901 -11.339,3.13403 -13,-2 l -8,4 2,4 c -15.9082,5.86108 -33.661,10.80872 -50,14.66663 -5.6853,1.3424 -16.8228,1.60205 -17,8.33337 -1.8238,-0.19714 -4.2295,-2.07092 -5.8333,-1.83337 -10.0451,1.48816 -1.7602,7.39172 3.8333,7.83337 l -1,-4 c 6.2213,-0.9823 21.2665,6.78491 22,0 3.9151,0 6.7587,-1.34473 8,3 -5.2366,0.55115 -18.3243,4.08765 -19,10 h -1 l -11,-2 v -1 l 5,-1 -1,-4 -7,3 c 0.6647,3.60852 1.3132,5.20288 5,6 l -1,3 c -8.4996,-3.35522 -13.0565,-7.4364 -18,3 h 14 l -19,9 -2,-2 -35,-1 1,5 21,5 4,-1 v 4 h 8 l -50,31 -1,-8 v -1 l 2,-3 c -5.0038,-0.92188 -14.3173,15.29199 -17,7 -4.2342,0.48389 -5.6864,4.02686 -6,8 l 12,-4 -8,6 3,8 c -4.6944,0.12354 -6.1664,-0.012 -9,-4 l 4,-2 -7,-5 c -1.6546,5.2395 -0.7632,9.68689 -7,11 l 1,3 5,-2 v 6 c -4.9687,-4.4458 -7.5392,-2.01196 -13,0 l 5,-3 v -2 h -5 l 4,-5 -5,-1 c -4.6254,8.36975 -20.698,23.67981 -18,33 l 3,-1 1,1 -7,14 4,-2 -2,6 -5,-1 -3,11 -2,-10 c 0,4.06848 -4.0158,10.74792 -8,12 l 1,-9 c 6.5412,1.72131 7.9937,-7.53723 9,-13 l -3,-1 -3,3 c 1.3851,8.77209 -8.1367,13.06042 -12.6667,20 -12.5291,19.19354 -22.2964,39.02856 -33.3333,59 l 5,-2 c -7.7486,12.91425 -13.4245,29.80261 -18.6667,44 -3.1472,8.52374 -6.6663,23.37744 -14.3333,29 l 4,-25 c -4.4591,-2.88525 -3,-9.07422 -3,-14 h -1 c -0.1282,4.87183 -3.5122,16.66577 -8,18 v -5 l -2,13 -3,-3 h -1 c -0.1486,5.64801 -2.0199,18.12054 -8,20 l 7,-39 -4.8334,13 -2.5,17 -10,22 -25.3333,93 -9.3333,65 c 4.7265,3.85126 -4.0497,10.55023 4,14 l -2,4 h -3 v -9 c -8.387,2.4278 -5.9417,5.29242 -4,12 l -7,7 3,25 h 1 l 1,-13 h 1 l 3,16 c -9.4508,0.24872 -1.5467,10.47742 -3,16 l 3,4 c -8.8384,-1.62817 -8.6733,6.79803 -1,7 -0.4447,5.63214 1.4913,19.09381 -3,22 l 1,4 -2,-2 h -1 l 4,4 c 0,7.29095 1.1416,16.11444 -3,22 l 4,21 -8,-4 c 0,8.1452 6.6978,17.83142 8,26 1.2064,7.56775 -1.0417,15.5 0,23 2.4779,17.84076 9.1416,39.71143 16,56 l 3,-1 1,5 h -4 l 5,18 3,-1 2.3333,13 8.1667,17 4.6666,5 0.8334,8 7,2 -8,-18 13,11 -8,-20 h -5 l 3,-7 -4,1 -6,-21 5,2 c 1.484,-3.7594 -13.713,-21.67639 -1,-19 -1.7879,-5.5426 -10.2654,-18.78223 -5,-22 l -9,-16 h 1 l 3,6 h 1 l 4,-5 c -0.6432,-4.88812 -6.5052,-10.99652 -2,-14 l -9,-11 5,1 c -0.5634,-7.13666 2.7666,-11.53961 -6,-15 v -1 c 14.8389,2.34296 -5.4025,-16.60504 2,-19 l -5,-11 5,2 c -1.5081,-8.18683 -6.791,-24.47418 2,-30 -0.5821,-7.37256 -1.4145,-10.41058 0.1666,-18 0.4056,-1.94666 1.9553,-6.74054 4.8334,-5.5 3.9105,1.68555 1.4542,8.59839 1.3333,11.5 -0.1179,2.82916 2.5517,4.24042 2.6667,7 0.1466,3.51941 -2.3318,8.37238 -3,12 l 5,4 c -10.7635,2.32721 5.6189,18.22406 1,27 l -2,-5 h -2 l -1,1 1,6 4,-1 c 1.3921,4.40845 6.1562,12.05042 2,15 l -3,-4 6,19 -3,-2 h -1 l 4,10 -4,-6 -4,1 2,8 5,-1 3,8 -5,1 v 3 l 4,3 h -5 v 1 c 6.5406,3.27032 6.7856,6.40753 8,13 l -6,-1 1,3 c 2.8722,-0.30237 10.8439,1.92639 5,4 l 5,8 h -3 v 3 c 10.2068,6.41565 8.208,11.05505 5,21 5.0464,1.19519 8.3207,1.54639 9,8 h -5 l 11,13 3.5,12 25.5,62.00006 11,1 -10,-21 c 6.2321,-0.7332 -2.5859,-19.50646 -4.3334,-24.00006 -6.3696,-16.37915 -11.0182,-34.73969 -15.3333,-52 -1.5724,-6.28967 -1.8931,-17.86157 -5.6667,-23 -1.5714,-2.13977 -4.1299,-2.90448 -5.6666,-5 l 6,2 -4.6667,-23 1.5,-6 -5.8333,-12 3,3 h 1 c -0.9024,-4.1734 -8.9913,-9.05353 0,-10 0,-8.01202 -5.1421,-7.8512 -8,-14 -1.6839,-3.62286 0.051,-6.35852 0,-10 -0.05,-3.5318 -4.4558,-5.51471 0,-7 l -6,-27 5,-3 c -2.4359,6e-5 -1.615,-0.78607 -1,-3 l 6,2 v -1 c -7.4568,-2.34363 2.8683,-11.99597 -8,-16 3.4671,-7.31952 4.5076,-11.34589 0,-18 l 9,5 c -2.6673,-4.82648 -8.0831,-14.28253 -2,-18 1.8199,9.87976 3.6477,15.85333 1,25 h 2 l 3,27 1,4 c 4.6081,1.37 3.7284,4.87097 -1,4 l 2,4 v 1 c -4.3821,3.70795 2.1722,6.89923 6,7 l -3,8 c 3.105,2.53003 5.2686,13.7782 6.5,18 1.1832,4.05688 -2.5099,6.78986 2.5,9 v 2 l -3,1 6,18 -5,-2 c 0.9585,9.10638 19.6399,30.0611 4,35 l 9,9 -2,3 3,1 -1,4 6,1 6,6 v -6 h 1 c 0.1777,6.57434 4.0834,9.73462 -6,10 0.9545,3.62738 3.3605,6.26184 0,9 l 1,5 5,3 -1,4 c 4.9088,2.45435 16.0781,25.14062 21,13 13.5136,7.82361 17.2052,24.62546 27,36.00006 4.0446,4.6969 11.7425,11.0272 13,17 l -13,-11 c 0.6022,5.7207 12.8685,15.0876 7,19 v 2 c 4.7116,2.7278 7.3232,9.113 13,6 -0.9299,4.4166 1.6179,9.6973 6,11 -0.8277,5.2424 2.0094,7.6866 7,9 -2.2146,5.6104 4.5827,6.2166 7.8333,10 6.6387,7.7269 12.8522,14.8599 20,21.3334 2.8138,2.5482 2.0006,5.4281 6.1667,6.6666 -2.1215,-7.329 -5.1011,-11.9607 -13,-13 l 2,-2 -12,-12 3,1 c 2.5583,-6.4813 -4.5988,-9.4932 -8.1667,-14 -8.0685,-10.1919 -20.1444,-20.2563 -23.8333,-33 8.2433,2.3862 15.8622,15.8623 22,22 19.785,19.785 37.7701,44.1057 61,60 h 1 l 4,-2 -3,5 23,20 h -3 v 1 c 24.9813,19.722 54.0428,34.8655 80,54.3334 8.8564,6.6422 26.5453,19.4178 37,16.6666 2.4343,8.4091 12.3717,5.9023 18,8.5 3.8342,1.7697 6.868,5.4968 11,7.3334 10.0378,4.4612 29.0889,7.2253 35,17.1666 7,-2.2581 11.9274,1.3091 19,3.6666 13.9134,4.6378 28.1731,10.8919 43,12.3334 4.2204,0.4103 8.0071,2.5762 12,1 l -1,-3 c 4.6392,0.5016 9.3811,4.1736 9,9 h 13 c -1.8533,-5.7283 -19.3302,-9.6742 -25,-12.6666 -1.7968,-0.9484 -6.0202,-1.9949 -6.3333,-4.5 -0.5744,-4.5951 20.0728,1.6993 23.3333,2.3332 13.8892,2.7007 29.8062,1.8334 44,1.8334 6.643,0 12.1015,1.8872 19,0.8334 6.2966,-0.9621 16.7555,2.087 19,-4.8334 h 34.00004 l 24,3.1666 9,2.5 67,-11.6666 v 1 l -7,3 v 1 l 43,-10.6666 63,-15.6668 18,-7.8332 8,-6.8334 v -1 l -22,3 19,-6 25,-12 16,-5 21,-8 -3,5 c 20.6036,-7.5907 41.8395,-22.3075 60,-34.6666 6.5217,-4.4385 15.3541,-15.7298 23,-16.3334 -3.5225,-5.444 -9.064,-0.8236 -12.8334,2.6666 -5.1335,4.7533 -16.5797,17.3334 -24.1666,17.3334 -2.4189,0 -4.7089,-2.3368 -7,-3 l 3,2 c -2.2483,7.1538 -10.3376,8.8823 -16,12.5 -11.0961,7.0892 -26.8408,15.0759 -40,17.5 l 23,-17.6666 15,-11.3334 -4,1 c 0,-5.9506 3.6304,-8.8804 9,-11 v 3 h 1 c 7.587,-3.896 7.781,-15.7048 19,-16 l -1,-5 9,-3 c -2.0737,-9.5908 -18.8279,3.6305 -19,10 -1.4664,-1.0999 -2.7629,-3.8441 -5,-3.5 -2.7833,0.4282 -3.6678,3.7832 -6,5 -5.9648,3.1121 -14.2349,4.583 -20,8.6666 -7.1417,5.0587 -15.485,14.1906 -19,0.8334 9.1602,-0.7231 16.9065,-7.4451 24,-12.6666 11.5714,-8.5178 23.0961,-13.6851 34,-23.1668 37.418,-32.5373 72.3234,-67.605 98.3334,-110.16666 8.2986,-13.57935 22.3322,-30.02618 26.6666,-45 l -6,1 4,-14 c -7.29,0.78809 -15.5624,19.1842 -20.1666,25 -16.4109,20.72961 -33.3451,41.73306 -49,63.00006 -3.0058,4.0833 -7.399,9.4446 -11,12.6666 -3.0706,2.7475 -8.4346,2.5185 -9.8334,6.3334 l 4,-1 c -0.9188,3.0908 -6.5131,9.6462 -10,10 -4.9291,0.5 -8.2877,-5.7094 -6.5,-10 2.8492,-6.8384 14.3972,-13.5831 19.5,-19 18.1237,-19.2388 40.2826,-44.9765 49.6666,-70.00006 3.4638,-9.23657 6.7936,-17.91052 10.8334,-27 2.4701,-5.55774 2.6957,-12.54883 8.5,-16 -1.2133,-3.29303 -0.9911,-4.17212 2,-6 -0.8145,-4.42163 -0.9701,-9.43793 4,-11 l 1,-8 h -4 c 0,-11.85065 -3.4333,-24.07977 8,-31 v -1 c -5.6725,-4.13934 -2,-8.75775 -2,-15 7.0508,0.74219 7.5386,8.1554 8,14 h 1 l 4,-1 -7,-22 5,1 c 0,-3.5899 0.7261,-12.59607 7,-10.33331 2.6422,0.95294 1.8448,5.19818 4,7 7.3213,6.12103 15.3761,2.82049 22,-1.66669 v 10 l 5,-2 5,15 h 1 c 2.4572,-13.33929 -5.3258,-25.9729 -12,-37 l -15,-3 v 1 c 1.875,0.54279 6.8116,3.5484 2.8334,5.5 -1.3494,0.66199 -9.3738,-0.69415 -11.8334,-0.5 l 9,-18 -6,1 v 4 c -5.9551,-10.4212 4.2277,-14.93207 12,-18 l -1,-9 c -6.3425,4.93311 -8.3593,-2.33203 -10,-8 l 10,4 -2,-9 -4,2 v -16 h -1 l -1,15 -2,-5 -1,-1 -3,1 -1,-6 h -2 l -5,5 v -11 l 7,2 1,-4 -7,-10 h 5 v -1 c -10.6533,-5.60693 -4,-17.46362 -4,-27 h 8 l -6.5,-12 -1.5,-9 7,2 -6,-21 -2,1 -2,-10 6,1 c 0,-6.69092 3.5287,-15 -6,-15 l 1,-3 3,2 -7,-39 h -1 v 8 h -1 l -2,-13 4,2 -8,-48 -6,4 -4,-14 9,4 c 0,-38.41925 -24.7732,-73.81073 -43.8334,-105 -5.4603,-8.935 -10.5864,-17.01611 -17,-25.16669 -2.4288,-3.08667 -1.5616,-5.34857 -6.1666,-5.83331 l 1,-6 c -8.3412,-2.62158 -13.6039,-18.42969 -18.1666,-25 -11.4281,-16.45642 -29.7721,-27.93433 -41.8334,-43.83337 -4.2358,-5.58362 -17.5347,-9.83582 -16,-18.16663 -10.0221,0 -14.1576,-10.44373 -22,-14.66663 -9.6593,-5.20117 -17.4005,-12.96704 -27,-18.16674 -10.1948,-5.52222 -22.4399,-10.0481 -32,-16.66663 -6.4041,-4.43347 -11.4058,-10.802 -19,-13.33337 -6.4592,-2.15308 -8.8777,-7.60376 -14.3334,-10.66663 -5.3675,-3.01343 -12.4675,-2.93335 -12.6666,-10.5 6.1417,1.29297 9.8739,5.92456 15.1666,7.83337 5.4003,1.94764 12.8489,0.58399 18.8334,2.33326 4.4331,1.29577 7.8435,5.8706 12,7.83337 5.1975,2.45435 9.0604,2.09851 14,3.33337 7.9915,1.99781 18.2277,11.94629 23.5,17.33326 4.6993,4.80151 22.9423,9.50463 21.5,17.33337 l 10,8 -4,-7 5,4 5,5 -6,-1 5,4 c 3.8505,-5.95093 13.9901,2.73474 20,4 v 2 l -4,1 20,12.5 29,26.5 c -1.9177,-10.41101 -9.3771,-16.5365 -14.6666,-25 -13.0218,-20.83508 -24.7388,-42.93872 -49.3334,-52 2.2136,-6.47083 -10.1624,-8.21765 -15,-10 l -0.1666,-5 -6.6668,-2.16663 -7.1666,-9.83337 v 5 l -21.8334,-10.33337 -7.1666,-10.66663 4,10 c -7.582,-0.19946 -15.9731,-10.58691 -22,-14.66663 -2.9642,-2.00659 -6.6716,0.33081 -10,-1.33337 -4.125,-2.0625 -7.2852,-3.11633 -6,-8 l -7,-2 3,4 c -6.4971,0.68384 -5.844,-3.69824 -10.1666,-6.5 -7.2953,-4.72852 -22.0561,-0.43396 -19.8334,-12.5 l -31,-10 5,4 v 1 c -3.2563,0 -6.9999,-0.0269 -7,-4 -5.443,-3.00793 -10.3156,-8.14014 -16,-10.66663 -42.2155,-18.76257 -93.5222,-24.91211 -139,-29.33337 -18.18734,-1.76819 -36.79884,0.76953 -55.00004,-1 -25.7542,-2.50378 -54.1266,-16.53247 -80,-7 m 55,4 v 2 h -18 c 2.1839,-5.95593 13.1122,-2.12854 18,-2 m -64,19 8,-3 c 3.6879,4.52612 12.7366,1 18,1 -2.5739,-7.01917 -23.8171,-4.94556 -26,2 m -59,-4 v 1 h 4 l -4,-1 m -14,5 6,-1 c -2.1284,-2.61206 -4.7933,-2.29077 -6,1 m -22,2 19,-3 c -3.0605,-2.22583 -17.5742,-0.88843 -19,3 m 56,4 c -1.4287,4.8053 -5.9201,4.7179 -10,3 v -2 l 10,-1 m -12,4 -6,1 c 1.134,-3.50513 3.6494,-3.4574 6,-1 m -16,-1 1,3 -18,4 17,-7 m -32,3 v 1 l -20,4 c 2.6838,-3.2937 16.0417,-6.5625 20,-5 m -24,6 c -1.5899,4.047 -9.9433,4.67969 -14,5 l 14,-5 m 104,0 v 2 h -3 v -2 h 3 m -5,3 h -8 c 2.2469,-2.75757 5.6113,-2.49719 8,0 m 327.00004,0 1,1 -1,-1 m -414.00004,7 v 1 h 6 c -1.185,-2.90833 -3.2749,-1.78882 -6,-1 m 429.00004,5 -12,-5 c 3.9052,0.10278 10.4949,1.16858 12,5 m -510.00004,-3 1,1 -1,-1 m 479.00004,1 v 2 l -2,-2 h 2 m -355.00004,3 c -1.2442,3.84558 -4.3745,3 -8,3 l 8,-3 m 48,2 v 1 l -10,2 -1,-4 11,1 m -22,-1 7,3 c -2.5756,6.55591 -22.8335,5 -29,5 0.8539,-8.11243 15.3283,-6.771 22,-8 m -44,5 v 1 l -11,2 v -3 h 11 m 15,0 -6,3 6,-3 m 395.00004,4 -3,-2 3,2 m -424.00004,0 c -1.6281,5.18005 -11.0166,6.60657 -16,7 1.6653,-4.54163 11.4075,-6.15405 16,-7 m -151,2 -9,10 c 3.9211,-0.82556 11.2362,-5.90039 9,-10 m 21,4 v 1 l 6,-2 -6,1 m 4,6 v 1 l 21,-7 c -3.8887,-2.65149 -16.7372,3.86853 -21,6 m 508.00004,-7 c 12.848,2.36658 30.1746,8.75049 41,15.66663 3.7479,2.39453 9.4258,2.30835 10,7.33337 l -15,-5.83337 -37,-16.16663 1,-1 m 40,4.33337 c 0.7734,0 0.1602,0.49768 -0.3334,0.33326 l 0.3334,-0.33326 m -445.33334,1.33326 -0.3334,0.66674 0.3334,-0.66674 m -107.6667,2.33337 -2,3 2,-3 m 59,3 -1,1 1,-1 m -2,1 v 1 h -3 l 3,-1 m -80,2 -1,2 1,-2 m 77,3 -2,2 v -2 h 2 m -81,1 1,1 -1,-1 m 11,0 1,1 -1,-1 m 89,5 v 2 h -2 v -2 h 2 m -5,1 -3,3 1,-3 h 2 m 561.00004,2 -1,1 1,-1 m 2,8 v 2 h -2 v -2 h 2 m -699.00004,2 -6,6 v 1 c 3.3511,-0.70557 7.8461,-3.61548 6,-7 m 737.00004,9 -1,1 -2,-3 3,2 m -735.00004,1 -3,4 c 2.658,-0.57471 4.8143,-1.45996 3,-4 m 87,1 1,2 h -2 l 1,-2 m 661.00004,0 3,4 -3,-4 m -764.00004,2 -1,3 1,-3 m 11,6 -1,2 1,-2 m -15.3334,1.33337 0.6667,0.33326 -0.6667,-0.33326 m 778.33344,0.66663 2,2 -2,-2 m -112,1 9,7 c -3.7856,-0.0996 -9.8732,-3.15845 -9,-7 m 69,2 2,6 6,2 v -1 l -8,-7 m -672.00004,4 -2,3 2,-3 m -56,2 1,1 -1,-1 m 45,2 3,-2 -3,2 m 639.00004,8 c -6.171,-0.48718 -11.3076,-3.42175 -12,-10 5.8893,0.46497 13.0289,3.4834 12,10 m -698.00004,-9 1,1 -1,-1 m 778.00004,5 2,3 -2,-3 m -731.66674,1.66663 0.3334,0.66674 -0.3334,-0.66674 m -6.3333,0.33337 v 3 l 3,-1 v -1 l -3,-1 m 722.00004,3 v 2 h 2 v -2 h -2 m -35,2 v 2 l -2,-2 h 2 m 48,54 v -7 c 9.8981,4.94897 19.1279,13.94141 26.6666,22 4.1889,4.47778 6.651,9.83301 12.3334,8 v 4 c 6.6085,0.71436 9.1304,8.34875 12.1666,13 5.198,7.96289 14.0269,18.30347 21.8334,24 l -1,-9 7,1 5,1 v 1 h -5 c 2.5322,6.41479 11.8032,21.24243 19,22 l -2,2 33.5,53 16.5,52 -9.1666,-12 -17,-38 -6.8334,-13 c -7.5485,3.17822 -17.7629,-18.25409 -16,-19 v -1 c -9.0912,-0.95697 -18.2577,-18.133 -23.3334,-25 -12.7694,-17.27631 -31.3027,-33.63617 -46.6666,-49 -4.0841,-4.08411 -17.041,-20.47974 -22,-20 -9.974,-13.42651 -28.572,-22.26245 -42,-32.33337 -4.6206,-3.46546 -4.8414,-9.61756 -9,-13.66663 l -1,3 c -9.0475,-2.85706 -16.1057,-11.77881 -20,-20 8.9398,0.94092 15.543,10.49927 22,15.83337 6.5776,5.43372 13.6888,11.49683 21,16.33326 4.3157,2.85485 9.4634,3.46081 14,7.16674 4.7411,3.87305 5.0306,10.54309 10,13.66663 m -770.66674,-50.33337 0.3333,0.66674 -0.3333,-0.66674 m 800.66674,-0.66663 9,4 c -3.0559,3.05591 -6.6808,-1.25305 -10,-3 l 1,-1 m -785.00004,1 1,1 -1,-1 m -18,2 -6,14 c 5.2397,-2.48193 10.1962,-8.23035 6,-14 m 818.00004,3 2,2 -2,-2 m -837.00004,1 1,1 -1,-1 m -1,2 -3,8 h 1 l 2,-8 m 804.00004,0 4,3 -4,-3 m 44,6 v 8 l 5,-1 -5,-7 m -815.00004,2 1,1 -1,-1 m 17,0 1,1 -1,-1 m 9,0 v 1 l -4,1 4,-2 m -63,2 v 3 h 2 v -3 h -2 m 818.00004,2 v 1 l 4,1 v -3 l -4,1 m -812.00004,0 -2,4 c 2.9044,-0.34167 3.6776,-1.69336 2,-4 m 49,1 -2,3 2,-3 m 727.00004,3 4,5 c -2.6271,-1.03711 -5.4402,-2.35974 -4,-5 m -775.00004,1 1,1 -1,-1 m -3,1 -4,1 1,5 c -4.7183,1.67419 -6.3908,8.63208 -8,13 4.1871,-1.31592 12.0376,-15.19543 11,-19 m -13,20 2,4 -2,-4 m -4,3 -1,4 h 1 v -4 m 4,2 -2,6 h 1 l 1,-6 m -9,5 1,1 -1,-1 m 888.00004,1 c 0.4958,4.3385 6.031,6.64612 1,10 l 7,10 -7,-2 c 5.2643,9.52588 11.7517,26.45441 24,30 l -7,-13 15,10 c -1.5144,-5.75482 -6.1569,-8.1275 -8.8334,-13 -6.6778,-12.15723 -12.508,-23.7262 -24.1666,-32 m -882.00004,5 -2,4 2,-4 m -3,6 -4,10 h 1 l 5,-10 h -2 m 901.00004,14 -3,-2 3,2 m -915.00004,0 -10,21 h 1 c 2.5179,-5.03577 13.1315,-15.31921 9,-21 m 4,0 -1,5 h 1 v -5 m 25,3 -3,3 v -4 l 3,1 m -13,3 -4,9 h -1 v -3 l -15,27 c 2.1477,-11.65894 8.4001,-29.64209 20,-33 m -5,6 3,-3 -3,3 m 13,-3 -2,3 2,-3 m -30,10 -1,3 1,-3 m -5,3 -18.6667,47 -5.3333,18 8.3333,-22 10,-27 5.6667,-16 m 3,1 -1,5 h 1 l 2,-5 h -2 m 28,1 c -0.4147,5.25256 -3.8034,7.63708 -6.1667,12 -4.5879,8.46997 -8.5917,17.37067 -12.6667,26 -2.3721,5.02325 -3.2281,11.28094 -9.1666,13 l -1,-1 c 2.8479,-13.52722 14.7237,-24.33698 20,-37 2.1838,-5.24121 2.7121,-11.17981 9,-13 m 911.00004,0 1,1 -1,-1 m -7,5 3,2 -3,-2 m 8,0 c 3.2108,5.54608 10.2108,16.28534 17,17 v 4 l 9,4 c -3.0588,-7.74878 -17.9778,-22.67773 -26,-25 m -452.00004,3 -14,3 c 1.9512,-4.42291 9.8718,-4.73822 14,-3 m 8,0 v 2 h -3 v -2 h 3 m 12,0 c 26.09284,7.5531 57.62874,16.67474 79.00004,33 5.1874,3.96259 12.3978,0.0102 15,9 l -9,1 v 1 l 13,0.33331 12,4.66669 c -0.5598,6.53271 13.1168,11.87439 18,15.33331 13.6072,9.63849 26.1885,21.47266 37.3334,33.83338 4.3432,4.81707 10.6219,8.81457 7.6666,15.83331 4.7861,2.11145 10.4193,12.23151 13.3334,17 7.6386,12.49957 20.5031,23.40765 26.1666,37 2.4406,5.8573 0.034,17.72626 6.6666,21.5 2.9695,1.68951 8.8206,-1.86572 11.8334,-2.5 v 6 l -5,5 h -5 c 0.9945,3.43542 2.2701,15.36786 8,14.33331 2.0294,-0.36639 3.8466,-2.70996 6,-3.33331 l 3,10 -10,-4 -0.1666,12 5.1666,23 1,47 c 2.9597,-0.93024 3.3927,-1.95642 3,-5 6.4132,1.90668 5.5303,22.82349 -1,23 l -4,7 v 1 h 6 c 0,11.91687 -4.0001,20.66718 -6.8334,32 -1.3668,5.46704 -0.8454,12.80731 -8.1666,13 l 4,4 c 0,12.53271 -4.1135,22.72052 -8.5,34 -5.5331,14.22803 -8.4313,26.04736 -17,39 -4.5674,6.90417 -10.7603,21.94702 -20.5,23 l 22,-43 c -5.3636,-1.55267 -10.5547,-7.36017 -11,-13 l -7.6666,1.16669 -10.3334,12.83331 1,-7 c -2.1165,1.16962 -6.2297,2.81226 -7.5,5 -2.7657,4.76318 1.1389,14.53656 -8.5,12 1.1018,4.18695 2.845,8.3681 -3,9 -0.1776,6.75214 -2.7543,17.80933 -10,18 l 1,-5 -6,1 2,6 -4,3 h 4 l -2,5 -4,-2 4,8 -7,6 h -1 l -14,-12 -1,1 3,6 -5,-3 c 1.056,5.01569 5.542,5.72626 10,7 l -7,16 3,-1 v 5 l -3,2 h -1 l -2,-2 v -1 c 1.0918,-1.69238 1.9336,-6.84277 -2,-6.16663 -3.2305,0.55518 -3.7186,6.26001 -5.8334,8.33326 -2.2389,2.19494 -3.4753,0.70611 -5.8332,1.66674 -2.1981,0.89551 -2.5946,4.4607 -4.3334,6 -4.3158,3.82044 -8.1537,5.70002 -12,10.16663 -1.8091,2.10083 -5.4258,6.72113 -7,3 -7.4694,3.73474 -14.7972,8.38812 -23,10.66663 -4.1351,1.14868 -6.6731,-2.81775 -4.5,-6.5 1.8256,-3.09339 4.5616,-5.96405 6.5,-9.16663 h 1 v 4 l 26,-13 v -1 c -5.0905,-2.41125 -13.9803,-7.43152 -15,2 h -1 c -5.5711,-7.0155 -20.755,-15.93329 -28.6667,-5.83337 -3.0758,3.92657 0.1884,9.81164 -3.6666,13.66674 -3.8925,3.89246 -7.5398,-0.26471 -8.6667,-3.83337 h -2 c -1.2403,4.28448 -5.0296,6.48376 -7.6667,10 -3.2813,4.375 -5.2527,11.04913 -9.66664,14.5 -3.2877,2.57043 -8.8576,2.51074 -12.6667,3.83337 -11.4855,3.98804 -29.9546,12.57331 -39,20.66663 l 39,-3 c -0.6488,6.00067 -5.3992,4.84753 -10,4 l 1,4 10,-1 8,8 -20,-6 1,4 -4,1 c -3.0092,-3.90076 -6.2298,-4.50214 -11,-4 l 2,3 -26,8 3,-3 v -1 l -6,1 1,5 21,-4 v 2 c -5.3793,3.2559 -26.0161,8.25986 -32,7 l 3,-5 -18,3.8334 -23,-8.50003 -14,-3.66674 -7,-8.33326 -15,-2.66674 -13,-6.33326 -46,-17.83337 -32,-29.5 13,15 c -5.4582,-0.43091 -13.8587,-6.57861 -15,-12 -3.8975,1.53845 -4.8958,-0.0398 -5,-4 l 3,1 v -5 c -11.7022,3.07953 -5.736,-5.43402 -13,-10 l 1,4 c -6.6881,2.64014 -11.3347,-5.4906 -8,-11 l 6,6 -6,-12 c -5.4351,1.5733 -8,-0.4314 -8,-6 h 1 l 3,3 -4,-11 h -1 l 1,7 -17,-10 15,23 -4,6 c -9.1537,-2.64972 -12.6683,-15.85364 -17.3333,-23 -16.0717,-24.6203 -26.2569,-53.44043 -33,-82 -1.3643,-5.77814 -8.3031,-13.59082 -7.6667,-19 0.405,-3.44257 4.3918,-2.95135 5.3333,-6 0.8514,-2.7569 -2.6994,-5.00763 -4,-7 -2.9095,-4.45709 -6.6147,-21.16779 0.6667,-22 -0.8477,-3.22125 -3.5366,-5.66376 -4,-9 -2.1527,-15.49951 2.5269,-30.84863 4,-46 1.3935,-14.33276 2.0177,-28.0509 3,-42 0.2264,-3.21478 2.9777,-4.18878 3.8333,-7 2.4751,-8.13257 2.7541,-17.14313 4.5,-25 1.8403,-8.28162 5.0236,-19.4657 9,-27 1.9792,-3.75012 7.4001,-13.12622 7.6667,-3 5.7624,0.62299 4.2468,6.69299 3,11 3.5206,-2.86865 3.8562,-24.255 12,-14 l 1,-8 c 11.2226,-1.1814 16.6107,-21.19403 24,-28 l -5,-1 11.3333,-9.66669 -3.3333,-8.33331 h -5 l 1,-4 14,8 c 0.8442,-4.01007 6.6235,-7.94745 5.6667,-12 -1.0462,-4.4306 -7.8173,-5.27618 -8.5,-9 -0.6045,-3.2973 4.8943,-3.92822 6.8333,-5.33331 5.5964,-4.05542 5.7819,-11.01789 14,-11.66669 1.1631,2.59985 0.1792,4.45898 0.8333,6.66669 2.1804,7.35894 12.7138,-3.22327 14.1667,-5.66669 l -14,-3 c 0.8639,-10.94305 15.7862,-11.8902 21,-19 h -4 c 2.4143,-8.12067 15.7278,-11.60254 22,-15 3.5121,-1.9024 4.9442,-5.45709 8,-7.66669 5.6565,-4.09015 10.2283,-0.23138 13,-8.33331 l 8,3 -1,3 13,-7.66669 13,-4.33331 v 3 c 9.2716,0 8.0896,-3.79443 15,-7.5 6.1486,-3.29706 17.1086,-7.44385 24,-9.16669 6.8498,-1.71246 15.9772,-3.91852 23,-3.33331 2.763,0.23022 5.1949,1.97839 8,1.66669 21.604,-2.40052 41.0963,-9.66669 63,-9.66669 l -1,-4 m 400.00004,1 1,1 -1,-1 m -905.00004,2 -1,1 1,-1 m 934.00004,0 1,1 -1,-1 m -464.00004,1 v 1 l -13,2 13,-3 m 437.00004,0 1,1 -1,-1 m 0,2 3,3 -3,-3 m -457.00004,3.33331 c 0.7732,0 0.1603,0.49793 -0.3333,0.33338 l 0.3333,-0.33338 m -453,1.66669 -5,8 3,-8 h 2 m 908.00004,0 2,2 v -2 h -2 m 7,0 3,3 -3,-3 m -958.00004,1 1,1 -1,-1 m 963.00004,6 -1,1 2,6 3,-1 -4,-6 m 16.6666,3.66669 -0.3332,0.66662 0.3332,-0.66662 m -984.66664,3.33331 1,1 -1,-1 m -0.6667,2.66669 0.3333,0.66662 -0.3333,-0.66662 m -1.3333,3.33331 1,1 -1,-1 m 978.00004,0 3,5 -3,-5 m -979.00004,3 -3,14 h 1 l 2,-14 m 627.00004,0 v 1 l 10,2 v -1 l -10,-2 m -238.00004,13 c 4.1747,0 9.4474,-0.76575 11,-5 -4.5374,0 -9.4665,0.12067 -11,5 m 59.6667,-3.66669 0.6666,0.33338 -0.6666,-0.33338 m 124.33334,-0.33331 1,1 -1,-1 m -577.00004,6 v 3 h 1 l -1,-3 m 566.3333,2.66669 0.3334,0.66662 -0.3334,-0.66662 m 98.33334,-0.33338 0.6668,0.33338 -0.6668,-0.33338 m -650.66664,0.66669 -2,6 h 1 l 1,-6 m 416,1 1,1 -1,-1 m -6,2 v 1 l 5,-1 h -5 m 126,-1 v 2 h 2 l -2,-2 m 13,3 v 1 l 5,-3 -5,2 m -536,-1 -3,14 h 1 l 2,-14 m 378,0 1,1 -1,-1 m 10,2 3,-1 -3,1 m -39,-1 v 2 h 3 v -2 h -3 m 10,11 c 6.3746,0 14.7092,-3.54431 17,-10 -5.6004,1.03168 -14.985,4.32141 -17,10 m 269.00004,-10 v 5 l 6,5 h 1 l 1,-7 -5,1 -1,-4 h -2 m -644.00004,1 -3,8 h 1 l 2,-8 m 448,0 1,1 -1,-1 m -93,4 3,-3 -3,3 m 48,-2 -10,6 v 1 c 3.472,-0.27411 13.1363,-2.3999 10,-7 m 7,0 v 2 h 2 v -2 h -2 m 223.00004,0 v 2 l 9,3 -9,-5 m 360,1 2,3 v -3 h -2 m -621.00004,6 -6,7 c 3.1688,-0.9173 7.9556,-3.69055 6,-7 m -51,30 c -0.705,2.43542 -2.6483,3.7287 -3.5,6 -0.8975,2.39337 1.6703,6.62286 4.5,5.5 4.9803,-1.97632 4.1063,-10.94794 -1,-11.5 m 417.00004,7 2,4 -2,-4 m 1,14 c -3.6947,-2.04181 -5.8843,-3.60162 -6,-8 5.3856,0.14172 6,3.1109 6,8 m 0,2 -2,3 v -3 h 2 m -452.00004,26 -8,12 -4,-1 v -2 l 10,-9 h 2 m 746.00004,2.33331 c 0.7733,0 0.1603,0.49793 -0.3334,0.33338 l 0.3334,-0.33338 m 2,10.66669 2,4 -2,-4 m 2,19.33331 c 0.7733,0 0.1603,0.49793 -0.3334,0.33338 l 0.3334,-0.33338 m -779.00004,11.66669 v 3 h 1 l -1,-3 m 785.00004,19 h 1 l 1,11 -3,-1 1,-10 m 2,15 v 3 l -2,-3 h 2 m -271,1 4,3 c -0.3464,-2.94482 -1.1099,-2.92188 -4,-3 m 16,3 v 1 l -3,1 v -3 l 3,1 m 258,30 -1,1 1,-1 m -256,19 v 11 l -3,-1 1,-10 h 2 m -40,3 v 6 h 1 l -1,-6 m -814.00004,7 3,6 c -4.0875,-0.11047 -6.6956,-2.98871 -3,-6 m 1,14 -1,7 -4,-1 3,-6 h 2 m 848.33344,1.66669 0.3332,0.66662 -0.3332,-0.66662 m -3.3334,4.33331 -2,9 4,2 c 0.7834,-4.25336 2.6802,-8.9353 -2,-11 m -819.00004,14 -4,1 -1,-5 5,4 m 1088.00004,2 2,7 2,-2 c 1.168,4.03479 0.3567,6.99603 5,8 -1.6808,-5.32257 -4.0977,-10.1618 -9,-13 m -1089.00004,10 c -9.4958,-6.14435 3.9467,-13.63385 0,0 m 787.00004,-2 c 0.3635,4.60486 2.3414,6.52161 6,9 l 1,-1 -7,-8 m 31,0 -1,7 c 2.9358,-1.15338 4.3744,-5.62518 1,-7 m -845.00004,1 -2,6 h -1 l 1,-6 h 2 m 52,2 4,7 -4,-7 m -23,1 -3,3 c 0.9812,3.10699 0.216,4.04388 -3,5 l -1,-4 5,-4 h 2 m 1112.00004,0 4,9 h 1 l 5,-8 -1,-1 h -2 l -1,3 -6,-3 m -11,1 1,5 -4,2 2,5 h 1 v -3 l 5,2 -5,-11 m -12,1 -1,3 h 4 l -3,-3 m -304,2 v 3 h 1 l -1,-3 m 19,0 c -1.527,3.86823 -0.5525,9.70135 3,12 v -11 l -3,-1 m -803.00004,7 -2,7 c -5.202,-1.12476 -5.3278,-4.41315 -4,-9 l 6,2 m 1106.00004,0 3,2 -3,-2 m 7.3334,0.66669 0.3332,0.66662 -0.3332,-0.66662 m -30.3334,1.33331 -1,5 h -2 l -2,-5 1,-1 4,1 m -272.6666,2.66669 0.3332,0.66662 -0.3332,-0.66662 m 305.6666,2.33331 6,8 c -1.1566,-3.99567 -1.7004,-6.75537 -6,-8 m -315,1 5,2 v -1 l -5,-1 m 289,0 -1,1 1,-1 m -8,3 c 2.5179,5.98004 -0.4711,13.03339 -4,18 h -1 c -1.6207,-4.73767 0.6886,-13.37726 3,-18 h 2 m -272,2 v 4 h 2 v -4 h -2 m 309,8 1,1 -1,-1 m -33,8 2,3 -4,-2 2,-1 m -1045.00004,2 c -0.9329,4.31445 -2.9842,4 -7,4 1.4774,-4.01001 2.783,-5.77551 7,-4 m 1055.00004,-1 v 6 h 1 l 3,-5 -4,-1 m 7,2 1,1 -1,-1 m -22,3 2,6 h -4 l 2,-6 m 35.6666,2.33331 0.6668,0.33338 -0.6668,-0.33338 m -1073.66664,1.66669 -1,1 1,-1 m -54,8 3,-2 -3,2 m 1100.00004,-2 -1,5 h -1 v -5 h 2 m -1058.00004,1 1,1 -1,-1 m 1050.00004,1 v 2 h -2 v -2 h 2 m -1082.00004,4 3,4 -3,-4 m 803.00004,2 -1,4 h 1 v -4 m -31,4 4,5 -4,-5 m 28,1 -1,3 1,-3 m 287,4 c -3.4435,-0.0906 -4.6171,-0.45789 -5,-4 l 5,4 m 14,1 v 2 h -2 v -2 h 2 m -4,2 v 1 l -6,-1 h 6 m -343,3 -2,6 h 1 l 1,-6 m 328,7 2,2 -2,-2 m -1091.00004,2 2,2 v -2 h -2 m 759.00004,1 -1,2 1,-2 m -750.00004,1 v 2 h 2 v -2 h -2 m 732.00004,0 5,9 -5,-9 m 32,6 h -1 l -2,-2 -2,5 h 2 l -3,4 c -1.8257,-6.30676 5.0709,-15.59497 6,-7 m -21,-3 1,1 -1,-1 m -77,1 v 6 l 5,1 -1,3 3,-1 2,4 h -8 v 4 l 9,-1 5,-5 -15,-11 m -9,1 c 0,5.18256 3.5593,11.85681 9,12 v -1 c -2.96,-0.9303 -3.3928,-1.95636 -3,-5 l -6,-6 m 456,0 1,1 -1,-1 m -395,3 3,-2 -3,2 m 25,-1 v 2 h 2 v -2 h -2 m 352,1 1,1 -1,-1 m 13,0 c 2.2197,10.54333 6.1166,22.58429 2.5,33 -0.7815,2.25079 0.2676,6.32037 -2.5,7.5 -1.8019,0.76801 -5.0212,-1.29169 -7,-1.5 l -2,8 h -4 l 1,-9 c -9.1573,3.35785 -9.1226,26.58423 -6,34 l 4,-5 2.5,-16 7.5,-9 c 5.0077,2.03009 5.3917,8.19214 4,13 4.6527,-3.01056 3.4042,-9.0094 4.1666,-14 2.1757,-14.24066 0.8334,-26.70459 0.8334,-41 h -5 m -500,2 8,8 h 5 v 3 c 7.7352,0 9.2319,4.37433 15,8 -0.6575,-8.32813 -20.4988,-21.96094 -28,-19 m 116,0 2,6 c 1.1454,-2.90137 1.1554,-4.84296 -2,-6 m -14,2 -1,6 5,2 -3,-3 2,-5 h -3 m -741.33344,2.66669 -0.3333,0.66662 0.3333,-0.66662 m 752.33344,0.33331 3,2 -3,-2 m -429.00004,1 1,1 -1,-1 m 790.00004,1 v 3 h 1 l -1,-3 m -344,1 1,1 -1,-1 m 13,0 1,4 -3,7 h -1 l -2,-2 5,-9 m 325,0 -1,5 h 1 v -5 m -348.6666,3.66669 0.3332,0.66662 -0.3332,-0.66662 m 9,0 0.3332,0.66662 -0.3332,-0.66662 m 21.6666,0.33331 v 1 l -4,8 h -2 c -1.6077,-3.96521 1.3313,-10.4743 6,-9 m -461.00004,3 3,-2 -3,2 m 390.00004,-2 -1,1 11,14 -4,-1 h -9 l 4,2 3,2 -4,3 c 1.4113,3.84918 11.881,5 16,5 l -3,-10 6,-11 h -1 c -4.0927,6.32501 -9.4221,3.13617 -11,-3 l -2,2 h -1 l -4,-4 m 36,1 1,1 -1,-1 m 8,0 c -1.1454,2.90143 -1.1555,4.84296 2,6 l -2,-6 m -17,1 3,4 -1,-4 h -2 m 390,1 2,2 v -2 h -2 m -382,2 v 2 l 2,-2 h -2 m -11,1 1,1 -1,-1 m 363,1 -1,7 h 2 l -1,-7 m -396,1 1,1 -1,-1 m 427,0 1,1 -1,-1 m -424,1 2,3 1,-1 -1,-2 h -2 m 25,0 1,1 -1,-1 m -405.00004,2 v 2 h 2 l -2,-2 m 322.00004,0 1,1 -1,-1 m 77,0 -1,1 1,-1 m -88,3 3,3 -3,-3 m 485,0 1,1 -1,-1 m -387,2 -1,4 3,-4 h -2 m -18,1 -1,1 1,-1 m 42,0 v 2 h -2 v -2 h 2 m 361.3334,0.66669 0.3332,0.66662 -0.3332,-0.66662 m -790.33344,0.33331 1,1 -1,-1 m 439.00004,0 -2,4 2,-4 m 340.3334,0.66669 0.3332,0.66662 -0.3332,-0.66662 m -407.3334,0.33331 3,3 -3,-3 m -357.00004,1 2,2 v -2 h -2 m 295.00004,0 v 1 l 4,1 -4,-2 m 9,0 1,1 -1,-1 m 470.3334,0.66669 0.3332,0.66662 -0.3332,-0.66662 m -327.3334,0.33331 c -1.0654,10.12213 -9.9071,14.41479 -16,20 v 1 c 5.4656,2.22668 -2.4435,5.91907 -3.1666,8.66663 -0.2971,1.12878 1.06,3.98352 1.1666,5.33337 h -1 l -4,-4 -8,9 c 1.2609,-11.0329 8.437,-12.24957 15,-19 l -6,1 c 4.7402,-6.67944 13.7747,-19.61896 22,-22 m -92,1 2,4 h -8 l 5,3 v 5 l 7,-2 -4,-1 v -5 h 2 l -4,-4 m -19,1 6,6 -6,-6 m 413.6666,0.33331 0.6668,0.33338 -0.6668,-0.33338 m 13.3334,-0.33331 1,1 -1,-1 m -403,4 5,-2 -5,2 m 379,-3 c 0,5.38733 1.7129,12.5517 -4,15 l 2,-15 h 2 m -393,1 2,2 v -2 h -2 m 52,2 1,4 4,-5 -5,1 m -36,2 v 2 l 3,3 h 2 c 1.3539,-4.67682 -0.1364,-7.04779 -5,-5 m 5,2 -1,1 1,-1 m 2,0 2,7 c 3.8203,-0.30164 4.8378,-1.41632 6,-5 l -8,-2 m -75,2 v 1 l 8,2 -1,-4 -7,1 m 104,-1 1,1 -1,-1 m 9,1 1,3 -1,-3 m -406.00004,1 v 1 l -4,1 4,-2 m 335.00004,1 v 1 l 4,-2 -4,1 m 43,-1 c -1.8193,4.80804 -1.7283,6.81543 -8,5 l -3,7 11,-2 4,-7 -2,-3 h -2 m 47,5 -5,-4 c 3.4838,-1.1001 4.6173,0.36401 5,4 m -84,-1 v 2 l 3,4 h 7 l 1,5 6,-3 -1,5 c 3.8002,-1.39343 2.792,-6.35919 3,-10 h -1 l -1,3 h -3 c -2.2495,-7.1579 -7.7914,-10.24799 -14,-6 m 78,-2 -3,2 1,-3 2,1 m -66,0 v 1 l 10,2 c -1.5095,-4.66608 -6.0256,-2.16333 -10,-3 m -671.00004,1 3,3 -3,-3 m 620.00004,0 v 1 l 3,1 -3,-2 m 83,0 v 2 h 2 v -2 h -2 m 18,0 -1,1 1,-1 m -69,4 v 3 l 2,-1 v -1 l -2,-1 m 451,0 1,1 -1,-1 m -420,1 -3,4 v 1 c 3.1101,-0.67249 5.0586,-2.16943 3,-5 m 36,1 v 3 h -2 v -3 h 2 m -103,1 v 1 l 4,1 -4,-2 m 42,0 1,1 -1,-1 m 73,0 -4,3 1,-3 h 3 m -69,2 v 1 h 3 l -3,-1 m 398.3334,0.66663 0.3332,0.66674 -0.3332,-0.66674 m -353.3334,0.33337 2,8 c -2.4358,-1.91382 -3.8881,-5.40393 -2,-8 m -663.00004,2 2,2 v -2 h -2 m 274,1 c 4.1232,2.59167 10.441,11.10889 11,16 -4.3723,-1.37415 -14.3203,-11.43463 -11,-16 m 346.00004,1 v 2 l 4,1 v -4 l -4,1 m -16,0 1,2 h 1 l 1,-2 h -3 m 32,0 1,1 -1,-1 m -630.33344,1.33337 0.6667,0.33326 -0.6667,-0.33326 m 627.33344,-0.33337 -4,6 c 2.6915,-0.95508 5.9094,-3.3269 4,-6 m 404,0 1,1 -1,-1 m -394,4 3,-3 -3,3 m -346.00004,0 v 2 h 3 v -2 h -3 m 716.00004,1 1,1 -1,-1 m -1066.00004,2 5,8 c -3.4791,-1.00708 -7.3402,-4.56781 -5,-8 m 1065.00004,0 1,1 -1,-1 m -362,3 -1,1 1,-1 m 39,2 c 1.5867,8.61377 -1.8755,22.86853 -12,25 l -5,-6 c 2.6888,-8.33563 7.8527,-16.59283 17,-19 m -668.00004,2 2,4 -2,-4 m 618.00004,2 -11,5 11,-5 m 370.3334,0.66663 0.3332,0.66674 -0.3332,-0.66674 m -1058.33344,0.33337 -1,1 1,-1 m 1078.00004,2 -2,5 h 1 l 1,-5 m 26,0 2,2 -2,-2 m -1031.00004,1 -1,1 1,-1 m 595.00004,1 -1,2 h 2 l -1,-2 m -308.00004,5 4,7 -4,-1 1,3 -6,-3 c -0.202,7.67413 -6.8287,6.33362 -10,1 l 9,-2 v -5 h 6 m -352.3334,1.33337 0.6667,0.33326 -0.6667,-0.33326 M 1503.768,935.91314 v 4 h 1 l -1,-4 m -458,61 c 1.4279,-3.8942 6.4092,-4.6875 10,-6.33337 5.5206,-2.53028 10.8268,-7.48597 16,-10.83326 4.8522,-3.13964 8.944,-10.34045 13,-14.83337 5.2028,-5.76294 11.4979,-10.49792 17,-16 2.2605,-2.2605 13.7782,-16.64856 17.5,-10.83337 3.0409,4.75134 -11.4932,14.79113 -14.1666,17.83337 -11.6906,13.3031 -28.1057,28.11218 -45.3334,34.33337 -5.3318,1.92533 -7.8328,6.17973 -14,6.66663 m -580.00004,-59 4,3 -4,-3 m 289,2 1,1 -1,-1 m 15,0 -3,2 3,-2 m 733.00004,1 1,1 -1,-1 m -1091.00004,5 1,3 h 1 l -2,-3 m 69,1 3,10 c -5.3708,-1.55469 -6.4481,-4.99768 -5,-10 h 2 m 999.00004,0 v 7 l 9,-2 v -1 l -9,-4 m 21,0 v 3 h 1 l -1,-3 m -713.00004,3 v 3 c -4.1041,1.18805 -8.4263,2.30695 -9,-3 h 9 m -17,9 c -1.3574,-0.28577 -2.8737,-0.354 -4,-1.33337 -10.1013,-8.78357 9.952,-8.94721 4,1.33337 m -296,-8 2,4 -4,1 2,-5 m 965.00004,0 -6,4 6,-4 m 38,3 1,1 -1,-1 m 22,2 -1,5 h 1 l 2,-5 h -2 m -1088.33344,1.33337 0.6667,0.33326 -0.6667,-0.33326 m 65.3334,2.66663 2,3 -2,-3 m 604.00004,2 v 2 l -2,-2 h 2 m 415,3 -1,11 h 1 c 1.265,-3.43353 4.8302,-9.03217 0,-11 m -1090.00004,1 2,8 c -4.7668,-1.50531 -6.8968,-4.83154 -2,-8 m 1087.00004,0 1,1 -1,-1 m -414,2 -7,5 c 1.0944,-3.6814 3.2448,-4.70349 7,-5 m -627.00004,4 -2,3 v -3 h 2 m 352,2 8,2 c -2.0403,6.30627 -11.843,3.28418 -8,-2 m 140.6667,0.33337 0.6666,0.33326 -0.6666,-0.33326 m 48.3333,0.66663 -5,3 5,-3 m 80.00004,1 v 1 l -7,3 7,-4 m -101.00004,3 1,1 -1,-1 m -15,3 1,1 -1,-1 m -13,2 c 0.3464,2.94476 1.1098,2.92187 4,3 l -4,-3 m 23,0 1,4 -5,-4 h 4 m 15,5 -8,-1 c 2.7292,-3.47351 6.6277,-3.61597 8,1 m -143,-2 v 1 c -3.9113,3.01727 -9.1851,6.7415 -10,-1 h 10 m -335,2 2,4 -2,-4 m 411,0 5,3 -5,-3 m 48,8 c -4.4091,-10.4718 13.2418,-5.62274 8.8333,-2.5 -1.7158,1.2153 -6.4895,1.3898 -8.8333,2.5 m -109,-3 h -3 l 1,-2 2,2 m 629.00004,1 -1,2 h 2 l -1,-2 m -630.00004,3 -2,5.00006 -5,-6.00006 7,1 m -345,5.00006 c 2.26,4.52 6.0137,10.5566 11,12 -1.2824,-6.0913 -5.3324,-9.7627 -11,-12 m 350,4 c -3.9229,4.6362 -14.78,7.6689 -17,0 h 17 m 85,4 c -4.5173,0 -10.3905,1.6383 -11,-4 5.1239,-0.9438 10.8173,-2.9408 11,4 m 10,0 c -4.2072,0 -6.5202,-0.4421 -7,-5 4.5686,0 6.8652,-0.1224 7,5 m -536,-4 1,1 -1,-1 m 4,8 1,1 -1,-1 m 60,5 c -0.7591,7.2113 -1.1445,14.2815 8,17 -1.5771,-5.4482 -1.8287,-14.5756 -8,-17 m 989.00004,0 -1,9 5,-9 h -4 m -1035.00004,4 1,1 -1,-1 m -7,4 v 2 h 2 l -2,-2 m 13,0 -2,1 4,4 -2,-5 m -9,5 2,5 h 1 l -3,-5 m 46,1 2,6 -6,1 8,18 c 3.0972,-1.3856 4.0569,-1.9147 6,1 h 1 l -1,-10 c 10.8707,0 7.6337,-8.1802 -1,-3 l 2,-5 -11,-8 m 97,14 c 12.0085,0 9.8879,5.1243 16.3333,12.8334 4.6443,5.5549 9.946,6.7818 12.6667,14.1666 h 1 l -1,-6 h 4 c 3.7702,13.0242 23.864,22.4497 34,30.3334 31.6931,24.6502 70.4559,41.3945 106,59.1666 6.5658,3.283 8.0892,9.7162 14,13 6.146,3.4144 16.1844,6.0841 23,8.1666 3.6523,1.1161 11.3367,0.2772 13.5,4.3334 2.9012,5.4398 -9.034,4.0776 -11.5,3.6666 -12.0255,-2.0041 -29.2484,-5.4403 -39.8333,-11.1666 -24.7255,-13.3761 -53.0745,-21.4412 -77.1667,-36.8334 -13.7472,-8.7828 -27.5883,-17.933 -41,-27 -5.5697,-3.7654 -7.8219,-9.4149 -14,-12.6666 l -1,1 1,3 -7,-7 5,2 v -4 l -3,-3 -2,4 h -1 l -1,-4 -7,-4 h 3 v -1 l -18.5,-16 -3.6667,-9.8334 -20.8333,-24.1666 1,-1 c 5.5735,2.0535 14.304,5.3881 15,12 m -132,-11 2,4 h 1 l -3,-4 m 1005.00004,2 c -1.4435,3.0474 -2.7166,4.7976 1,6 l -1,-6 m -80,7 10,7 -12,16 -3,-1 c -1.4814,5.1179 -6.3611,6.5127 -10,10 -8.6213,8.2622 -18.2385,15.2159 -26.8334,23.3334 -4.5232,4.2718 -3.7835,8.8038 -11.1666,6.6666 -0.719,6.8304 -7.0659,9 -13,9 -0.701,6.4854 -12.2045,11 -18,11 l 2,-7 8,-3 -1,-3 c 5.1455,-3.656 13.8971,-9.2697 17.6666,-14 4.9159,-6.1689 11.7747,-14.0991 20.3334,-15 0.1776,-6.75 5.6508,-8.4662 11,-11 -5.1857,-8.2107 11.7732,-12.6934 16,-17 1.9822,-2.0195 0.069,-2.7739 0.5,-5 0.6686,-3.4541 6.5505,-6.2239 9.5,-7 m 82,2 -5,10 c 3.3492,-1.0526 7.0493,-6.9945 5,-10 m -16,1 1,1 -1,-1 m -900.33344,3.3334 0.6667,0.3332 -0.6667,-0.3332 m 883.33344,-0.3334 v 2 l 2,-2 h -2 m 6,5 v 1 h 3 l -3,-1 m -884.00004,2 3,17 -6,-2 c 0.7847,7.259 12.6924,7.0889 14.8333,-0.1666 1.5573,-5.2775 -8.1752,-12.5341 -11.8333,-14.8334 m 45,1 4,4 -4,-4 m -97,1 -3,3 3,-3 m 938.00004,8 5,-7 c -4.2368,0.916 -3.9028,3.2097 -5,7 m -68,-3 6,1 c -1.2161,-4.0907 -3.6825,-4.5817 -6,-1 m -834.00004,-2 c 1.0491,3.6243 5.1265,9.5443 9,10 l -9,-10 m 36.6667,3.6666 -0.3334,0.6668 0.3334,-0.6668 m 34.3333,1.3334 1,1 -1,-1 m 816.00004,2 -2,5 6,-2 -4,-3 m -884.00004,4 1,1 -1,-1 m 26,3 1,1 -1,-1 m 53,0 v 2 h 2 v -2 h -2 m 810.33344,0.6666 0.3332,0.6668 -0.3332,-0.6668 m -910.33344,0.3334 1,1 -1,-1 m -11,1 3,6 -3,-6 m 899.00004,1 1,1 -1,-1 m -891.00004,2 5,5 -5,-5 m 900.33344,0.6666 0.3332,0.6668 -0.3332,-0.6668 m -798.33344,1.3334 5,5 -5,-5 m 5,0 4,3 -4,-3 m 790.00004,2 -24.1666,17.8334 -7.8334,8.1666 2,3 c 2.5408,-0.7554 5.0415,-2.5101 1,-3 v -1 l 4,2 h 1 l 16,-8.1666 11,-11.8334 v -1 h -3 v -6 m -797.00004,1 1,1 -1,-1 m -95,1 1,1 -1,-1 m 107,0 4,3 -4,-3 m 822.00004,0 1,1 -1,-1 m -939.00004,2 3,6 -1,-6 h -2 m 124,4 v 1 l 5,1 -5,-2 m 7,4 2,2 -2,-2 m -37,1 c 0.6454,3.5037 2.9012,10.4916 7,7 v 4 h 8 l -15,-11 m 26,4 4,3 -1,3 -3,-6 m 19,2 c 1.2292,3.9111 7.9965,7.1571 12,8 l -12,-8 m 675.00004,1 v 1 l 4,-2 -4,1 m 100,4 3,-2 -3,2 m 3,2 1,1 4,-2 -5,1 m -808.00004,-1 -1,1 2,5 h 6 l -7,-6 m 796.00004,3 -1,2 1,-2 m -107,4 v 1 l 4,-2 -4,1 m 107,-1 4,5 -4,-5 m -794.00004,1 2,2 -2,-2 m 45,1 8,11 h 1 l -1,-4 6,2 1,-1 c -2.965,-5.1213 -9.2031,-7.5424 -15,-8 m -13,1 v 2 h -2 l 2,-2 m 758.00004,1 -1,2 1,-2 m -8,2 v 1 l 4,3 -4,-4 m -786.00004,1 7,7 3,-3 -10,-4 m 22,0 1,1 -1,-1 m 658.00004,6 -17,8 c 0.8132,-7.7258 11.3402,-14.9462 17,-8 m -697.00004,-3 v 2 h 2 v -2 h -2 m 5,2 c -0.8004,3.802 0.027,5.5706 4,6 l -2,-6 h -2 m 39,0 4,4 -4,-4 m -12,3 -4,1 c 8.5316,13.573 20.777,22.777 32,34 7.8089,7.809 18.56,16.2672 24.8333,25.1666 1.3039,1.8498 -0.2327,3.9008 1.3334,5.6668 9.406,10.6067 27.1919,17.5923 38.8333,26 12.8007,9.2448 32.623,24.6178 48,20.1666 2.7628,6.8151 12.9729,10.2928 20,10 9.6561,-0.4023 18.379,3.5991 28,4 2.5347,0.1056 4.5659,-2.1085 7,-1.5 15.1584,3.7896 32.0645,16.0806 48,16.5 v -3 c 6.7026,0 20.6987,6.3013 25,2 1.5375,4.7521 6.0155,2.1711 10,3.3334 5.2814,1.5404 12.3298,4.4542 18,3.6666 3.7035,-0.5144 6.0012,-2.4442 10,-1.8334 28.0726,4.289 57.5509,5.5993 86.00004,2.8334 14.9783,-1.4563 29.8714,-5 45,-5 v -1 c -25.5567,0 -51.3104,6.2605 -77.00004,4.8334 -15.6841,-0.8714 -32.5528,-1.1631 -48,-4.1668 -7.0162,-1.3642 -16.5626,-7.6666 -23,-7.6666 -52.8761,0 -105.5865,-18.8163 -154,-40.3334 -31.3597,-13.9375 -60.9019,-36.7223 -87,-58.8332 -12.7294,-10.7847 -25.3491,-29.5819 -43,-32.8334 l 1,5 -7,-5 h 5 l -5,-3 m -21,1 c 0,7.9436 4.7616,7.03 11,9 -1.5451,-4.3541 -6.307,-8.6295 -11,-9 m 717.00004,0 1,1 -1,-1 m 28,5 v 1 h 3 l -3,-1 m -716.00004,2 3,3 -3,-3 m 638.00004,1 v 1 l -15,6 c 1.666,-4.5439 10.4325,-8.803 15,-7 m -655.00004,2 c -0.4009,3.0468 0.9086,7.6361 4,9 l -1,-5 5,1 v -1 l -8,-4 m -5,1 3,2 -3,-2 m 687.00004,0 1,4 -14,4 c 2.1716,-5.5012 7.4734,-6.9819 13,-8 m -673.00004,4 2,2 -2,-2 m 695.00004,2 -2,2 v -2 h 2 m -690.00004,3 -2,3 5,2 -3,-5 m 653.00004,0 c -0.5552,4.8579 -11.3818,7.8784 -16,8 1.9044,-5.194 10.9368,-7.0673 16,-8 m 26,9 -2,3 2,-3 m -47,2 -4,3 4,-3 m -6,3 -1,1 1,-1 m -2,1 -1,1 1,-1 m -516.00004,10 21,14 -1,-4 11,3 2,5 -5,-1 4,4 v 2 l -1,1 c -2.5235,-0.5312 -9.6843,-4.0182 -5,-6 v -1 c -9.8884,-0.2603 -22.9605,-8.4993 -31,-14 v -1 l 5,1 v -3 m 577.00004,2 -1,2 1,-2 m -570.00004,4 1,1 -1,-1 m 33,1 -1,1 1,-1 m 527.00004,1 1,1 -1,-1 m -7,3 v 1 l 5,-2 -5,1 m -9.3334,2.3334 0.6668,0.3332 -0.6668,-0.3332 m -2.6666,0.6666 1,1 -1,-1 m 11,2 3,-1 -3,1 m -34,6 v 1 l 22,-7 -22,6 m -482.00004,1 -7,-3 c 2.8259,2.7516 9.1427,7.7404 11,2 l 16,7 c -6.8741,2.8944 -27.6596,-0.9149 -30,-9 3.5687,-2.0662 9.42,-1.9297 10,3 m -104,-3 v 2 h 2 l -2,-2 m 139,12 c -0.9051,8.3716 -12.1897,0.5063 -17,0 v -1 l 4,-3 13,4 m -19,1 -3,2 3,-2 m 56,13 c -2.9492,9.9197 -12.368,-1.5076 -16.6667,-3.1666 -6.7241,-2.5954 -14.2476,3.5454 -17.3333,-6.8334 l 34,10 m -48,-4 v 1 h -4 l 4,-1 m 19,10 c -3.2402,0 -4.954,0.2332 -6,-3 3.2402,0 4.954,-0.2332 6,3 m 382.00004,-1 v 1 l 11,-2 -11,1 m -6,2 v 1 l 5,-1 h -5 m -354.00004,0 c -1.5901,4.9148 -7.3322,2.6409 -11,1 l 11,-1 m 23,4 v 1 l -13,-5 13,4 m -10,0 v 1 h -4 l 4,-1 m 17,2 15,6 -15,-2 v -4 m 4,11 -4,-1 4,1 m 272.00004,-2 v 1 h 4 l -4,-1 m -211.00004,12 v 1 l 82.00004,4 118,-14 c -3.7847,-2.7524 -9.4607,-1.4413 -14,-1 -12.3525,1.2009 -24.6689,2.8011 -37,4 -27.7804,2.7009 -55.7034,9.7511 -84.00004,7 -14.8598,-1.4447 -30.2587,-1.6143 -45,-1 -7.0657,0.2944 -13.39,-2.2614 -20,0 m 201.00004,-11 v 1 h 8 l -8,-1 m -343.00004,3 -1,1 1,-1 m 64.6667,0.3334 0.6666,0.3332 -0.6666,-0.3332 m 167.00004,1 0.6666,0.3332 -0.6666,-0.3332 m -139.66674,26.6666 4,3 z"
       id="path1" />
  </g>
</svg>
