<?xml version="1.0" encoding="UTF-8" standalone="no"?>
<svg
   aria-hidden="true"
   role="img"
   class="iconify iconify--logos"
   width="42.66206"
   height="42.343758"
   preserveAspectRatio="xMidYMid"
   viewBox="0 0 342.58117 340.0733"
   version="1.1"
   id="svg6"
   sodipodi:docname="react2.svg"
   inkscape:export-filename="react2.png"
   inkscape:export-xdpi="129.88531"
   inkscape:export-ydpi="129.88531"
   inkscape:version="1.3.2 (091e20e, 2023-11-25, custom)"
   xmlns:inkscape="http://www.inkscape.org/namespaces/inkscape"
   xmlns:sodipodi="http://sodipodi.sourceforge.net/DTD/sodipodi-0.dtd"
   xmlns="http://www.w3.org/2000/svg"
   xmlns:svg="http://www.w3.org/2000/svg">
  <sodipodi:namedview
     id="namedview6"
     pagecolor="#505050"
     bordercolor="#eeeeee"
     borderopacity="1"
     inkscape:showpageshadow="0"
     inkscape:pageopacity="0"
     inkscape:pagecheckerboard="0"
     inkscape:deskcolor="#d1d1d1"
     inkscape:zoom="5.4579805"
     inkscape:cx="56.889174"
     inkscape:cy="33.345667"
     inkscape:window-width="1366"
     inkscape:window-height="697"
     inkscape:window-x="1016"
     inkscape:window-y="-8"
     inkscape:window-maximized="1"
     inkscape:current-layer="svg6" />
  <defs
     id="defs5" />
  <path
     style="fill:#f90706;stroke-width:0.317941"
     d="m 320.34374,339.67999 c -4.86744,-0.43935 -8.99966,-1.05857 -14.39347,-2.15686 -6.65755,-1.3556 -10.67793,-1.93657 -27.03169,-3.90645 -27.9595,-3.36779 -31.83702,-3.75584 -55.9942,-5.6036 -28.70194,-2.19547 -40.09802,-3.23879 -41.37142,-3.7879 -0.41574,-0.17926 -1.22982,-0.65077 -1.8091,-1.04789 l -1.05316,-0.72188 -0.11008,0.90866 c -0.0646,0.53394 -0.30852,0.90865 -0.59138,0.90865 -0.26481,0 -1.63708,-0.19972 -3.04956,-0.44382 -7.6356,-1.31978 -14.04238,-1.8632 -28.55805,-2.42243 -5.94601,-0.22905 -7.46576,-0.38317 -9.8361,-0.99733 -3.1849,-0.8252 -4.38479,-1.4102 -3.83428,-1.86939 0.61375,-0.51186 13.36372,-4.34543 14.43018,-4.3387 0.55381,0.007 1.69555,0.26257 2.53725,0.57587 1.99918,0.74404 3.4113,0.71475 5.1635,-0.10722 2.23016,-1.0462 7.80226,-1.44752 13.02657,-0.93831 2.44058,0.23786 2.54718,0.22187 3.44876,-0.51764 1.49525,-1.22642 1.05585,-1.45718 -2.94898,-1.54884 -2.63157,-0.0602 -3.55566,-0.17604 -3.44839,-0.43192 0.1966,-0.46871 7.24033,-0.31835 12.19071,0.26031 4.31369,0.50419 6.22904,0.35442 9.65418,-0.75481 4.90063,-1.58707 4.84693,-1.5842 29.31359,-1.56562 24.16527,0.0183 28.83253,0.19417 45.28684,1.70607 12.69315,1.16632 17.14856,1.36935 25.62744,1.16793 6.54533,-0.15555 8.24519,-0.11147 9.9199,0.25706 2.40411,0.52902 5.62771,1.82534 8.46512,3.40406 2.69129,1.49742 8.5946,3.79276 11.36575,4.41935 2.61355,0.59095 3.78088,0.31267 4.35509,-1.03835 0.20186,-0.47473 0.60066,-0.8631 0.88637,-0.8631 0.57393,0 9.24957,2.02448 11.61498,2.71034 7.55021,2.18933 11.40785,10.81364 7.40697,16.55937 -1.65286,2.37382 -2.58719,2.60723 -10.30708,2.57511 -3.47551,-0.0143 -8.13585,-0.19027 -10.3563,-0.39071 z M 7.7240554,331.00278 c -2.264181,-0.46715 -3.261717,-0.88134 -4.648977,-1.93016 -1.786431,-1.35061 -2.38236896,-2.18981 -2.89972696,-4.0833 -0.514402,-1.88268 -0.1216,-3.34138 2.63574496,-9.78786 3.448744,-8.06294 5.854398,-12.93207 9.1677676,-18.55571 3.571342,-6.06149 5.071634,-8.22868 9.977467,-14.41282 7.10364,-8.95467 11.91838,-16.51572 20.52429,-32.23141 8.14782,-14.87916 14.2124,-25.43358 26.07085,-45.37219 8.25495,-13.87986 11.83714,-20.28077 21.67218,-38.7258 7.30798,-13.70565 25.826959,-47.58457 27.422379,-50.16691 0.46726,-0.75629 0.97794,-1.37503 1.13487,-1.37503 0.4176,0 4.57134,-3.13424 4.97633,-3.75494 0.54657,-0.83765 -0.14771,-0.89732 -1.42761,-0.12277 -1.36635,0.82684 -1.73949,0.8821 -1.73949,0.25765 0,-0.24896 2.28104,-4.10379 5.06901,-8.56635 2.78796,-4.462503 5.61362,-9.344604 6.27928,-10.849144 0.66566,-1.504539 2.4221,-4.484719 3.90318,-6.622713 4.06767,-5.871804 5.36902,-8.214194 6.31877,-11.373761 1.20275,-4.001301 4.70801,-11.616693 7.24231,-15.734485 1.14033,-1.852871 6.15069,-8.036095 6.78264,-8.370442 0.55357,-0.292828 1.21281,0.346462 1.47777,1.433145 0.2129,0.872893 0.15547,0.943765 -0.90457,1.117648 -2.05141,0.336484 -5.82459,4.960881 -6.04978,7.414504 -0.0592,0.646341 0.0652,1.170054 0.2938,1.236264 0.21817,0.06349 0.89328,-0.606833 1.50018,-1.488858 2.10501,-3.059287 4.26403,-5.645125 4.57974,-5.485048 0.17454,0.08844 0.2435,0.839341 0.15347,1.668703 -0.0903,0.829294 -0.30037,4.099315 -0.4672,7.266659 -0.35518,6.743147 -0.65929,7.688407 -3.2563,10.122593 -0.9821,0.92051 -2.07386,2.194091 -2.42614,2.830139 -0.80907,1.460812 -0.84345,4.073411 -0.0797,6.060523 0.75503,1.964566 0.45672,2.835973 -1.27831,3.734329 -1.62095,0.839274 -1.92754,1.559993 -1.59432,3.747545 0.14068,0.923105 0.0669,2.264842 -0.17754,3.2342 -0.37873,1.501688 -0.65192,1.842906 -2.92138,3.649398 l -2.50355,1.992813 0.0363,1.613633 c 0.0406,1.799235 1.2112,4.334815 2.00132,4.334815 0.88495,0 2.69696,-3.33611 3.9277,-7.231425 0.66046,-2.090312 1.34784,-3.921168 1.52752,-4.068549 0.80092,-0.656906 0.70201,0.57042 -0.31118,3.862146 -1.49592,4.860018 -2.52058,7.148498 -4.34798,9.710888 -4.12102,5.77839 -6.26106,11.41989 -7.76683,20.47451 -0.87693,5.27327 -2.1996,9.18641 -6.22906,18.4284 -1.27737,2.92984 -4.31212,10.04395 -6.74385,15.80918 -7.02155,16.64669 -13.07856,30.22764 -16.06501,36.02073 -0.85724,1.66289 -3.53941,6.52197 -5.96038,10.79789 -18.936579,33.44636 -21.748119,38.87997 -25.328729,48.95049 -2.71151,7.62626 -4.35132,10.91929 -7.63746,15.3378 -2.58176,3.47138 -5.96926,6.73822 -12.60987,12.16088 -6.81043,5.56129 -8.82602,7.68205 -11.04517,11.62154 -1.23527,2.19294 -2.25649,5.16341 -2.26585,6.59092 -0.005,0.71378 0.11585,0.79185 1.22352,0.79185 0.67581,0 1.22872,0.12611 1.22872,0.28005 0,0.37795 -7.52536,10.57149 -10.84708,14.69303 -1.46781,1.82119 -3.69562,4.16859 -4.95068,5.21632 -2.68746,2.24354 -6.68103,4.45233 -10.25433,5.67157 -4.493695,1.5333 -10.4424256,2.57858 -12.3890806,2.17692 z M 101.28593,310.09149 c -0.85186,-0.35636 -1.615389,-0.82457 -1.696709,-1.04054 -0.12012,-0.319 0.33748,-0.35568 2.439899,-0.19525 4.14101,0.31581 4.72559,0.61945 2.7807,1.44434 -1.36199,0.57766 -1.69074,0.55826 -3.52389,-0.20855 z m 14.59092,-4.4393 c -0.12363,-0.26405 -0.10081,-0.57865 0.0502,-0.69923 0.26624,-0.21233 20.21669,-3.42782 21.26788,-3.42782 0.7151,0 1.02392,0.78563 0.57766,1.46961 -0.51587,0.79061 -3.1013,2.27366 -3.96373,2.27366 -0.39509,0 -1.31715,-0.34038 -2.04904,-0.75635 -1.13183,-0.64338 -1.47568,-0.71126 -2.30078,-0.45464 -0.53353,0.16589 -2.48797,0.36525 -4.34319,0.4429 -2.7084,0.11347 -3.72659,0.28811 -5.16648,0.88658 -2.0775,0.86351 -3.74196,0.97187 -4.07252,0.26529 z m 182.73442,-96.43431 c -1.24287,-0.85781 -1.89344,-2.36701 -1.72864,-4.00999 0.18708,-1.86518 0.96469,-1.41893 2.25775,1.29577 1.68474,3.53691 1.56357,4.15851 -0.52911,2.71422 z m -15.3053,-13.18718 c -2.69334,-1.49684 -4.84884,-3.16169 -7.2412,-5.59332 -2.61752,-2.66045 -7.32696,-8.52981 -7.32696,-9.13157 0,-1.05574 4.79158,0.0336 5.60033,1.273 0.21515,0.32962 0.55577,1.33007 0.75706,2.22318 0.42842,1.90095 1.55422,3.41402 3.4889,4.68921 1.19067,0.78489 1.38765,1.07498 1.38765,2.04384 0,1.0272 0.16626,1.2307 1.84308,2.25466 2.24163,1.36895 3.54116,2.48874 3.37182,2.90537 -0.0708,0.17405 -0.8978,-0.11813 -1.88068,-0.66437 z m -5.26504,-13.75799 c -1.15853,-0.80263 -3.2912,-2.38923 -4.73934,-3.5258 -1.44811,-1.13657 -3.29519,-2.48782 -4.10462,-3.00278 -2.24906,-1.43089 -2.9973,-2.63289 -3.11362,-5.00197 -0.11971,-2.43994 -0.63579,-3.00201 -4.05902,-4.42109 -1.27886,-0.53019 -2.41976,-1.16604 -2.53529,-1.41308 -0.11573,-0.24706 -0.0522,-0.79015 0.14106,-1.2069 0.32207,-0.69481 0.16502,-0.91605 -1.8893,-2.66132 -1.23228,-1.04698 -2.35159,-2.19052 -2.4873,-2.54127 -0.13578,-0.3507 -0.0845,-1.11932 0.11361,-1.70815 0.44615,-1.32542 0.28801,-1.49776 -2.73876,-2.98453 -1.89367,-0.93024 -2.39353,-1.0679 -2.76659,-0.76192 -0.37307,0.30604 -0.26297,0.74423 0.60932,2.42556 1.19023,2.29412 1.27214,2.65957 0.5963,2.65957 -0.68279,0 -3.22463,-4.65295 -4.05408,-7.4213 -1.09781,-3.66382 -2.83178,-6.09725 -5.96408,-8.36999 -6.1969,-4.4962 -7.18811,-5.72942 -15.31213,-19.04993 -6.05305,-9.92487 -6.8941,-11.22268 -11.34531,-17.50748 -1.15548,-1.63145 -2.82883,-4.30391 -3.71851,-5.938725 -1.64751,-3.027411 -7.47715,-15.134067 -11.79558,-24.496417 -4.31095,-9.346228 -5.92715,-12.06928 -10.37327,-17.477621 -2.95689,-3.596795 -4.56858,-6.901349 -5.03551,-10.324655 -0.37617,-2.757521 -0.0373,-5.520938 1.16748,-9.523143 1.036,-3.441249 1.11621,-5.020289 0.36111,-7.105873 -0.56194,-1.552089 -3.05905,-4.806303 -4.10113,-5.344658 -0.47703,-0.246438 -0.75602,-0.176468 -1.33742,0.335389 -0.40404,0.355719 -0.86334,0.581559 -1.02059,0.501814 -0.1571,-0.0797 -0.47372,-1.410737 -0.70319,-2.957768 -0.22946,-1.5471 -0.82445,-4.211532 -1.32221,-5.920976 -0.81398,-2.795424 -0.86604,-3.300988 -0.51761,-5.02566 0.21314,-1.054684 0.88723,-2.7503994 1.49816,-3.7682164 1.54021,-2.566151 5.29655,-5.748651 8.31273,-7.042833 3.06016,-1.31310699 4.91186,-1.70096699 8.07143,-1.69079498867 3.10443,0.009699999 5.13646,0.71080799867 6.86587,2.36797298867 2.59538,2.486986 7.34058,11.2844924 9.85316,18.2676584 0.68375,1.900434 2.13264,6.435548 3.21967,10.078026 2.55165,8.550155 3.86945,11.779175 10.28251,25.195108 3.86289,8.080996 5.91361,12.841891 7.56591,17.56456 4.26131,12.180185 9.99945,24.865946 18.29939,40.456152 2.41123,4.52916 5.23526,10.28979 9.13059,18.6252 l 2.91779,6.2436 -0.39472,1.89006 c -0.31127,1.49048 -0.30045,1.96626 0.051,2.25073 0.35771,0.28938 0.53556,0.26108 0.89973,-0.14325 0.24975,-0.27714 0.61855,-0.50389 0.81983,-0.50389 0.20136,0 0.69972,0.93944 1.10775,2.08761 2.44121,6.86998 4.99695,12.57244 8.48508,18.93232 5.41798,9.87835 7.90961,14.68686 8.13183,15.69298 0.26137,1.18398 -0.18331,4.54183 -0.61497,4.64394 -0.1931,0.0453 -1.29891,-0.57371 -2.45741,-1.37626 z M 162.21306,57.420622 c -1.21574,-1.516916 -1.66034,-3.368177 -1.18279,-4.924857 0.27116,-0.883851 0.93707,-1.717745 2.2577,-2.827229 2.16715,-1.820616 2.47261,-2.524043 2.89342,-6.662814 0.28855,-2.838049 0.3543,-3.01355 1.48857,-3.973385 1.33842,-1.132678 1.42172,-1.712817 0.88713,-6.180175 -0.28602,-2.390132 -0.26726,-2.495601 0.58872,-3.311354 0.4863,-0.463401 1.01608,-0.733419 1.17734,-0.600031 0.50689,0.419479 0.23998,7.95402 -0.38406,10.843313 -0.74806,3.463011 -1.1475,4.77456 -3.79286,12.453573 -1.38766,4.028121 -2.31989,6.262773 -2.61263,6.262773 -0.25027,0 -0.84458,-0.485939 -1.32054,-1.079814 z"
     id="path242"
     sodipodi:nodetypes="ssscscccscsscccsssscsscscssscscscssssssssscsssccscscccccccccccscssccssccsccscsscscsssscssssssssscssscssscscsssssssssscscsccscsscccccccccssccssccsccssscssccccscsscsscsccsccccccsscccscccsss" />
</svg>
