<?xml version="1.0" encoding="UTF-8" standalone="no"?>
<svg
   aria-hidden="true"
   role="img"
   class="iconify iconify--logos"
   width="31.879997"
   height="31.999992"
   preserveAspectRatio="xMidYMid"
   viewBox="0 0 255.99998 256.99994"
   version="1.1"
   id="svg6"
   sodipodi:docname="vite.svg"
   inkscape:export-filename="vite.svg"
   inkscape:export-xdpi="96"
   inkscape:export-ydpi="96"
   xmlns:inkscape="http://www.inkscape.org/namespaces/inkscape"
   xmlns:sodipodi="http://sodipodi.sourceforge.net/DTD/sodipodi-0.dtd"
   xmlns="http://www.w3.org/2000/svg"
   xmlns:svg="http://www.w3.org/2000/svg">
  <sodipodi:namedview
     id="namedview6"
     pagecolor="#505050"
     bordercolor="#eeeeee"
     borderopacity="1"
     inkscape:showpageshadow="0"
     inkscape:pageopacity="0"
     inkscape:pagecheckerboard="0"
     inkscape:deskcolor="#d1d1d1" />
  <defs
     id="defs5" />
  <path
     style="fill:#f90706;stroke-width:0.238927"
     d="m 239.37814,256.70271 c -3.63729,-0.33199 -6.72517,-0.8 -10.75579,-1.62994 -4.97497,-1.02444 -7.97928,-1.46352 -20.19992,-2.95222 -20.89325,-2.5451 -23.79079,-2.83832 -41.84269,-4.23474 -21.44806,-1.65919 -29.96398,-2.44763 -30.91555,-2.86259 -0.31067,-0.1355 -0.91901,-0.49182 -1.35189,-0.79192 l -0.78699,-0.54555 -0.0823,0.68672 c -0.0483,0.40348 -0.23056,0.68664 -0.44192,0.68664 -0.19789,0 -1.22334,-0.15091 -2.27885,-0.33539 -5.70583,-0.9974 -10.49342,-1.40804 -21.34052,-1.83064 -4.44326,-0.17314 -5.57892,-0.28959 -7.35021,-0.75368 -2.379976,-0.62363 -3.276611,-1.06572 -2.865232,-1.41275 0.45864,-0.38685 9.986282,-3.28397 10.783222,-3.27883 0.41384,0.008 1.26703,0.19837 1.896,0.43514 1.49393,0.56233 2.54915,0.54018 3.85852,-0.081 1.66653,-0.79063 5.83038,-1.0939 9.73434,-0.70909 1.82377,0.17979 1.90342,0.1677 2.57715,-0.39116 1.11736,-0.92681 0.789,-1.10123 -2.20368,-1.17053 -1.96649,-0.0453 -2.65703,-0.13301 -2.57687,-0.3264 0.14691,-0.3542 5.41047,-0.24055 9.10973,0.19671 3.22348,0.38104 4.65477,0.26783 7.21426,-0.57042 3.66208,-1.19939 3.62196,-1.1972 21.90512,-1.18315 18.05794,0.0136 21.54563,0.14676 33.84142,1.28934 9.48518,0.88139 12.81458,1.0348 19.15057,0.88261 4.89112,-0.1176 6.16137,-0.0842 7.41282,0.19428 1.79653,0.39979 4.20541,1.37943 6.32572,2.57247 2.01112,1.13162 6.42247,2.86629 8.49326,3.33983 1.95302,0.44655 2.82534,0.23624 3.25442,-0.78474 0.15086,-0.35874 0.44887,-0.65226 0.66237,-0.65226 0.42888,0 6.91191,1.52995 8.67949,2.04831 5.64204,1.65448 8.52474,8.17203 5.535,12.51417 -1.23512,1.79393 -1.93332,1.97039 -7.70215,1.94605 -2.59714,-0.0105 -6.07966,-0.14372 -7.73893,-0.29525 z M 5.7673582,250.14518 c -1.6919496,-0.35299 -2.4373798,-0.66601 -3.4740354,-1.45869 -1.33494264,-1.02068 -1.78026219,-1.65487 -2.16686854,-3.08582 -0.38439475,-1.42272 -0.0908682,-2.52509 1.96960474,-7.39683 2.5771418,-6.09337 4.3748073,-9.77305 6.8507836,-14.0229 2.6687494,-4.58079 3.7898684,-6.21859 7.4558474,-10.89203 5.308325,-6.76725 8.906227,-12.48131 15.337151,-24.35797 6.088607,-11.24442 10.620475,-19.22058 19.481918,-34.28857 6.168663,-10.4893 8.845519,-15.32659 16.194933,-29.26583 5.461022,-10.35766 19.299667,-35.960599 20.491874,-37.912168 0.349169,-0.571475 0.730784,-1.039113 0.848053,-1.039113 0.31206,0 3.416018,-2.368576 3.718654,-2.837651 0.408434,-0.633065 -0.11038,-0.678107 -1.066808,-0.09281 -1.021031,0.624829 -1.299866,0.66662 -1.299866,0.194749 0,-0.188174 1.704549,-3.101321 3.787911,-6.473793 2.083354,-3.372397 4.194879,-7.061894 4.692306,-8.198874 0.497427,-1.137056 1.809964,-3.38925 2.916724,-5.004978 3.03964,-4.437432 4.0121,-6.207629 4.72181,-8.595324 0.89879,-3.023859 3.51815,-8.778964 5.41195,-11.890864 0.85214,-1.400272 4.59622,-6.073036 5.06846,-6.325672 0.41366,-0.22135 0.90629,0.261781 1.10428,1.08302 0.1591,0.659668 0.11619,0.713249 -0.67595,0.844592 -1.53295,0.254301 -4.35253,3.749048 -4.52081,5.603357 -0.0442,0.48842 0.0487,0.884192 0.21954,0.93422 0.16304,0.04837 0.66753,-0.458571 1.12105,-1.125115 1.573,-2.311972 3.18637,-4.266187 3.42228,-4.145196 0.13044,0.06726 0.18197,0.634351 0.1147,1.261069 -0.0675,0.626718 -0.22447,3.09792 -0.34913,5.491585 -0.26542,5.095891 -0.49267,5.810272 -2.43333,7.649844 -0.73389,0.695639 -1.54973,1.658123 -1.81298,2.138761 -0.60459,1.103955 -0.63029,3.078346 -0.0595,4.580036 0.5642,1.484686 0.34129,2.14322 -0.95525,2.822158 -1.21128,0.6342 -1.44039,1.178847 -1.19139,2.832057 0.10513,0.697605 0.05,1.711553 -0.13267,2.444148 -0.28301,1.134863 -0.48716,1.392715 -2.18304,2.757922 l -1.87083,1.505997 0.0271,1.219429 c 0.0303,1.359766 0.9051,3.275967 1.49553,3.275967 0.66129,0 2.01535,-2.521155 2.93504,-5.464984 0.49355,-1.57968 1.0072,-2.96325 1.14147,-3.074643 0.5985,-0.496432 0.52459,0.431062 -0.23254,2.918662 -1.11785,3.672873 -1.88355,5.40226 -3.2491,7.338715 -3.07951,4.366849 -4.67869,8.630239 -5.80391,15.472973 -0.6553,3.98514 -1.64369,6.942344 -4.654779,13.926704 -0.954537,2.21418 -3.222309,7.59045 -5.039464,11.94731 -5.246983,12.58024 -9.773193,22.84366 -12.004873,27.22155 -0.640588,1.25668 -2.644888,4.9288 -4.454003,8.16017 -14.150705,25.27609 -16.251679,29.38237 -18.927356,36.99284 -2.026225,5.76334 -3.251603,8.25193 -5.707231,11.59107 -1.929268,2.6234 -4.460639,5.09219 -9.422956,9.19022 -5.089219,4.20279 -6.595405,5.80552 -8.253705,8.7826 -0.923079,1.65729 -1.686203,3.90216 -1.693198,4.98094 -0.0037,0.53936 0.08657,0.59838 0.914297,0.59838 0.505012,0 0.918184,0.0953 0.918184,0.21168 0,0.28558 -5.623462,7.98908 -8.105679,11.10379 -1.096848,1.37631 -2.76162,3.15028 -3.699485,3.94205 -2.008254,1.69554 -4.992523,3.36468 -7.662736,4.28613 -3.358,1.15875 -7.803297,1.9487 -9.2579669,1.64513 z M 75.683183,234.34211 c -0.636568,-0.26926 -1.20713,-0.62317 -1.267898,-0.78633 -0.08976,-0.24107 0.252188,-0.26881 1.82326,-0.14758 3.094446,0.23865 3.531283,0.46816 2.07793,1.09155 -1.017773,0.43651 -1.263437,0.42185 -2.633292,-0.15764 z m 10.903331,-3.35487 c -0.09239,-0.1995 -0.07533,-0.43725 0.03751,-0.52839 0.198952,-0.16044 15.107296,-2.59046 15.892806,-2.59046 0.53438,0 0.76516,0.5937 0.43168,1.1106 -0.3855,0.59749 -2.31751,1.71821 -2.961975,1.71821 -0.295235,0 -0.984266,-0.25716 -1.531184,-0.57155 -0.845781,-0.48623 -1.102729,-0.53754 -1.719301,-0.34362 -0.398689,0.12537 -1.85918,0.27607 -3.245528,0.3347 -2.023901,0.0857 -2.784762,0.2178 -3.860746,0.67002 -1.55245,0.65257 -2.796248,0.73448 -3.043265,0.20049 z M 223.13815,158.10999 c -0.92875,-0.64826 -1.41491,-1.78879 -1.29176,-3.03044 0.1398,-1.40957 0.72089,-1.07228 1.68714,0.97927 1.25895,2.6729 1.16841,3.14265 -0.39538,2.05117 z m -11.43717,-9.96581 c -2.01265,-1.13117 -3.62338,-2.38937 -5.41111,-4.22698 -1.95599,-2.01051 -5.4752,-6.44614 -5.4752,-6.90092 0,-0.79782 3.58059,0.0257 4.18494,0.96203 0.16078,0.24917 0.41531,1.00518 0.56573,1.68011 0.32014,1.43663 1.16141,2.58002 2.60713,3.54372 0.88976,0.59317 1.03696,0.8124 1.03696,1.54461 0,0.77629 0.12425,0.93007 1.37727,1.70385 1.6751,1.03458 2.6462,1.88084 2.51965,2.19566 -0.0529,0.13151 -0.67088,-0.0893 -1.40537,-0.50208 z m -3.9344,-10.3972 c -0.86573,-0.60653 -2.45941,-1.80556 -3.54155,-2.66451 -1.08213,-0.85888 -2.46239,-1.88007 -3.06725,-2.2692 -1.68066,-1.08136 -2.23979,-1.98973 -2.32671,-3.78011 -0.0894,-1.84396 -0.47512,-2.26866 -3.03318,-3.34112 -0.95565,-0.40066 -1.80821,-0.88115 -1.89455,-1.06789 -0.0865,-0.18667 -0.0391,-0.59709 0.10542,-0.91209 0.24066,-0.52507 0.12332,-0.69223 -1.41181,-2.01119 -0.92084,-0.79124 -1.75728,-1.6554 -1.85869,-1.92051 -0.10146,-0.26503 -0.0631,-0.84588 0.0849,-1.29084 0.3334,-1.00164 0.21522,-1.13191 -2.04659,-2.25552 -1.41508,-0.70297 -1.78861,-0.80703 -2.06738,-0.57578 -0.27878,0.23133 -0.19651,0.56248 0.45532,1.83307 0.88942,1.73369 0.95063,2.00991 0.4456,2.00991 -0.51023,0 -2.40966,-3.51637 -3.02949,-5.60842 -0.82035,-2.76888 -2.1161,-4.60785 -4.45676,-6.32537 -4.63074,-3.39786 -5.37145,-4.32989 -11.44227,-14.39645 -4.52325,-7.500363 -5.15174,-8.481135 -8.478,-13.23068 -0.86345,-1.232956 -2.11389,-3.252615 -2.77872,-4.488065 -1.23113,-2.287865 -5.58743,-11.437056 -8.81447,-18.512402 -3.22143,-7.063102 -4.42916,-9.121002 -7.75161,-13.208158 -2.20959,-2.718171 -3.41395,-5.215521 -3.76288,-7.802574 -0.28109,-2.083897 -0.0279,-4.172251 0.87243,-7.196791 0.77417,-2.600656 0.83411,-3.793937 0.26984,-5.370065 -0.41991,-1.172952 -2.28593,-3.632213 -3.06464,-4.039017 -0.35647,-0.186285 -0.56495,-0.133384 -0.99941,0.253393 -0.30193,0.268885 -0.64514,0.439526 -0.76266,0.379295 -0.11739,-0.06046 -0.35399,-1.066169 -0.52547,-2.235266 -0.17147,-1.169173 -0.61608,-3.182711 -0.98804,-4.474614 -0.60827,-2.112537 -0.64716,-2.494629 -0.38679,-3.7979425 0.15926,-0.7970571 0.66299,-2.0785301 1.11952,-2.8477768 1.15095,-1.9392513 3.95794,-4.344328 6.21183,-5.3223795 2.28677,-0.99233497 3.67049,-1.28547854 6.03154,-1.27776988972 2.31984,0.00756575 3.8383,0.53716490972 5.13064,1.78954278972 1.93945,1.8794743 5.48538,8.5279139 7.36295,13.8051769 0.51095,1.436245 1.59366,4.863507 2.40596,7.616214 1.90677,6.461475 2.89152,8.901694 7.6838,19.040422 2.88661,6.106968 4.41904,9.704872 5.65376,13.273831 3.18434,9.204811 7.47227,18.791715 13.67455,30.573529 1.80184,3.422804 3.91214,7.7762 6.823,14.075427 l 2.18038,4.7184 -0.29497,1.42839 c -0.2326,1.12633 -0.22451,1.4859 0.0381,1.70089 0.2673,0.21871 0.4002,0.19732 0.67233,-0.10829 0.18664,-0.20941 0.46222,-0.38081 0.61263,-0.38081 0.15047,0 0.52289,0.71 0.82779,1.57772 1.82424,5.19172 3.73407,9.5012 6.34064,14.30751 4.04868,7.46522 5.91059,11.09909 6.07665,11.85949 0.19532,0.8947 -0.13698,3.43233 -0.45955,3.50948 -0.14429,0.034 -0.97063,-0.43355 -1.83634,-1.04009 z M 121.21209,43.393849 c -0.90848,-1.14635 -1.24071,-2.545339 -0.88386,-3.721767 0.20263,-0.66798 0.70024,-1.298174 1.68711,-2.136569 1.61945,-1.375938 1.84771,-1.907511 2.16216,-5.035282 0.21563,-2.144732 0.26476,-2.277359 1.11237,-3.0027 1.00016,-0.856002 1.0624,-1.294471 0.66292,-4.670495 -0.21374,-1.806245 -0.19972,-1.885973 0.43993,-2.502489 0.36339,-0.350201 0.75929,-0.554245 0.87978,-0.453432 0.37879,0.317024 0.17933,6.010991 -0.28699,8.194491 -0.559,2.617056 -0.85749,3.608258 -2.83429,9.411426 -1.03695,3.044112 -1.73357,4.732918 -1.95233,4.732918 -0.18701,0 -0.63113,-0.36728 -0.9868,-0.816101 z"
     id="path242"
     sodipodi:nodetypes="ssscscccscsscccsssscsscscssscscscssssssssscsssccscscccccccccccscssccssccsccscsscscsssscssssssssscssscssscscsssssssssscscsccscsscccccccccssccssccsccssscssccccscsscsscsccsccccccsscccscccsss" />
</svg>
