<?xml version="1.0" encoding="UTF-8" standalone="no"?>
<!-- Created with Inkscape (http://www.inkscape.org/) -->

<svg
   width="210mm"
   height="297mm"
   viewBox="0 0 210 297"
   version="1.1"
   id="svg1"
   inkscape:version="1.3.2 (091e20e, 2023-11-25, custom)"
   xml:space="preserve"
   sodipodi:docname="facebook.svg"
   xmlns:inkscape="http://www.inkscape.org/namespaces/inkscape"
   xmlns:sodipodi="http://sodipodi.sourceforge.net/DTD/sodipodi-0.dtd"
   xmlns="http://www.w3.org/2000/svg"
   xmlns:svg="http://www.w3.org/2000/svg"><sodipodi:namedview
     id="namedview1"
     pagecolor="#ffffff"
     bordercolor="#111111"
     borderopacity="1"
     inkscape:showpageshadow="false"
     inkscape:pageopacity="0"
     inkscape:pagecheckerboard="false"
     inkscape:deskcolor="#515151"
     inkscape:document-units="mm"
     inkscape:zoom="0.44008137"
     inkscape:cx="396.51758"
     inkscape:cy="560.12369"
     inkscape:window-width="1366"
     inkscape:window-height="768"
     inkscape:window-x="1024"
     inkscape:window-y="0"
     inkscape:window-maximized="1"
     inkscape:current-layer="layer1" /><defs
     id="defs1" /><g
     inkscape:label="Capa 1"
     inkscape:groupmode="layer"
     id="layer1"><path
       style="fill:#fff0d7;fill-opacity:1"
       d="m 82.759183,212.68492 c -3.795108,-1.3399 -9.271983,-3.80455 -12.170833,-5.47702 -2.89885,-1.67247 -8.887463,-6.63834 -13.30803,-11.03527 -6.201437,-6.16827 -9.046597,-10.04929 -12.455487,-16.99023 -2.42994,-4.94771 -5.17071,-12.56771 -6.09059,-16.93334 -1.13864,-5.40384 -1.49524,-10.8433 -1.11717,-17.04086 0.34989,-5.73542 1.59223,-12.19219 3.358,-17.45234 1.54147,-4.59194 4.39673,-10.97292 6.34504,-14.17997 1.9483,-3.20705 6.318545,-8.56771 9.71165,-11.91258 3.393106,-3.344878 8.011387,-7.329275 10.262846,-8.854218 2.25146,-1.524943 7.013959,-4.082508 10.583333,-5.683477 3.569374,-1.600969 9.028412,-3.50733 12.131195,-4.236359 3.102783,-0.729028 9.851017,-1.325506 14.996073,-1.325506 5.14506,0 11.89329,0.58168 14.99608,1.292622 3.10278,0.710942 9.45142,3.120442 14.10809,5.354445 4.65666,2.234003 10.75939,5.977656 13.56162,8.319231 2.80222,2.341574 7.18009,6.790202 9.72859,9.885842 2.5485,3.09564 6.03975,8.47107 7.75833,11.94539 1.71858,3.47432 3.9139,8.93633 4.87848,12.13778 0.96458,3.20146 2.01445,9.86896 2.33304,14.81667 0.39728,6.1698 0.0538,11.48939 -1.09326,16.93333 -0.91988,4.36563 -3.61723,11.88195 -5.99411,16.70294 -2.72405,5.52514 -6.66824,11.274 -10.66955,15.55142 -3.49137,3.73228 -8.96827,8.52524 -12.17088,10.65102 -3.20261,2.12577 -8.61128,4.99804 -12.01925,6.38283 -3.40798,1.38478 -8.13977,2.82856 -10.51508,3.20839 l -4.31877,0.69059 v -23.41859 -23.4186 h 7.84188 7.84188 l 1.21324,-7.67291 c 0.66728,-4.22011 1.30562,-8.62542 1.41854,-9.78959 0.18918,-1.95053 -0.52154,-2.14066 -9.05512,-2.42245 l -9.26042,-0.30579 v -7.31733 c 0,-4.02453 0.52877,-8.47785 1.17504,-9.89626 0.64627,-1.41841 2.33556,-3.10769 3.75397,-3.75396 1.41841,-0.64627 5.17589,-1.17504 8.34996,-1.17504 h 5.77103 v -8.4465 c 0,-8.09877 -0.10758,-8.47351 -2.61312,-9.10236 -1.43722,-0.36072 -6.79503,-0.47676 -11.90625,-0.25788 -6.24488,0.26743 -10.61451,1.04551 -13.32161,2.37212 -2.21567,1.08579 -5.24802,3.57305 -6.73856,5.52724 -1.490537,1.9542 -3.347751,5.33999 -4.127141,7.52398 -0.79853,2.23763 -1.43735,8.47497 -1.463527,14.28965 l -0.04645,10.31875 h -8.466666 -8.466667 v 10.05417 10.05416 h 8.466667 8.466666 v 23.28333 23.28334 l -2.38125,-0.0223 c -1.309688,-0.0123 -5.486338,-1.11859 -9.281446,-2.45848 z"
       id="path1" /></g></svg>
