<?xml version="1.0" encoding="UTF-8" standalone="no"?>
<!-- Created with Inkscape (http://www.inkscape.org/) -->

<svg
   width="210mm"
   height="297mm"
   viewBox="0 0 210 297"
   version="1.1"
   id="svg1"
   inkscape:version="1.3.2 (091e20e, 2023-11-25, custom)"
   xml:space="preserve"
   sodipodi:docname="instagram.svg"
   xmlns:inkscape="http://www.inkscape.org/namespaces/inkscape"
   xmlns:sodipodi="http://sodipodi.sourceforge.net/DTD/sodipodi-0.dtd"
   xmlns="http://www.w3.org/2000/svg"
   xmlns:svg="http://www.w3.org/2000/svg"><sodipodi:namedview
     id="namedview1"
     pagecolor="#ffffff"
     bordercolor="#111111"
     borderopacity="1"
     inkscape:showpageshadow="false"
     inkscape:pageopacity="0"
     inkscape:pagecheckerboard="false"
     inkscape:deskcolor="#515151"
     inkscape:document-units="mm"
     inkscape:zoom="0.44008137"
     inkscape:cx="396.51758"
     inkscape:cy="561.25984"
     inkscape:window-width="1366"
     inkscape:window-height="697"
     inkscape:window-x="1016"
     inkscape:window-y="-8"
     inkscape:window-maximized="1"
     inkscape:current-layer="layer1" /><defs
     id="defs1" /><g
     inkscape:label="Capa 1"
     inkscape:groupmode="layer"
     id="layer1"><path
       style="fill:#ffefd6;fill-opacity:1;stroke-width:0.752878"
       d="m 92.709402,215.50542 c -3.130742,-0.56026 -8.97154,-2.39669 -12.979553,-4.08096 -4.008012,-1.68427 -10.416278,-5.29549 -14.240592,-8.02492 -3.824314,-2.72943 -9.322617,-7.81012 -12.218461,-11.29041 -2.895838,-3.48029 -6.97108,-9.87516 -9.056098,-14.21081 -2.085019,-4.33566 -4.481183,-11.14119 -5.324817,-15.1234 -0.843635,-3.9822 -1.533883,-10.34814 -1.533883,-14.14652 0,-3.79838 0.702354,-10.2222 1.560788,-14.27515 0.858435,-4.05295 3.588375,-11.46378 6.066528,-16.46851 3.360972,-6.78762 6.400928,-10.9891 11.965154,-16.5369 4.102683,-4.09056 10.167695,-9.025115 13.477804,-10.96567 3.310109,-1.940556 9.480711,-4.732567 13.712448,-6.204468 5.087936,-1.769709 10.965513,-2.859654 17.35233,-3.217842 6.6463,-0.372739 12.11961,-0.01713 17.55088,1.140316 4.34093,0.925084 11.941,3.687787 16.88903,6.139339 6.67811,3.30873 10.94047,6.400124 16.54042,11.996375 4.14919,4.14645 9.13144,10.236 11.07167,13.53233 1.94023,3.29632 4.78167,9.50013 6.31432,13.78622 2.44312,6.8323 2.78663,9.43003 2.78663,21.07396 0,11.64394 -0.34351,14.24167 -2.78663,21.07396 -1.53265,4.2861 -4.37409,10.48126 -6.31432,13.76702 -1.94023,3.28576 -6.66396,9.14778 -10.49719,13.02671 -3.83322,3.87892 -10.0477,8.76369 -13.80996,10.85502 -3.76226,2.09133 -9.88227,4.81828 -13.60001,6.05988 -4.35197,1.45342 -10.40584,2.40985 -16.99689,2.68527 -5.63054,0.23529 -12.798855,-0.0306 -15.929598,-0.59084 z m 39.490548,-30.63555 c 3.03916,-1.48476 6.1638,-4.08295 7.69704,-6.40021 1.41955,-2.14544 3.11056,-6.74916 3.7578,-10.2305 0.68403,-3.67926 1.0071,-13.67045 0.77152,-23.86069 -0.36397,-15.74431 -0.65895,-18.0525 -2.89428,-22.64791 -1.48339,-3.04954 -4.06477,-6.15987 -6.38916,-7.69834 -2.14508,-1.41978 -6.74803,-3.11108 -10.22878,-3.75843 -3.67864,-0.68415 -13.66815,-1.00727 -23.85667,-0.77165 -15.741639,0.36403 -18.049441,0.65906 -22.644077,2.89477 -3.04903,1.48363 -6.158835,4.06545 -7.697042,6.39023 -1.419547,2.14544 -3.110557,6.74917 -3.757798,10.23051 -0.68404,3.67926 -1.0071,13.67045 -0.771526,23.86069 0.363974,15.7443 0.658949,18.05249 2.894286,22.64791 1.494862,3.07314 4.06504,6.16005 6.434865,7.72859 2.170221,1.43643 6.056117,3.05127 8.635322,3.58856 2.579206,0.53728 13.294136,0.8754 23.81096,0.75137 17.66537,-0.20832 19.51108,-0.41582 24.23754,-2.7249 z m -48.848059,-5.49259 c -1.850427,-0.55793 -4.570192,-2.44764 -6.043922,-4.19937 -1.480244,-1.75946 -2.987454,-5.23881 -3.367547,-7.77388 -0.378419,-2.52391 -0.526879,-12.70432 -0.329909,-22.62312 0.298538,-15.03347 0.669914,-18.50951 2.231957,-20.89084 1.030605,-1.57117 3.160751,-3.70004 4.733654,-4.73081 2.498307,-1.63723 5.624561,-1.87415 24.730516,-1.87415 19.10596,0 22.23222,0.23692 24.73052,1.87415 1.57291,1.03077 3.70305,3.16128 4.73366,4.73445 1.63695,2.49873 1.87383,5.62551 1.87383,24.73469 0,19.10918 -0.23688,22.23597 -1.87383,24.7347 -1.03061,1.57316 -3.15908,3.70367 -4.72994,4.73445 -2.44357,1.60345 -5.77869,1.90448 -23.09034,2.08414 -11.128829,0.11551 -21.748222,-0.24648 -23.598649,-0.80441 z m 29.144939,-12.2061 c 2.16426,-0.90444 5.0802,-2.69739 6.47984,-3.98432 1.39966,-1.28694 3.42734,-4.25235 4.50597,-6.58982 1.07862,-2.33747 1.96114,-5.92335 1.96114,-7.96864 0,-2.04528 -0.88252,-5.63116 -1.96114,-7.96863 -1.07863,-2.33747 -3.10631,-5.30288 -4.50597,-6.58982 -1.39964,-1.28693 -4.31558,-3.07988 -6.47984,-3.98432 -2.16427,-0.90443 -5.39985,-1.64443 -7.19019,-1.64443 -1.79034,0 -5.02591,0.74 -7.190178,1.64443 -2.164264,0.90444 -5.080198,2.69739 -6.47985,3.98432 -1.399652,1.28694 -3.427337,4.25235 -4.505963,6.58982 -1.078629,2.33747 -1.971641,5.81918 -1.984473,7.73714 -0.01284,1.91796 0.716541,5.25826 1.620829,7.42289 0.904287,2.16463 2.696927,5.08106 3.983644,6.48094 1.286717,1.39989 4.251635,3.42792 6.588707,4.50673 2.337071,1.07881 5.818194,1.97197 7.735834,1.98481 1.91763,0.0128 5.25737,-0.71667 7.42164,-1.6211 z m -13.816239,-7.45616 c -1.599392,-0.86797 -3.631051,-2.97661 -4.514797,-4.68588 -0.883747,-1.70927 -1.606812,-4.58959 -1.606812,-6.40074 0,-1.81114 0.725147,-4.69549 1.611439,-6.40968 0.886292,-1.71419 3.013721,-3.84198 4.72762,-4.72842 1.713899,-0.88644 4.597769,-1.61171 6.408599,-1.61171 1.81084,0 4.6947,0.72527 6.40861,1.61171 1.71389,0.88644 3.84133,3.01423 4.72761,4.72842 0.88629,1.71419 1.61144,4.59854 1.61144,6.40968 0,1.81115 -0.72515,4.6955 -1.61144,6.40969 -0.88628,1.71419 -3.01372,3.84198 -4.72761,4.72842 -1.71391,0.88643 -4.69355,1.59257 -6.62143,1.56917 -1.92788,-0.0234 -4.81384,-0.7527 -6.413229,-1.62066 z m 30.452039,-28.6935 c 0.91814,-0.91829 1.66934,-2.49608 1.66934,-3.5062 0,-1.01012 -0.57364,-2.41032 -1.27477,-3.11156 -0.70112,-0.70124 -2.35743,-1.27499 -3.68069,-1.27499 -1.32326,0 -2.90079,0.92481 -3.5056,2.05513 -0.60483,1.13031 -1.09969,2.53051 -1.09969,3.11156 0,0.58104 0.7512,1.80777 1.66934,2.72606 0.91813,0.91829 2.3181,1.66961 3.11104,1.66961 0.79293,0 2.19289,-0.75132 3.11103,-1.66961 z"
       id="path1" /></g></svg>
