<?xml version="1.0" encoding="UTF-8" standalone="no"?>
<!-- Created with Inkscape (http://www.inkscape.org/) -->

<svg
   width="210mm"
   height="297mm"
   viewBox="0 0 210 297"
   version="1.1"
   id="svg1"
   inkscape:version="1.3.2 (091e20e, 2023-11-25, custom)"
   xml:space="preserve"
   sodipodi:docname="whatsapp.svg"
   xmlns:inkscape="http://www.inkscape.org/namespaces/inkscape"
   xmlns:sodipodi="http://sodipodi.sourceforge.net/DTD/sodipodi-0.dtd"
   xmlns="http://www.w3.org/2000/svg"
   xmlns:svg="http://www.w3.org/2000/svg"><sodipodi:namedview
     id="namedview1"
     pagecolor="#ffffff"
     bordercolor="#111111"
     borderopacity="1"
     inkscape:showpageshadow="false"
     inkscape:pageopacity="0"
     inkscape:pagecheckerboard="false"
     inkscape:deskcolor="#515151"
     inkscape:document-units="mm"
     inkscape:zoom="0.31118452"
     inkscape:cx="686.08811"
     inkscape:cy="154.24932"
     inkscape:window-width="1366"
     inkscape:window-height="697"
     inkscape:window-x="1016"
     inkscape:window-y="-8"
     inkscape:window-maximized="1"
     inkscape:current-layer="layer1" /><defs
     id="defs1" /><g
     inkscape:label="Capa 1"
     inkscape:groupmode="layer"
     id="layer1"><path
       style="fill:#fff0d7;fill-opacity:1;stroke-width:0.750671"
       d="m 92.385332,215.50542 c -3.112412,-0.56026 -8.919014,-2.39669 -12.903565,-4.08096 -3.984542,-1.68427 -10.355292,-5.29549 -14.157216,-8.02492 -3.801924,-2.72943 -9.268037,-7.81012 -12.14692,-11.29041 -2.87889,-3.48029 -6.930273,-9.87516 -9.003085,-14.21081 -2.072803,-4.33566 -4.454946,-11.14119 -5.293642,-15.1234 -0.838695,-3.9822 -1.524902,-10.34814 -1.524902,-14.14652 0,-3.79838 0.698242,-10.2222 1.55165,-14.27515 0.853409,-4.05295 3.567366,-11.46378 6.031011,-16.46851 3.341294,-6.78762 6.363452,-10.9891 11.895102,-16.5369 4.078663,-4.09056 10.108169,-9.025115 13.398894,-10.96567 3.290732,-1.940556 9.425208,-4.732567 13.632171,-6.204468 5.058147,-1.769709 10.901313,-2.859654 17.25074,-3.217842 6.60738,-0.372739 12.04865,-0.01713 17.44812,1.140316 4.31552,0.925084 11.87109,3.687787 16.79016,6.139339 6.63901,3.30873 10.87641,6.400124 16.44358,11.996375 4.1249,4.14645 9.07798,10.236 11.00685,13.53233 1.92887,3.29632 4.75368,9.50013 6.27735,13.78622 2.42882,6.8323 3.56237,13.98814 3.56237,21.07396 0,7.08583 -1.13355,14.24167 -3.56237,21.07396 -1.52367,4.2861 -4.34848,10.48126 -6.27735,13.76702 -1.92887,3.28576 -6.62494,9.14778 -10.43573,13.02671 -3.81078,3.87892 -9.98888,8.76369 -13.72911,10.85502 -3.74024,2.09133 -9.82441,4.81828 -13.52039,6.05988 -4.32649,1.45342 -10.34492,2.40985 -16.89738,2.68527 -5.59757,0.23529 -12.723924,-0.0306 -15.836338,-0.59084 z m -14.661131,-29.76034 8.55627,-2.19785 7.210591,2.33257 c 5.708874,1.84676 8.917738,2.23313 15.407568,1.85516 5.78563,-0.33694 9.89954,-1.27089 13.98456,-3.17479 3.18316,-1.48357 7.96077,-4.64286 10.61691,-7.02065 2.65614,-2.37779 6.29724,-7.10634 8.09134,-10.50789 1.79409,-3.40156 3.84106,-9.17289 4.54881,-12.82518 1.0117,-5.22081 1.0117,-8.06026 0,-13.28106 -0.70775,-3.65229 -2.73728,-9.39071 -4.51006,-12.75203 -1.77279,-3.36134 -5.33066,-8.06583 -7.90637,-10.45442 -2.57572,-2.3886 -7.38018,-5.61489 -10.67657,-7.16955 -5.30286,-2.50094 -11.1297,-4.00891 -17.08235,-3.93974 -6.346347,0.18235 -11.502614,1.34802 -17.442572,4.46501 -3.494525,1.83375 -8.636578,5.78949 -11.426789,8.79052 -2.790211,3.00104 -6.341876,8.19033 -7.892583,11.53178 -2.438857,5.2552 -3.550056,10.8512 -3.596638,16.16896 -0.04658,5.31776 1.257505,11.08711 3.171826,15.30837 l 2.364871,5.21477 -2.654683,9.80349 c -1.460076,5.39192 -2.654683,10.14867 -2.654683,10.57055 0,0.42189 0.750211,0.47744 1.667144,0.12344 0.916927,-0.35399 5.517461,-1.63265 10.223408,-2.84146 z m 22.058606,-5.1817 c -1.94804,-0.49481 -5.374041,-1.73084 -7.613338,-2.74674 -3.751638,-1.70201 -4.572579,-1.72009 -10.451251,-0.23028 -3.508893,0.88924 -6.379797,1.51792 -6.379797,1.39706 0,-0.12087 0.749778,-2.75985 1.666179,-5.8644 1.633076,-5.53248 1.612092,-5.7659 -1.056085,-11.74742 -2.140811,-4.79926 -2.722264,-7.79691 -2.722264,-14.03446 0,-6.70825 0.4946,-8.92748 3.206573,-14.3875 1.763614,-3.55068 5.15092,-8.22304 7.527353,-10.38301 2.376425,-2.15997 6.317465,-4.8158 8.757864,-5.90185 2.440399,-1.08604 7.054474,-2.28411 10.253499,-2.66237 4.09754,-0.4845 7.64362,-0.15334 11.99944,1.1206 3.40066,0.99459 8.18149,3.19166 10.62406,4.88236 2.44256,1.69072 5.93611,5.11714 7.76343,7.61427 1.82732,2.49714 4.07341,7.13538 4.99131,10.30719 1.09958,3.79957 1.48794,8.0352 1.13841,12.41592 -0.29177,3.65694 -1.52576,8.71171 -2.74219,11.23282 -1.21643,2.5211 -3.66672,6.35519 -5.44509,8.52019 -1.80015,2.19152 -6.14249,5.36361 -9.79633,7.15625 -3.91711,1.9218 -8.90461,3.41967 -12.37142,3.71545 -3.19466,0.27255 -7.40232,0.0907 -9.350353,-0.40408 z m 23.807513,-15.75571 c 1.27169,-1.00965 2.62212,-3.1185 3.00096,-4.68633 0.61211,-2.53328 0.21248,-3.09505 -3.5902,-5.0468 -2.35346,-1.20791 -5.00676,-2.1962 -5.89625,-2.1962 -0.88949,0 -2.21084,0.95623 -2.93633,2.12497 -0.72549,1.16873 -2.30819,2.12497 -3.51711,2.12497 -1.20893,0 -3.92053,-1.31482 -6.02578,-2.92183 -2.10525,-1.60701 -4.86216,-4.26729 -6.126468,-5.91173 -2.216604,-2.88306 -2.234748,-3.11085 -0.507825,-6.37491 1.713858,-3.23936 1.6946,-3.60216 -0.447594,-8.43181 -1.23118,-2.77574 -2.89026,-5.0468 -3.686845,-5.0468 -0.796584,0 -2.217639,0.297 -3.157898,0.65999 -0.940259,0.363 -2.404844,2.01267 -3.254629,3.66594 -0.849795,1.65326 -1.545072,4.27224 -1.545072,5.81996 0,1.54771 0.787683,4.484 1.750412,6.52508 0.962723,2.04109 4.168247,6.3726 7.123384,9.62558 3.482728,3.83375 7.604025,6.97639 11.714685,8.93286 3.73771,1.77898 8.07627,3.009 10.56605,2.99557 2.37538,-0.0128 5.23636,-0.82627 6.53651,-1.85851 z"
       id="path1"
       sodipodi:nodetypes="sssssssssssssssssscsssssssscsssssssssscssscscssssssssssssssssssssssssssssssssssssssssssss" /></g></svg>
